{"glyphs":{"0":{"ha":0,"x_min":0,"x_max":0,"o":"b 474 -225 60 0 474 -142 b 810 58 474 -83 728 58 b 412 NaN 665 58 412 NaN "},"1":{"ha":-158,"x_min":0,"x_max":0,"o":"m 439 982 l 316 982 l 72 819 l 72 696 l 311 854 l 316 854 l 316 0 l 439 0 z "},"2":{"ha":0,"x_min":0,"x_max":0,"o":""},"3":{"ha":90,"x_min":0,"x_max":0,"o":"m 431 -14 b 773 267 627 -14 774 106 l 650 267 b 991 7 656 111 796 7 z "},"4":{"ha":0,"x_min":0,"x_max":0,"o":"l 100 0 l 100 68 l 774 68 l 774 -83 l 332 -764 m 463 -757 l 463 -749 l 795 -237 l 808 -237 l 808 -757 z "},"5":{"ha":62,"x_min":0,"x_max":0,"o":"m 412 -14 l 521 -14 l 521 -545 z "},"6":{"ha":85,"x_min":0,"x_max":0,"o":"m 434 -14 b 776 317 640 -15 776 133 b 456 643 776 507 631 643 b 203 513 350 643 260 594 l 191 513 b 536 910 288 749 426 910 b 559 823 601 910 536 823 b 240 929 533 823 412 929 b -133 387 9 929 -133 734 b 225 -80 -133 23 54 -77 z m 225 27 b -1 248 94 27 -1 133 b 228 469 0 365 99 469 b 353 370 357 469 448 370 b NaN NaN 252 370 125 NaN z "},"7":{"ha":-1,"x_min":0,"x_max":0,"o":"m 123 0 l 251 0 l 700 868 l 700 982 l 54 982 l 54 873 l 574 873 l 574 867 z "},"8":{"ha":75,"x_min":0,"x_max":0,"o":"m 420 -14 b 770 260 625 -14 769 100 b 570 510 769 388 681 492 l 570 515 b 732 735 666 538 731 628 b 420 996 731 886 600 996 b 110 735 241 996 110 886 b 271 515 110 628 174 538 l 271 510 b 72 260 159 492 71 388 b 420 -14 71 100 214 -14 z m 420 94 b 194 267 279 94 191 164 b 420 456 191 376 289 456 b 648 267 552 456 648 376 b 420 94 648 164 562 94 z m 420 559 b 228 726 308 559 228 627 b 420 890 228 823 304 890 b 613 726 536 890 613 823 b 420 559 613 627 532 559 z "},"9":{"ha":85,"x_min":0,"x_max":0,"o":"m 419 996 b 76 666 210 997 76 849 b 397 342 76 476 221 342 b 648 472 502 342 591 391 l 662 472 b 403 95 661 233 563 95 b 205 248 293 95 227 160 l 84 248 b 403 -14 109 92 231 -14 b 776 530 633 -14 776 182 b 419 996 776 892 589 994 z m 419 888 b 643 670 549 888 643 783 b 415 449 643 555 543 449 b 195 667 286 449 195 545 b 419 888 194 788 290 888 z "}," ":{"ha":-418,"x_min":0,"x_max":0,"o":""}," ":{"ha":-418,"x_min":0,"x_max":0,"o":""},"A":{"ha":0,"x_min":0,"x_max":0,"o":""},"Á":{"ha":0,"x_min":0,"x_max":0,"o":""},"Ă":{"ha":0,"x_min":0,"x_max":0,"o":""},"Ắ":{"ha":0,"x_min":0,"x_max":0,"o":""},"Ặ":{"ha":0,"x_min":0,"x_max":0,"o":""},"Ằ":{"ha":0,"x_min":0,"x_max":0,"o":""},"Ẳ":{"ha":130,"x_min":0,"x_max":0,"o":"m -113 -849 l 498 372 l 654 811 l 662 811 l 818 372 z "},"Ẵ":{"ha":0,"x_min":0,"x_max":0,"o":""},"Ǎ":{"ha":0,"x_min":0,"x_max":0,"o":""},"Â":{"ha":0,"x_min":0,"x_max":0,"o":""},"Ấ":{"ha":0,"x_min":0,"x_max":0,"o":""},"Ậ":{"ha":0,"x_min":0,"x_max":0,"o":""},"Ầ":{"ha":0,"x_min":0,"x_max":0,"o":""},"Ẩ":{"ha":130,"x_min":0,"x_max":0,"o":"m 487 1236 l 355 1236 l 174 1062 l 293 1062 l 420 1181 l 551 1062 l 670 1062 z m 690 1153 l 690 1194 b 777 1279 735 1199 777 1222 b 601 1386 777 1344 716 1386 l 597 1324 b 686 1282 648 1324 686 1312 b 608 1241 686 1252 662 1245 l 609 1153 "},"Ẫ":{"ha":0,"x_min":0,"x_max":0,"o":""},"Ȁ":{"ha":0,"x_min":0,"x_max":0,"o":""},"Ä":{"ha":0,"x_min":0,"x_max":0,"o":""},"Ǟ":{"ha":0,"x_min":0,"x_max":0,"o":""},"Ạ":{"ha":0,"x_min":0,"x_max":0,"o":""},"Ǡ":{"ha":0,"x_min":0,"x_max":0,"o":""},"À":{"ha":0,"x_min":0,"x_max":0,"o":"l 130 0 l 130 374 l 1212 374 l 1212 239 "},"Ả":{"ha":0,"x_min":0,"x_max":0,"o":""},"Ȃ":{"ha":0,"x_min":0,"x_max":0,"o":""},"Ā":{"ha":0,"x_min":0,"x_max":0,"o":""},"Ą":{"ha":0,"x_min":0,"x_max":0,"o":""},"Å":{"ha":0,"x_min":0,"x_max":0,"o":""},"Ǻ":{"ha":0,"x_min":0,"x_max":0,"o":""},"Ḁ":{"ha":0,"x_min":0,"x_max":0,"o":""},"Ã":{"ha":0,"x_min":0,"x_max":0,"o":""},"Æ":{"ha":0,"x_min":0,"x_max":0,"o":""},"Ǽ":{"ha":0,"x_min":0,"x_max":0,"o":""},"Ǣ":{"ha":0,"x_min":0,"x_max":0,"o":""},"B":{"ha":93,"x_min":0,"x_max":0,"o":""},"Ḃ":{"ha":0,"x_min":0,"x_max":0,"o":""},"Ḅ":{"ha":0,"x_min":0,"x_max":0,"o":""},"Ɓ":{"ha":303,"x_min":0,"x_max":0,"o":"m 256 873 z m 673 109 "},"Ḇ":{"ha":0,"x_min":0,"x_max":0,"o":""},"Ƃ":{"ha":0,"x_min":0,"x_max":0,"o":""},"C":{"ha":196,"x_min":0,"x_max":0,"o":""},"Ć":{"ha":0,"x_min":0,"x_max":0,"o":""},"Č":{"ha":0,"x_min":0,"x_max":0,"o":""},"Ç":{"ha":0,"x_min":0,"x_max":0,"o":""},"Ḉ":{"ha":0,"x_min":0,"x_max":0,"o":""},"Ĉ":{"ha":0,"x_min":0,"x_max":0,"o":""},"Ċ":{"ha":0,"x_min":0,"x_max":0,"o":""},"Ƈ":{"ha":257,"x_min":0,"x_max":0,"o":"m 901 673 l 901 795 b 1009 897 901 872 948 897 b 1047 892 1023 897 1036 894 l 1047 991 b 981 997 1028 997 1004 997 b 799 879 896 997 827 956 b 505 996 725 954 621 996 b 505 1356 252 996 505 1195 b NaN 1512 505 1477 705 1512 z "},"D":{"ha":0,"x_min":0,"x_max":0,"o":""},"Ǳ":{"ha":0,"x_min":0,"x_max":0,"o":""},"Ɖ":{"ha":0,"x_min":0,"x_max":0,"o":""},"Ď":{"ha":185,"x_min":0,"x_max":0,"o":"m -167 -1036 l -167 -848 l 1111 -848 l 1111 -83 l 1298 -83 b 1643 -464 1527 -83 1643 -227 b 1286 -848 1643 -703 1527 -848 z "},"Ḑ":{"ha":0,"x_min":0,"x_max":0,"o":""},"Ḓ":{"ha":0,"x_min":0,"x_max":0,"o":""},"Đ":{"ha":0,"x_min":0,"x_max":0,"o":""},"Ḋ":{"ha":0,"x_min":0,"x_max":0,"o":""},"Ḍ":{"ha":0,"x_min":0,"x_max":0,"o":""},"Ɗ":{"ha":401,"x_min":0,"x_max":0,"o":"m 54 784 l 123 784 l 123 -90 l 429 -90 "},"Ḏ":{"ha":0,"x_min":0,"x_max":0,"o":""},"Ƌ":{"ha":66,"x_min":0,"x_max":0,"o":"m 397 0 l 765 0 l 765 962 l 172 962 l 172 848 l 625 848 l 625 575 l 397 575 b 68 290 186 575 68 463 b 397 0 68 119 186 0 z m 625 111 l 397 111 b 209 293 263 111 209 198 b 397 463 209 385 263 463 l 625 463 z "},"ǲ":{"ha":897,"x_min":0,"x_max":0,"o":"m 916 0 "},"ǅ":{"ha":897,"x_min":0,"x_max":0,"o":"m 916 0 "},"Ð":{"ha":0,"x_min":0,"x_max":0,"o":""},"E":{"ha":21,"x_min":0,"x_max":0,"o":""},"É":{"ha":0,"x_min":0,"x_max":0,"o":""},"Ĕ":{"ha":0,"x_min":0,"x_max":0,"o":""},"Ě":{"ha":0,"x_min":0,"x_max":0,"o":""},"Ḝ":{"ha":21,"x_min":0,"x_max":0,"o":"m 109 0 "},"Ê":{"ha":0,"x_min":0,"x_max":0,"o":""},"Ế":{"ha":0,"x_min":0,"x_max":0,"o":""},"Ḙ":{"ha":0,"x_min":0,"x_max":0,"o":""},"Ệ":{"ha":0,"x_min":0,"x_max":0,"o":""},"Ề":{"ha":0,"x_min":0,"x_max":0,"o":""},"Ể":{"ha":0,"x_min":0,"x_max":0,"o":""},"Ễ":{"ha":0,"x_min":0,"x_max":0,"o":""},"Ȅ":{"ha":21,"x_min":0,"x_max":0,"o":"m 145 100 l 247 100 l 132 323 l -12 323 z m 351 100 l 452 100 l 380 323 l 233 323 z "},"Ë":{"ha":0,"x_min":0,"x_max":0,"o":""},"Ė":{"ha":0,"x_min":0,"x_max":0,"o":""},"Ẹ":{"ha":0,"x_min":0,"x_max":0,"o":""},"È":{"ha":0,"x_min":0,"x_max":0,"o":""},"Ẻ":{"ha":0,"x_min":0,"x_max":0,"o":""},"Ȇ":{"ha":21,"x_min":0,"x_max":0,"o":""},"Ē":{"ha":0,"x_min":0,"x_max":0,"o":""},"Ḗ":{"ha":0,"x_min":0,"x_max":0,"o":""},"Ḕ":{"ha":0,"x_min":0,"x_max":0,"o":""},"Ę":{"ha":21,"x_min":0,"x_max":0,"o":"m 109 0 l 583 0 l 583 -72 l 534 -72 l 534 -100 l 478 -100 l 478 -155 z "},"Ɛ":{"ha":67,"x_min":0,"x_max":0,"o":"m 68 260 b 415 -14 68 68 231 -14 b 765 267 601 -14 765 72 l 625 267 b 414 98 625 174 556 98 b 209 271 300 98 209 148 b 416 444 209 387 279 444 l 525 444 l 525 555 l 416 555 b 222 720 277 555 222 636 b 419 883 222 817 290 883 b 612 731 541 883 612 821 l 751 731 b 419 996 751 894 614 996 b 84 726 231 996 84 895 b 239 503 84 620 143 543 b 68 260 130 465 68 385 z "},"Ʃ":{"ha":64,"x_min":0,"x_max":0,"o":"m 746 114 l 245 114 l 530 473 l 530 486 l 245 848 l 716 848 l 716 962 l 69 962 l 69 860 l 381 477 l 69 100 l 69 0 l 746 0 z "},"Ẽ":{"ha":0,"x_min":0,"x_max":0,"o":""},"Ḛ":{"ha":0,"x_min":0,"x_max":0,"o":""},"Ǝ":{"ha":21,"x_min":0,"x_max":0,"o":"m 680 982 l 77 982 l 77 873 l 557 873 l 557 544 l 115 544 l 115 437 l 557 437 l 557 109 l 84 109 l 84 0 l 680 0 z "},"Ə":{"ha":189,"x_min":0,"x_max":0,"o":"m 464 -14 b 879 450 718 -14 879 184 l 879 529 b 439 996 879 817 708 996 b 171 933 338 996 228 968 l 203 830 b 431 879 279 863 359 879 b 736 529 633 879 736 750 l 736 513 l 80 513 l 80 427 b 464 -14 80 146 235 -14 z m 218 385 l 218 406 l 735 406 b 463 100 722 222 626 100 b 218 385 313 100 218 198 z "},"Ʒ":{"ha":135,"x_min":0,"x_max":0,"o":""},"Ǯ":{"ha":0,"x_min":0,"x_max":0,"o":""},"Ƹ":{"ha":135,"x_min":0,"x_max":0,"o":"m 846 43 l 723 43 b 457 -180 713 -90 597 -180 b 187 118 292 -180 187 -50 b 511 427 187 308 321 427 l 586 427 l 586 529 l 260 864 l 260 872 l 791 872 l 791 982 l 91 982 l 91 892 l 437 533 l 437 524 b 66 119 220 514 66 350 b 458 -290 66 -119 224 -290 b 846 43 670 -290 837 -155 z "},"F":{"ha":6,"x_min":0,"x_max":0,"o":"m 109 0 l 231 0 l 231 438 z "},"Ḟ":{"ha":6,"x_min":0,"x_max":0,"o":"m 109 0 l 231 0 l 231 438 "},"Ƒ":{"ha":7,"x_min":0,"x_max":0,"o":"m 109 0 l 109 -76 b 3 -174 109 -152 64 -174 b -34 -171 -11 -174 -24 -172 l -34 -270 b 5 -277 -5 -277 -4 -277 b 231 -77 152 -277 231 -206 l 231 0 l 232 0 l 232 438 l -750 438 z "},"G":{"ha":218,"x_min":0,"x_max":0,"o":""},"Ǵ":{"ha":0,"x_min":0,"x_max":0,"o":""},"Ǥ":{"ha":216,"x_min":0,"x_max":0,"o":"m 977 300 l 903 300 b 910 387 907 328 910 356 l 910 492 l 534 492 l 534 385 l 791 385 b 780 300 790 355 786 326 l 534 300 l 534 205 l 735 205 l 669 205 l 669 155 l 589 155 l 589 117 l 492 117 l 492 243 b 646 213 682 243 646 83 b 895 140 646 5 814 140 b 1094 NaN 1032 140 1094 NaN l 1197 NaN z "},"Ğ":{"ha":0,"x_min":0,"x_max":0,"o":""},"Ǧ":{"ha":0,"x_min":0,"x_max":0,"o":""},"Ĝ":{"ha":0,"x_min":0,"x_max":0,"o":""},"Ģ":{"ha":218,"x_min":0,"x_max":0,"o":"m -393 -1001 l -302 -1001 l -220 -753 l -338 -753 z "},"Ġ":{"ha":0,"x_min":0,"x_max":0,"o":""},"Ɠ":{"ha":258,"x_min":0,"x_max":0,"o":"m 779 675 l 905 675 l 902 689 l 902 781 b 1010 879 902 857 948 879 b 1047 876 1024 879 1038 878 l 1047 974 b 981 981 1031 981 1004 981 b 803 873 891 981 831 943 "},"Ḡ":{"ha":0,"x_min":0,"x_max":0,"o":""},"Ȝ":{"ha":66,"x_min":0,"x_max":0,"o":"m 136 324 l 136 221 b 562 400 305 258 453 319 b 617 224 601 365 617 309 b 136 -176 617 -20 441 -115 l 136 -288 b 758 216 496 -216 758 -96 b 643 473 758 344 717 425 b 743 715 707 544 743 625 b 414 996 743 895 605 996 b 76 728 217 996 76 892 l 214 728 b 414 883 214 821 293 883 b 605 701 536 883 605 817 b 136 324 605 518 438 415 z "},"H":{"ha":214,"x_min":0,"x_max":0,"o":""},"Ħ":{"ha":265,"x_min":0,"x_max":0,"o":"m 978 777 l 901 777 l 901 982 l 777 982 l 777 777 l 258 777 l 258 982 l 136 982 l 136 777 l 54 777 l 54 677 l 136 677 l 136 0 l 258 0 l 258 438 l 777 438 l 777 0 l 901 0 l 901 677 l 978 677 z m 258 545 l 258 677 l 777 677 l 777 545 z "},"Ḫ":{"ha":214,"x_min":0,"x_max":0,"o":"m 581 -1046 l 689 -1046 l 689 -1153 b 594 -1248 689 -1202 662 -1248 b 502 -1153 529 -1248 502 -1203 l 396 -1153 b 597 -1332 396 -1255 472 -1332 b 796 -1153 719 -1332 796 -1257 z "},"Ḩ":{"ha":214,"x_min":0,"x_max":0,"o":"m 109 0 l 134 0 l 115 -91 l 151 NaN z "},"Ĥ":{"ha":0,"x_min":0,"x_max":0,"o":""},"Ḧ":{"ha":0,"x_min":0,"x_max":0,"o":""},"Ḣ":{"ha":0,"x_min":0,"x_max":0,"o":""},"Ḥ":{"ha":0,"x_min":0,"x_max":0,"o":""},"I":{"ha":-428,"x_min":0,"x_max":0,"o":""},"Ĳ":{"ha":0,"x_min":0,"x_max":0,"o":""},"Í":{"ha":0,"x_min":0,"x_max":0,"o":""},"Ĭ":{"ha":0,"x_min":0,"x_max":0,"o":""},"Ǐ":{"ha":0,"x_min":0,"x_max":0,"o":""},"Î":{"ha":0,"x_min":0,"x_max":0,"o":""},"Ȉ":{"ha":0,"x_min":0,"x_max":0,"o":""},"Ï":{"ha":0,"x_min":0,"x_max":0,"o":""},"Ḯ":{"ha":0,"x_min":0,"x_max":0,"o":""},"İ":{"ha":0,"x_min":0,"x_max":0,"o":""},"Ị":{"ha":0,"x_min":0,"x_max":0,"o":""},"Ì":{"ha":0,"x_min":0,"x_max":0,"o":""},"Ỉ":{"ha":0,"x_min":0,"x_max":0,"o":""},"Ȋ":{"ha":-428,"x_min":0,"x_max":0,"o":""},"Ī":{"ha":0,"x_min":0,"x_max":0,"o":""},"Į":{"ha":-428,"x_min":0,"x_max":0,"o":"m 231 982 l 109 982 l 109 4 z "},"Ɩ":{"ha":-389,"x_min":0,"x_max":0,"o":""},"Ɨ":{"ha":-428,"x_min":0,"x_max":0,"o":"m 231 982 l 109 982 l 109 552 l -354 552 l -354 674 l 109 674 z "},"Ĩ":{"ha":0,"x_min":0,"x_max":0,"o":""},"Ḭ":{"ha":0,"x_min":0,"x_max":0,"o":""},"J":{"ha":0,"x_min":0,"x_max":0,"o":""},"Ĵ":{"ha":0,"x_min":0,"x_max":0,"o":""},"K":{"ha":96,"x_min":0,"x_max":0,"o":""},"Ḱ":{"ha":0,"x_min":0,"x_max":0,"o":""},"Ǩ":{"ha":0,"x_min":0,"x_max":0,"o":""},"Ķ":{"ha":0,"x_min":0,"x_max":0,"o":""},"Ḳ":{"ha":0,"x_min":0,"x_max":0,"o":""},"Ƙ":{"ha":123,"x_min":0,"x_max":0,"o":"m 109 0 l 231 0 l 231 316 l 353 453 l 693 0 l 841 0 l 429 538 l 707 837 b 841 867 755 890 798 892 l 890 958 b 629 924 810 1013 707 1009 l 243 498 l 231 498 l 231 982 l 109 982 z "},"Ḵ":{"ha":0,"x_min":0,"x_max":0,"o":""},"L":{"ha":-26,"x_min":0,"x_max":0,"o":""},"Ǉ":{"ha":0,"x_min":0,"x_max":0,"o":""},"Ĺ":{"ha":0,"x_min":0,"x_max":0,"o":""},"Ƚ":{"ha":-26,"x_min":0,"x_max":0,"o":"m 109 0 l 686 0 l 686 109 l 231 109 l 231 463 l 661 463 l 661 340 l 231 340 z "},"Ľ":{"ha":0,"x_min":0,"x_max":0,"o":""},"Ḽ":{"ha":0,"x_min":0,"x_max":0,"o":""},"Ļ":{"ha":0,"x_min":0,"x_max":0,"o":""},"Ŀ":{"ha":0,"x_min":0,"x_max":0,"o":""},"Ḷ":{"ha":0,"x_min":0,"x_max":0,"o":""},"Ḹ":{"ha":0,"x_min":0,"x_max":0,"o":""},"ǈ":{"ha":0,"x_min":0,"x_max":0,"o":""},"Ḻ":{"ha":0,"x_min":0,"x_max":0,"o":""},"Ł":{"ha":-25,"x_min":0,"x_max":0,"o":"m 410 614 l 232 559 l 232 982 l 110 982 l 110 521 l 18 492 l 18 404 l 110 434 l 110 0 l 688 0 l 688 109 l 232 109 l 232 472 l 410 528 z "},"M":{"ha":417,"x_min":0,"x_max":0,"o":""},"Ḿ":{"ha":0,"x_min":0,"x_max":0,"o":""},"Ṁ":{"ha":0,"x_min":0,"x_max":0,"o":""},"Ṃ":{"ha":0,"x_min":0,"x_max":0,"o":""},"N":{"ha":230,"x_min":0,"x_max":0,"o":""},"Ǌ":{"ha":0,"x_min":0,"x_max":0,"o":""},"Ń":{"ha":0,"x_min":0,"x_max":0,"o":""},"Ň":{"ha":0,"x_min":0,"x_max":0,"o":""},"Ṋ":{"ha":0,"x_min":0,"x_max":0,"o":""},"Ņ":{"ha":0,"x_min":0,"x_max":0,"o":""},"Ṅ":{"ha":0,"x_min":0,"x_max":0,"o":""},"Ṇ":{"ha":0,"x_min":0,"x_max":0,"o":""},"Ɲ":{"ha":237,"x_min":0,"x_max":0,"o":"m 114 0 l 114 -76 b 9 -174 114 -152 71 -174 b -28 -171 -4 -174 -18 -172 l -28 -270 b 39 -277 -9 -277 16 -277 b 237 -77 146 -277 237 -206 l 237 0 l 239 0 l 239 765 l 248 765 l 780 0 l 897 0 l 897 982 l 776 982 l 776 216 l 766 216 l 235 982 l 117 982 l 117 0 z "},"ǋ":{"ha":0,"x_min":0,"x_max":0,"o":""},"Ṉ":{"ha":0,"x_min":0,"x_max":0,"o":""},"Ñ":{"ha":0,"x_min":0,"x_max":0,"o":""},"Ŋ":{"ha":230,"x_min":0,"x_max":0,"o":"m 770 0 l 770 -76 b 661 -175 770 -152 723 -175 b 623 -171 647 -175 633 -172 l 623 -270 b 689 -277 640 -277 665 -277 b 887 -77 798 -277 887 -206 l 887 0 l 888 0 l 888 982 l 768 982 l 768 216 l 758 216 l 227 982 l 109 982 l 109 0 l 231 0 l 231 765 l 240 765 l 772 0 z "},"O":{"ha":242,"x_min":0,"x_max":0,"o":""},"Ƣ":{"ha":385,"x_min":0,"x_max":0,"o":"m 812 130 l 812 812 l 907 846 l 907 -277 l 1043 -277 l 1043 982 l 939 982 l 761 910 b 492 996 694 963 597 996 b 71 536 228 996 71 823 l 71 448 b 481 -14 71 164 222 -14 b 812 130 627 -14 754 41 z m 209 448 l 209 536 b 491 883 209 762 305 883 b 680 814 571 883 642 857 l 680 167 b 490 98 637 121 566 98 b 209 448 302 98 209 228 z "},"Ó":{"ha":0,"x_min":0,"x_max":0,"o":""},"Ɵ":{"ha":0,"x_min":0,"x_max":0,"o":""},"Ŏ":{"ha":0,"x_min":0,"x_max":0,"o":""},"Ǒ":{"ha":0,"x_min":0,"x_max":0,"o":""},"Ô":{"ha":0,"x_min":0,"x_max":0,"o":""},"Ố":{"ha":0,"x_min":0,"x_max":0,"o":""},"Ộ":{"ha":0,"x_min":0,"x_max":0,"o":""},"Ồ":{"ha":0,"x_min":0,"x_max":0,"o":""},"Ổ":{"ha":0,"x_min":0,"x_max":0,"o":""},"Ỗ":{"ha":0,"x_min":0,"x_max":0,"o":""},"Ȍ":{"ha":0,"x_min":0,"x_max":0,"o":""},"Ö":{"ha":0,"x_min":0,"x_max":0,"o":""},"Ọ":{"ha":0,"x_min":0,"x_max":0,"o":""},"Ò":{"ha":0,"x_min":0,"x_max":0,"o":""},"Ỏ":{"ha":0,"x_min":0,"x_max":0,"o":""},"Ơ":{"ha":260,"x_min":0,"x_max":0,"o":""},"Ớ":{"ha":0,"x_min":0,"x_max":0,"o":""},"Ợ":{"ha":0,"x_min":0,"x_max":0,"o":""},"Ờ":{"ha":0,"x_min":0,"x_max":0,"o":""},"Ở":{"ha":0,"x_min":0,"x_max":0,"o":""},"Ỡ":{"ha":0,"x_min":0,"x_max":0,"o":""},"Ő":{"ha":0,"x_min":0,"x_max":0,"o":""},"Ȏ":{"ha":242,"x_min":0,"x_max":0,"o":""},"Ō":{"ha":0,"x_min":0,"x_max":0,"o":""},"Ṓ":{"ha":0,"x_min":0,"x_max":0,"o":""},"Ṑ":{"ha":0,"x_min":0,"x_max":0,"o":""},"Ǫ":{"ha":242,"x_min":0,"x_max":0,"o":"m 939 491 b 505 996 939 802 755 996 b 353 1036 212 996 373 806 b 304 894 353 972 304 947 b 505 1023 304 842 505 885 b 775 NaN 505 1205 775 NaN z m 657 NaN z "},"Ǭ":{"ha":242,"x_min":0,"x_max":0,"o":"m 939 491 b 505 996 939 802 755 996 b 353 1036 212 996 373 806 b 304 894 353 972 304 947 b 505 1023 304 842 505 885 b 775 NaN 505 1205 775 NaN z m 657 NaN "},"Ɔ":{"ha":196,"x_min":0,"x_max":0,"o":""},"Ø":{"ha":242,"x_min":0,"x_max":0,"o":"m -632 0 b -316 391 -632 254 -494 391 b -142 338 -252 391 -193 372 l -555 -271 b -632 0 -604 -207 -632 -115 z "},"Ǿ":{"ha":242,"x_min":0,"x_max":0,"o":"m -381 -814 b 349 -928 -381 -1181 210 -928 b 663 -804 486 -928 663 -863 b NaN -772 663 -823 629 -772 l NaN -1381 b NaN -1110 NaN -1317 NaN -1225 z "},"Õ":{"ha":0,"x_min":0,"x_max":0,"o":""},"Ṍ":{"ha":0,"x_min":0,"x_max":0,"o":""},"Ṏ":{"ha":242,"x_min":0,"x_max":0,"o":"m -132 712 l 807 1203 l 749 1218 b 694 1127 719 1218 694 1192 b NaN 1020 694 1084 635 1020 l NaN 1005 b NaN 1065 NaN 1038 NaN 1065 b NaN 1067 NaN 1065 NaN 1038 b NaN 951 NaN 1017 NaN 991 z m NaN 951 "},"Œ":{"ha":504,"x_min":0,"x_max":0,"o":"m 503 0 l 1194 0 l 1194 109 l 713 109 l 713 438 l 1156 438 l 1156 545 l 713 545 l 713 873 l 1187 873 l 1187 982 l 503 982 b 71 491 244 982 71 788 b 503 0 71 197 244 0 z m 189 491 b 503 873 189 723 316 873 l 591 873 l 591 109 l 503 109 b 189 491 316 109 189 260 z "},"P":{"ha":0,"x_min":0,"x_max":0,"o":""},"Ṕ":{"ha":0,"x_min":0,"x_max":0,"o":""},"Ṗ":{"ha":0,"x_min":0,"x_max":0,"o":""},"Ƥ":{"ha":281,"x_min":0,"x_max":0,"o":"m 170 718 l 170 755 b 256 873 168 817 179 873 l 256 935 l -617 935 l -617 537 l -684 537 "},"Þ":{"ha":0,"x_min":0,"x_max":0,"o":""},"Q":{"ha":242,"x_min":0,"x_max":0,"o":"m 464 308 l 609 118 b 505 100 576 106 541 100 b 248 -81 357 100 311 -7 l 143 55 b 385 460 143 397 326 460 b 422 NaN 397 460 422 514 l 507 NaN l 640 NaN l 513 NaN b 680 NaN 616 NaN 680 NaN z "},"Ɋ":{"ha":268,"x_min":0,"x_max":0,"o":"m 902 -77 l 902 982 l 788 982 l 788 830 l 777 830 b 486 996 728 935 620 996 b 71 495 239 996 71 787 b 486 -15 71 194 241 -15 b 777 156 617 -15 727 46 l 784 156 l 784 -77 b 978 -277 784 -206 869 -277 b 1046 -270 1002 -277 1028 -277 l 1046 -172 b 1008 -175 1036 -174 1023 -175 b 902 -77 948 -175 902 -153 z m 487 100 b 191 492 313 100 191 251 b 490 886 191 720 308 886 b 787 492 692 886 787 708 b 487 100 787 273 701 100 z "},"R":{"ha":0,"x_min":0,"x_max":0,"o":""},"Ŕ":{"ha":0,"x_min":0,"x_max":0,"o":""},"Ř":{"ha":0,"x_min":0,"x_max":0,"o":""},"Ŗ":{"ha":0,"x_min":0,"x_max":0,"o":""},"Ȑ":{"ha":0,"x_min":0,"x_max":0,"o":""},"Ṙ":{"ha":0,"x_min":0,"x_max":0,"o":""},"Ṛ":{"ha":0,"x_min":0,"x_max":0,"o":""},"Ṝ":{"ha":0,"x_min":0,"x_max":0,"o":""},"Ȓ":{"ha":0,"x_min":0,"x_max":0,"o":""},"Ṟ":{"ha":0,"x_min":0,"x_max":0,"o":""},"S":{"ha":77,"x_min":0,"x_max":0,"o":""},"Ś":{"ha":0,"x_min":0,"x_max":0,"o":""},"Ṥ":{"ha":0,"x_min":0,"x_max":0,"o":""},"Š":{"ha":0,"x_min":0,"x_max":0,"o":""},"Ṧ":{"ha":0,"x_min":0,"x_max":0,"o":""},"Ş":{"ha":0,"x_min":0,"x_max":0,"o":"l 77 644 l 87 495 l 198 391 l 379 374 l 364 300 l 382 NaN l 583 NaN l 695 NaN l 845 NaN l 872 NaN b 682 NaN 798 NaN 682 NaN b 898 NaN 682 NaN 768 NaN b 1115 NaN 1016 NaN 1104 NaN "},"Ŝ":{"ha":0,"x_min":0,"x_max":0,"o":""},"Ș":{"ha":0,"x_min":0,"x_max":0,"o":""},"Ṡ":{"ha":0,"x_min":0,"x_max":0,"o":""},"Ṣ":{"ha":0,"x_min":0,"x_max":0,"o":""},"Ṩ":{"ha":0,"x_min":0,"x_max":0,"o":""},"ẞ":{"ha":136,"x_min":0,"x_max":0,"o":"m 109 652 l 109 0 l 231 0 l 231 652 b 416 887 231 774 270 887 b 591 827 496 887 549 856 l 396 562 l 396 457 l 492 457 b 703 278 534 457 703 457 b 509 94 703 165 632 94 b 361 126 445 94 397 111 l 321 19 b 506 -14 385 -4 448 -14 b 837 277 700 -14 837 90 b 532 560 837 445 726 549 l 751 846 b 411 996 661 929 555 996 b 109 652 212 996 109 879 z "},"T":{"ha":82,"x_min":0,"x_max":0,"o":""},"Ŧ":{"ha":82,"x_min":0,"x_max":0,"o":"m 54 873 l 363 873 l 363 551 l -98 551 l -98 674 l 363 674 l 363 825 l 453 825 l 453 674 l 776 674 l 776 982 l 884 982 l 884 241 z "},"Ť":{"ha":0,"x_min":0,"x_max":0,"o":""},"Ṱ":{"ha":0,"x_min":0,"x_max":0,"o":""},"Ţ":{"ha":82,"x_min":0,"x_max":0,"o":"m 54 873 l 363 873 l 363 0 l 389 0 l 389 4 l 1263 4 l 1263 312 l 1371 312 l 1371 -429 z "},"Ṫ":{"ha":0,"x_min":0,"x_max":0,"o":""},"Ṭ":{"ha":0,"x_min":0,"x_max":0,"o":""},"Ƭ":{"ha":135,"x_min":0,"x_max":0,"o":"m 848 982 l 254 982 b 54 785 130 982 54 902 l 54 727 l 165 727 l 165 765 b 254 873 165 821 186 873 l 418 873 l 418 0 l 538 0 l 538 873 l 848 873 z "},"Ṯ":{"ha":0,"x_min":0,"x_max":0,"o":""},"Ƽ":{"ha":21,"x_min":0,"x_max":0,"o":"m 705 982 l 34 982 l 34 873 l 160 873 b -324 1213 104 873 -324 1069 b -273 1541 -324 1350 -134 1541 b -321 1405 -134 1541 -321 1472 b NaN 1339 -321 1382 -355 1339 l NaN 1339 l NaN 1626 l NaN 1626 z "},"Ƅ":{"ha":273,"x_min":0,"x_max":0,"o":"m 408 982 l 54 982 l 54 873 l 285 873 l 285 0 l 654 0 b 981 290 865 0 981 119 b 654 571 981 463 865 571 l 408 571 z m 408 106 l 408 464 l 654 464 b 860 293 787 464 860 385 b 654 106 860 198 787 106 z "},"Ƨ":{"ha":77,"x_min":0,"x_max":0,"o":"m 80 735 l 198 735 b 416 887 210 831 298 887 b 631 726 545 887 631 819 b 442 566 631 623 515 585 l 343 538 b 66 267 239 511 66 450 b 422 -18 66 107 195 -18 b 777 255 633 -18 765 92 l 651 255 b 422 94 642 145 538 94 b 184 270 288 94 184 163 b 380 431 184 365 277 401 l 499 464 b 750 720 654 509 750 587 b 414 996 750 886 602 996 b 80 735 221 996 85 884 z "},"Ʈ":{"ha":82,"x_min":0,"x_max":0,"o":"m 486 -77 l 486 0 l 487 0 l 487 873 l -387 873 l -387 872 l -465 872 b -258 674 -465 743 -366 674 l -191 674 l -191 783 l -228 783 b -342 873 -289 783 -342 798 z "},"U":{"ha":215,"x_min":0,"x_max":0,"o":""},"Ú":{"ha":0,"x_min":0,"x_max":0,"o":""},"Ŭ":{"ha":0,"x_min":0,"x_max":0,"o":""},"Ǔ":{"ha":0,"x_min":0,"x_max":0,"o":""},"Û":{"ha":0,"x_min":0,"x_max":0,"o":""},"Ṷ":{"ha":0,"x_min":0,"x_max":0,"o":""},"Ȕ":{"ha":0,"x_min":0,"x_max":0,"o":""},"Ü":{"ha":0,"x_min":0,"x_max":0,"o":""},"Ǘ":{"ha":0,"x_min":0,"x_max":0,"o":""},"Ṳ":{"ha":215,"x_min":0,"x_max":0,"o":"m 286 0 z "},"Ǚ":{"ha":0,"x_min":0,"x_max":0,"o":""},"Ǜ":{"ha":0,"x_min":0,"x_max":0,"o":""},"Ǖ":{"ha":0,"x_min":0,"x_max":0,"o":""},"Ụ":{"ha":0,"x_min":0,"x_max":0,"o":""},"Ù":{"ha":0,"x_min":0,"x_max":0,"o":""},"Ủ":{"ha":0,"x_min":0,"x_max":0,"o":""},"Ư":{"ha":380,"x_min":0,"x_max":0,"o":""},"Ứ":{"ha":380,"x_min":0,"x_max":0,"o":"m -654 42 l -553 42 l -403 264 l -537 264 z "},"Ự":{"ha":0,"x_min":0,"x_max":0,"o":""},"Ừ":{"ha":380,"x_min":0,"x_max":0,"o":"m -651 42 l -549 42 l -665 264 l -800 264 z "},"Ử":{"ha":380,"x_min":0,"x_max":0,"o":"m -552 42 l -552 90 b -452 189 -502 98 -452 123 b -656 315 -452 264 -522 315 l -661 241 b -556 193 -602 241 -556 227 b -648 144 -556 161 -582 148 l -648 42 z "},"Ữ":{"ha":380,"x_min":0,"x_max":0,"o":"m -840 34 b -666 -27 -768 34 -754 -27 b -518 137 -583 -27 -518 35 l -606 144 b -671 72 -606 103 -635 72 b -846 133 -739 72 -772 133 b -993 -35 -928 133 -993 64 z "},"Ű":{"ha":0,"x_min":0,"x_max":0,"o":""},"Ȗ":{"ha":0,"x_min":0,"x_max":0,"o":""},"Ū":{"ha":0,"x_min":0,"x_max":0,"o":""},"Ṻ":{"ha":0,"x_min":0,"x_max":0,"o":""},"Ų":{"ha":215,"x_min":0,"x_max":0,"o":"m 751 982 b 1080 635 751 796 878 656 b 1001 491 1023 590 1001 540 b 1139 365 1002 408 1061 365 b 1241 393 1185 365 1221 380 l 1233 477 b 1169 461 1219 471 1196 461 b 1119 507 1130 461 1119 479 b 1211 637 1119 558 1161 600 b 1516 982 1398 667 1516 803 l 1516 1632 z "},"Ʊ":{"ha":243,"x_min":0,"x_max":0,"o":"m 71 464 b 506 -14 71 184 251 -14 b 940 464 758 -14 940 184 b 735 867 940 648 861 787 l 735 873 l 940 873 l 940 982 l 589 982 l 589 845 b 821 464 715 791 821 647 b 506 100 821 260 689 100 b 189 464 320 100 189 260 b 420 845 189 647 296 791 l 420 982 l 71 982 l 71 873 l 274 873 l 274 867 b 71 464 149 784 71 648 z "},"Ů":{"ha":0,"x_min":0,"x_max":0,"o":""},"Ũ":{"ha":0,"x_min":0,"x_max":0,"o":""},"Ṹ":{"ha":0,"x_min":0,"x_max":0,"o":""},"Ṵ":{"ha":0,"x_min":0,"x_max":0,"o":""},"V":{"ha":130,"x_min":0,"x_max":0,"o":""},"Ɣ":{"ha":67,"x_min":0,"x_max":0,"o":"m 3 982 l 355 175 b 237 -129 281 6 237 -66 b 418 -292 237 -235 305 -292 b 598 -129 530 -292 598 -233 b 480 171 598 -71 551 7 l 831 982 l 700 982 l 416 320 l 136 982 z m 361 -129 b 419 28 361 -96 383 -51 b 475 -129 455 -54 475 -96 b 418 -182 475 -159 452 -182 b 361 -129 384 -182 361 -160 z "},"Ʋ":{"ha":67,"x_min":0,"x_max":0,"o":"m 416 -14 b 769 312 605 -14 769 95 l 769 764 b 559 996 769 913 677 996 b 476 985 528 996 496 990 l 476 876 b 521 879 488 879 510 879 b 627 764 589 879 627 850 l 627 312 b 416 98 627 165 545 98 b 205 312 289 98 205 165 l 205 982 l 66 982 l 66 312 b 416 -14 66 95 218 -14 z "},"Ṿ":{"ha":0,"x_min":0,"x_max":0,"o":""},"Ṽ":{"ha":0,"x_min":0,"x_max":0,"o":""},"W":{"ha":504,"x_min":0,"x_max":0,"o":""},"Ẃ":{"ha":0,"x_min":0,"x_max":0,"o":""},"Ŵ":{"ha":0,"x_min":0,"x_max":0,"o":""},"Ẅ":{"ha":0,"x_min":0,"x_max":0,"o":""},"Ẇ":{"ha":0,"x_min":0,"x_max":0,"o":""},"Ẉ":{"ha":0,"x_min":0,"x_max":0,"o":""},"Ẁ":{"ha":0,"x_min":0,"x_max":0,"o":""},"X":{"ha":83,"x_min":0,"x_max":0,"o":""},"Ẍ":{"ha":0,"x_min":0,"x_max":0,"o":""},"Ẋ":{"ha":0,"x_min":0,"x_max":0,"o":""},"Y":{"ha":113,"x_min":0,"x_max":0,"o":""},"Ʀ":{"ha":189,"x_min":0,"x_max":0,"o":"m 62 1050 l 62 0 l 203 0 l 203 408 l 401 408 l 745 -237 l 894 -237 l 894 -231 l 536 433 b 723 693 653 478 723 571 b 385 983 723 882 604 983 l 203 983 l 203 1050 z m 203 519 l 203 869 l 385 869 b 585 693 526 869 585 799 b 385 519 585 595 518 519 z "},"Ý":{"ha":0,"x_min":0,"x_max":0,"o":""},"Ŷ":{"ha":0,"x_min":0,"x_max":0,"o":""},"Ÿ":{"ha":0,"x_min":0,"x_max":0,"o":""},"Ẏ":{"ha":0,"x_min":0,"x_max":0,"o":""},"Ỵ":{"ha":0,"x_min":0,"x_max":0,"o":""},"Ỳ":{"ha":0,"x_min":0,"x_max":0,"o":""},"Ƴ":{"ha":170,"x_min":0,"x_max":0,"o":"m 26 982 l 381 404 l 381 0 l 505 0 l 505 404 l 766 831 b 890 876 800 888 844 895 l 921 974 b 663 883 826 1019 726 991 l 450 526 l 437 526 l 165 982 z "},"Ỷ":{"ha":0,"x_min":0,"x_max":0,"o":""},"Ỹ":{"ha":0,"x_min":0,"x_max":0,"o":""},"Z":{"ha":59,"x_min":0,"x_max":0,"o":""},"Ź":{"ha":0,"x_min":0,"x_max":0,"o":""},"Ƶ":{"ha":59,"x_min":0,"x_max":0,"o":"m 76 0 l 755 0 l 755 109 l 222 109 l 461 463 l 636 463 l 636 552 l 521 552 l 750 894 l 534 572 l 358 572 l 358 483 l 475 483 l 222 109 z "},"Ž":{"ha":59,"x_min":0,"x_max":0,"o":"m 236 1190 l 126 1190 l 126 1181 l 283 982 l 389 982 l 547 1181 l 547 1190 l 435 1190 l 336 1057 z "},"Ẑ":{"ha":0,"x_min":0,"x_max":0,"o":""},"Ż":{"ha":0,"x_min":0,"x_max":0,"o":""},"Ẓ":{"ha":0,"x_min":0,"x_max":0,"o":""},"Ẕ":{"ha":0,"x_min":0,"x_max":0,"o":""},"Ɯ":{"ha":435,"x_min":0,"x_max":0,"o":"m 99 292 b 332 -14 99 64 191 -14 b 563 115 446 -14 519 35 b 768 -14 600 21 673 -14 b 972 79 862 -14 929 20 l 977 0 l 1103 0 l 1103 982 l 970 982 l 970 236 b 791 98 949 154 895 98 b 667 292 730 98 667 136 l 667 982 l 534 982 l 534 292 b 537 239 534 273 535 256 b 355 98 515 155 460 98 b 235 292 294 98 235 136 l 235 982 l 99 982 z "},"Ƕ":{"ha":718,"x_min":0,"x_max":0,"o":"m 1074 -14 b 1393 312 1261 -14 1393 95 l 1393 735 l 1270 735 l 1270 312 b 1074 99 1270 165 1200 99 b 873 312 947 99 873 165 l 873 982 l 750 982 l 750 0 l 872 0 l 872 438 l 1392 438 l 1392 312 b 1716 -14 1392 99 1523 -14 z "},"Ƿ":{"ha":67,"x_min":0,"x_max":0,"o":"m 205 982 l 64 982 l 64 -277 l 205 -277 l 205 -107 b 769 548 529 -36 769 229 l 769 582 b 381 996 769 863 614 996 b 205 958 308 996 252 982 z m 205 8 l 205 804 b 382 883 239 854 293 883 b 631 585 544 883 631 792 l 631 548 b 205 8 631 332 497 87 z "},"Ǹ":{"ha":0,"x_min":0,"x_max":0,"o":""},"Ț":{"ha":0,"x_min":0,"x_max":0,"o":""},"Ȟ":{"ha":0,"x_min":0,"x_max":0,"o":""},"Ƞ":{"ha":64,"x_min":0,"x_max":0,"o":"m 765 -274 l 765 673 b 418 996 765 888 600 996 b 202 943 334 996 259 973 l 202 982 l 68 982 l 68 0 l 202 0 l 202 834 b 404 884 258 865 327 884 b 631 673 549 884 631 821 l 631 -274 z "},"Ȣ":{"ha":64,"x_min":0,"x_max":0,"o":"m 408 476 l 423 476 b 648 289 560 476 648 416 b 423 102 648 157 560 102 l 408 102 b 182 286 271 102 182 157 b 408 476 182 416 271 476 z m 429 593 l 401 593 b 182 745 283 593 182 612 b 305 890 182 827 224 869 l 305 996 b 43 745 160 987 43 909 b 178 528 43 632 97 565 b 43 286 95 479 43 398 b 408 -14 43 85 202 -14 l 423 -14 b 788 289 629 -14 788 85 b 655 528 788 399 736 479 b 788 745 735 565 788 632 b 526 996 788 909 673 987 l 526 890 b 650 745 608 869 650 827 b 429 593 650 612 549 593 z "},"Ȥ":{"ha":59,"x_min":0,"x_max":0,"o":"m 71 873 l 604 873 l 76 88 l 76 0 l 566 0 b 654 -110 633 0 654 -54 l 654 -146 l 764 -146 l 764 -88 b 566 109 764 28 688 109 l 221 109 l 750 894 l 750 982 l 71 982 z "},"Ȧ":{"ha":0,"x_min":0,"x_max":0,"o":""},"Ȩ":{"ha":21,"x_min":0,"x_max":0,"o":"m 109 0 z "},"Ȫ":{"ha":0,"x_min":0,"x_max":0,"o":""},"Ȭ":{"ha":242,"x_min":0,"x_max":0,"o":"m -132 712 l 807 1203 l 749 1218 b 692 1133 716 1218 692 1195 b NaN 1023 692 1086 632 1023 l NaN 1008 z m NaN 1191 l NaN 1191 l NaN 1214 l NaN 1214 l NaN 762 l NaN 762 l NaN 1214 z "},"Ȯ":{"ha":242,"x_min":0,"x_max":0,"o":"m -316 613 b 1114 696 623 613 1114 658 b 1119 773 1114 730 1157 773 b 1108 692 1153 773 1108 728 b 1101 614 1108 658 1065 614 b 1112 NaN 1067 614 1112 NaN z "},"Ȱ":{"ha":242,"x_min":0,"x_max":0,"o":"m -316 613 b 1114 694 623 613 1114 658 b 1120 770 1114 728 1157 770 b 1112 689 1157 770 1112 726 b 1107 609 1112 652 1070 609 b 1118 NaN 1073 609 1118 NaN "},"Ȳ":{"ha":0,"x_min":0,"x_max":0,"o":""},"Ⱥ":{"ha":130,"x_min":0,"x_max":0,"o":"m 746 1107 l 636 1107 l 553 872 l 513 982 l 384 982 l 24 0 l 152 0 l 251 277 l 343 277 l 201 -125 l 311 -125 l 453 277 l 646 277 l 743 0 l 872 0 l 609 719 z m 288 384 l 444 823 l 452 823 l 494 704 l 381 384 z m 491 384 l 549 549 l 608 384 z "},"Ȼ":{"ha":196,"x_min":0,"x_max":0,"o":"m 213 -125 l 323 -125 l 370 7 b 505 -14 412 -7 456 -14 b 408 1 471 -14 438 -9 l 663 726 b 779 559 720 690 763 634 l 901 559 b 703 836 878 688 804 783 l 758 993 l 650 993 l 606 871 b 505 882 574 878 540 882 b 298 854 300 882 378 728 z m 211 1293 b 527 1684 211 1547 349 1684 b 591 1678 549 1684 570 1682 l 338 968 b 211 1293 260 1031 211 1141 z "},"Ⱦ":{"ha":82,"x_min":0,"x_max":0,"o":"m 164 -125 l 274 -125 l 363 129 l 363 0 l 487 0 l 487 477 l 627 873 l 795 873 l 795 982 l 666 982 l 709 1107 l 600 1107 l 556 982 l 54 982 l 54 873 l 363 873 l 363 439 z m 487 788 l 487 873 l 517 873 z "},"Ɂ":{"ha":-58,"x_min":0,"x_max":0,"o":"m 338 301 l 274 301 l 274 0 l 415 0 l 415 191 b 663 540 581 226 663 374 l 663 639 b 338 996 663 829 556 996 b 47 726 167 996 53 880 l 179 726 b 338 879 184 818 243 879 b 524 639 484 879 524 755 l 524 540 b 338 301 524 420 487 301 z "},"Ƀ":{"ha":169,"x_min":0,"x_max":0,"o":"m 183 0 l -477 0 l -477 -152 l -567 -152 l -567 0 z m -212 -123 "},"Ʉ":{"ha":214,"x_min":0,"x_max":0,"o":"m 996 570 l 875 570 l 875 982 l 753 982 l 753 570 l 232 570 l 232 982 l 110 982 l 110 570 l -15 570 l -15 490 l 110 490 l 110 332 l 110 490 l 231 490 z m -533 342 z "},"Ʌ":{"ha":189,"x_min":0,"x_max":0,"o":"m 742 0 l 897 0 l 538 982 l 416 982 l 62 0 l 214 0 l 477 798 z "},"Ɇ":{"ha":21,"x_min":0,"x_max":0,"o":"m 666 1107 l 557 1107 l 522 982 l 109 982 l 109 0 l 239 0 l 202 -125 l 312 -125 l 349 0 l 711 0 l 711 109 l 380 109 l 475 438 l 673 438 l 673 545 l 505 545 l 600 873 l 704 873 l 704 982 l 631 982 z m 231 109 l 231 438 l 365 438 l 270 109 z m 231 545 l 231 873 l 491 873 l 396 545 z "},"Ɉ":{"ha":-51,"x_min":0,"x_max":0,"o":"m 484 982 l 484 629 l 225 629 l 225 888 l 376 888 l 376 978 l 225 978 l 225 1331 z "},"Ɍ":{"ha":0,"x_min":0,"x_max":0,"o":"l 90 0 l 90 119 l -399 119 l -399 5 l -509 5 l -509 119 "},"Ɏ":{"ha":116,"x_min":0,"x_max":0,"o":"m 890 781 l 734 781 l 857 982 l 716 982 l 598 781 l 283 781 l 164 982 l 24 982 l 148 781 l -7 781 l -7 701 l 197 701 l 378 403 l 378 0 l 502 0 l 502 403 l 685 701 l 890 701 z m 331 701 l 551 701 l 446 526 l 434 526 z "},"Ỻ":{"ha":238,"x_min":0,"x_max":0,"o":"m 109 0 l 951 0 l 951 -873 l 808 -873 l 808 0 l 686 0 z "},"Ỽ":{"ha":-55,"x_min":0,"x_max":0,"o":"m 391 644 l 353 536 b 529 286 446 510 529 434 b 359 96 529 165 468 96 b 184 355 271 96 184 186 l 184 441 b 484 850 184 662 270 807 l 464 962 b 49 396 127 902 49 673 l 49 359 b 361 -14 49 180 149 -14 b 663 297 560 -14 663 107 b 391 644 663 471 552 604 z "},"Ỿ":{"ha":191,"x_min":0,"x_max":0,"o":"m 254 982 l 99 982 l 403 408 b 286 439 370 428 331 439 b 61 213 161 439 61 336 b 286 -14 61 87 161 -14 b 499 136 384 -14 467 48 l 909 982 l 755 982 l 515 458 z m 286 107 b 184 213 229 107 184 144 b 286 320 184 283 229 320 b 387 213 342 320 387 283 b 286 107 387 144 342 107 z "},"Ɀ":{"ha":59,"x_min":0,"x_max":0,"o":"m 656 -288 b 768 -270 701 -288 745 -279 l 768 -163 b 678 -175 742 -168 715 -175 b 218 102 538 -175 461 57 l 750 895 l 750 982 l 71 982 l 71 873 l 604 873 l 76 87 l 76 0 l 127 0 b 656 -288 372 0 456 -288 z "},"Ａ":{"ha":535,"x_min":0,"x_max":0,"o":"m 355 0 "},"Ｂ":{"ha":535,"x_min":0,"x_max":0,"o":"m 330 0 "},"Ｃ":{"ha":535,"x_min":0,"x_max":0,"o":"m 948 673 l 1070 673 b 674 996 1034 876 872 996 b 674 1356 422 996 674 1195 b NaN 1512 674 1477 875 1512 z "},"Ｄ":{"ha":535,"x_min":0,"x_max":0,"o":"m 589 0 l 271 0 l 271 -982 z m 393 -873 "},"Ｅ":{"ha":535,"x_min":0,"x_max":0,"o":"m 366 0 l 968 0 l 968 109 l 488 109 l 488 438 l 930 438 l 930 545 l 488 545 l 488 873 l 962 873 l 962 982 l 366 982 z "},"Ｆ":{"ha":535,"x_min":0,"x_max":0,"o":"m 374 0 l 496 0 l 496 438 z "},"Ｇ":{"ha":535,"x_min":0,"x_max":0,"o":"m 937 675 "},"Ｈ":{"ha":535,"x_min":0,"x_max":0,"o":"m 271 0 z "},"Ｉ":{"ha":535,"x_min":0,"x_max":0,"o":""},"Ｊ":{"ha":535,"x_min":0,"x_max":0,"o":"m 779 982 "},"Ｋ":{"ha":535,"x_min":0,"x_max":0,"o":"m 330 0 l 452 0 l 452 316 l 574 454 l 911 0 l 1061 0 l 650 538 l 1061 982 l 901 982 l 464 496 l 452 496 l 452 982 l 330 982 z "},"Ｌ":{"ha":535,"x_min":0,"x_max":0,"o":"m 391 0 l 968 0 z "},"Ｍ":{"ha":535,"x_min":0,"x_max":0,"o":"m 170 982 l 170 0 l 285 0 l 285 742 l 293 742 l 598 0 l 707 0 l 1012 742 l 1021 742 l 1021 0 l 1137 0 l 1137 982 l 990 982 l 659 174 l 647 174 l 316 982 z "},"Ｎ":{"ha":535,"x_min":0,"x_max":0,"o":"m 1042 982 l 921 982 l 921 216 l 911 216 l 1028 216 z "},"Ｏ":{"ha":535,"x_min":0,"x_max":0,"o":""},"Ｐ":{"ha":535,"x_min":0,"x_max":0,"o":"m 340 0 z "},"Ｑ":{"ha":535,"x_min":0,"x_max":0,"o":"m 610 308 l 755 118 b 651 100 723 106 688 100 b 394 -81 504 100 458 -7 l 290 55 b 532 460 290 397 473 460 b 568 NaN 544 460 568 514 l 654 NaN l 787 NaN l 659 NaN b 826 NaN 762 NaN 826 NaN z "},"Ｒ":{"ha":0,"x_min":0,"x_max":0,"o":""},"Ｓ":{"ha":535,"x_min":0,"x_max":0,"o":"m 875 735 l 994 735 b 662 996 989 884 852 996 b 324 720 472 996 324 886 b 190 734 324 841 292 734 b -15 515 121 734 -15 617 b NaN 556 -15 567 95 556 l NaN 556 b NaN 283 NaN 393 NaN 283 b NaN 568 NaN 283 NaN 408 z "},"Ｔ":{"ha":535,"x_min":0,"x_max":0,"o":"m 282 873 l 591 873 l 591 0 l 715 0 l 715 873 l 1023 873 l 1023 982 l 282 982 z "},"Ｕ":{"ha":535,"x_min":0,"x_max":0,"o":"m 913 982 l 913 1632 z "},"Ｖ":{"ha":0,"x_min":0,"x_max":0,"o":""},"Ｗ":{"ha":535,"x_min":0,"x_max":0,"o":"m 307 0 "},"Ｘ":{"ha":535,"x_min":0,"x_max":0,"o":"m 397 982 z "},"Ｙ":{"ha":535,"x_min":0,"x_max":0,"o":"m 236 982 l 590 403 z "},"Ｚ":{"ha":535,"x_min":0,"x_max":0,"o":"m 315 0 l 994 0 l 994 109 l 461 109 l 989 894 l 461 109 z "},"ɢ":{"ha":67,"x_min":0,"x_max":0,"o":"m 736 103 l 736 365 l 435 365 l 435 259 l 620 259 l 620 149 b 427 94 598 132 532 94 b 205 305 298 94 205 184 l 205 412 b 425 621 205 530 302 621 b 612 486 532 621 601 575 l 734 486 b 425 727 720 624 625 727 b 378 708 425 529 282 708 b 495 NaN 452 708 495 742 z "},"ʛ":{"ha":90,"x_min":0,"x_max":0,"o":"m 735 486 l 735 564 b 834 667 735 640 774 667 b 872 663 845 667 860 666 l 872 754 b 806 764 853 760 826 764 b 655 654 725 764 675 725 b 423 727 604 699 528 727 b 380 707 423 529 282 707 b 496 NaN 453 707 496 739 l 496 NaN l 195 NaN l 195 NaN l 381 NaN l 381 NaN b 189 NaN 359 NaN 292 NaN b -35 NaN 60 NaN -35 NaN l -35 NaN b 184 NaN -35 NaN 64 NaN b 372 NaN 293 NaN 361 NaN z "},"ɪ":{"ha":-302,"x_min":0,"x_max":0,"o":"m 399 713 l 68 713 l 68 606 l 164 606 l 164 107 l 68 107 l 68 0 l 399 0 l 399 107 l 300 107 l 300 606 l 399 606 z "},"ʟ":{"ha":-180,"x_min":0,"x_max":0,"o":"m 534 106 l 190 106 l 190 713 l 54 713 l 54 0 l 534 0 z "},"ɴ":{"ha":7,"x_min":0,"x_max":0,"o":"m 681 736 l 564 736 l 564 214 l 555 214 l 205 736 l 94 736 l 94 0 l 210 0 l 210 519 l 220 519 l 567 0 l 681 0 z "},"ɶ":{"ha":0,"x_min":0,"x_max":0,"o":"m 1101 106 l 715 106 l 715 308 l 1043 308 l 1043 415 l 715 415 l 715 608 l 1101 608 l 1101 713 l 671 713 b 426 727 571 713 505 727 b 100 365 225 727 100 570 l 100 349 b 427 -14 100 144 225 -14 b 671 0 505 -14 571 0 l 1101 0 z m 236 349 l 236 365 b 426 620 236 499 298 620 b 579 612 483 620 527 614 l 579 103 b 427 94 527 99 483 94 b 236 349 298 94 236 212 z "},"ʀ":{"ha":66,"x_min":0,"x_max":0,"o":"m 411 713 l 106 713 l 106 0 l 241 0 l 241 275 l 415 275 l 582 0 l 726 0 l 548 297 b 686 494 637 330 686 404 b 411 713 686 621 586 713 z m 241 381 l 241 608 l 411 608 b 552 494 510 608 552 549 b 425 381 552 438 513 381 z "},"ʁ":{"ha":66,"x_min":0,"x_max":0,"o":"m 411 0 b 686 220 586 0 686 94 b 548 418 686 311 637 383 l 726 713 l 582 713 l 415 438 l 241 438 l 241 713 l 106 713 l 106 0 z m 241 106 l 241 332 l 425 332 b 552 221 513 332 552 275 b 411 106 552 165 510 106 z "},"ʏ":{"ha":-58,"x_min":0,"x_max":0,"o":"m 159 713 l 8 713 l 286 243 l 286 0 l 419 0 l 419 236 l 701 713 l 551 713 l 355 358 z "},"a":{"ha":0,"x_min":0,"x_max":0,"o":""},"á":{"ha":0,"x_min":0,"x_max":0,"o":""},"ă":{"ha":0,"x_min":0,"x_max":0,"o":""},"ắ":{"ha":0,"x_min":0,"x_max":0,"o":""},"ặ":{"ha":0,"x_min":0,"x_max":0,"o":""},"ằ":{"ha":0,"x_min":0,"x_max":0,"o":""},"ẳ":{"ha":0,"x_min":0,"x_max":0,"o":""},"ẵ":{"ha":0,"x_min":0,"x_max":0,"o":""},"ǎ":{"ha":0,"x_min":0,"x_max":0,"o":""},"â":{"ha":-24,"x_min":0,"x_max":0,"o":"m -326 -749 l 159 -749 l 159 76 l 58 76 l 58 191 l 544 191 "},"ấ":{"ha":0,"x_min":0,"x_max":0,"o":""},"ậ":{"ha":-24,"x_min":0,"x_max":0,"o":"m 0 -1202 "},"ầ":{"ha":0,"x_min":0,"x_max":0,"o":""},"ẩ":{"ha":0,"x_min":0,"x_max":0,"o":""},"ẫ":{"ha":0,"x_min":0,"x_max":0,"o":""},"ȁ":{"ha":0,"x_min":0,"x_max":0,"o":""},"ä":{"ha":0,"x_min":0,"x_max":0,"o":""},"ǟ":{"ha":0,"x_min":0,"x_max":0,"o":""},"ạ":{"ha":0,"x_min":0,"x_max":0,"o":""},"ǡ":{"ha":0,"x_min":0,"x_max":0,"o":""},"à":{"ha":0,"x_min":0,"x_max":0,"o":"l -24 0 l -24 336 l 813 336 l 813 201 "},"ả":{"ha":0,"x_min":0,"x_max":0,"o":""},"ȃ":{"ha":0,"x_min":0,"x_max":0,"o":""},"ā":{"ha":0,"x_min":0,"x_max":0,"o":""},"ą":{"ha":0,"x_min":0,"x_max":0,"o":""},"ẚ":{"ha":0,"x_min":0,"x_max":0,"o":""},"å":{"ha":0,"x_min":0,"x_max":0,"o":""},"ǻ":{"ha":0,"x_min":0,"x_max":0,"o":""},"ḁ":{"ha":0,"x_min":0,"x_max":0,"o":""},"ɑ":{"ha":0,"x_min":0,"x_max":0,"o":""},"ɒ":{"ha":66,"x_min":0,"x_max":0,"o":"m 762 370 l 762 401 b 484 746 762 602 661 746 b 279 643 391 746 325 709 b 156 746 260 715 217 746 b 72 723 126 746 99 742 l 87 625 b 106 627 91 625 99 627 b 156 533 133 627 156 612 l 156 0 l 270 0 l 282 87 b 483 -14 327 22 392 -14 b 762 370 663 -14 762 145 z m 627 401 l 627 370 b 448 94 627 221 578 94 b 292 206 371 94 323 140 l 292 526 b 449 639 322 592 369 639 b 627 401 578 639 627 532 z "},"ã":{"ha":0,"x_min":0,"x_max":0,"o":""},"ɐ":{"ha":-24,"x_min":0,"x_max":0,"o":"m 94 251 b 370 -9 94 19 274 -9 b 663 191 533 -9 648 73 l 541 191 b 376 92 525 136 469 92 b 209 240 264 92 209 146 l 209 300 b 408 311 242 301 361 307 b 685 528 536 320 685 358 b 434 754 685 671 574 754 b 214 636 307 754 239 686 l 209 636 l 209 736 l 94 736 z m 209 396 l 209 469 b 414 650 209 562 282 650 b 568 533 503 650 568 610 b 395 408 568 453 500 415 z "},"æ":{"ha":0,"x_min":0,"x_max":0,"o":""},"ǽ":{"ha":0,"x_min":0,"x_max":0,"o":""},"ǣ":{"ha":0,"x_min":0,"x_max":0,"o":""},"b":{"ha":54,"x_min":0,"x_max":0,"o":""},"ɤ":{"ha":188,"x_min":0,"x_max":0,"o":"m 64 647 l 146 562 b 225 616 170 593 195 616 b 380 453 288 616 315 570 l 403 414 l 395 400 b 297 137 357 331 297 222 b 476 -14 297 46 365 -14 b 656 137 591 -14 656 46 b 559 401 656 222 598 331 l 553 414 b 730 616 645 574 672 616 b 808 562 758 616 785 593 l 892 647 b 709 746 846 699 788 746 b 477 548 612 746 547 667 b 247 746 408 667 345 746 b 64 647 170 746 109 699 z m 431 142 b 476 274 431 173 448 218 b 522 142 509 209 522 170 b 476 96 522 119 511 96 b 431 142 442 96 431 119 z "},"ƀ":{"ha":54,"x_min":0,"x_max":0,"o":"m 109 0 l 289 0 l 289 156 l 378 156 l 378 0 l 471 0 l 471 -117 l 378 -117 l 378 -269 l 289 -269 l 289 -117 "},"ḃ":{"ha":0,"x_min":0,"x_max":0,"o":""},"ḅ":{"ha":0,"x_min":0,"x_max":0,"o":""},"ɓ":{"ha":54,"x_min":0,"x_max":0,"o":"m 449 -15 l 627 -15 b 723 -31 703 -15 749 -31 b NaN NaN 723 -31 699 NaN b NaN NaN NaN NaN NaN NaN l NaN NaN l NaN NaN l NaN NaN l NaN NaN b NaN NaN NaN NaN NaN NaN z m NaN NaN b NaN NaN NaN NaN NaN NaN b NaN NaN NaN NaN NaN NaN b NaN NaN NaN NaN NaN NaN z "},"ḇ":{"ha":0,"x_min":0,"x_max":0,"o":""},"ƃ":{"ha":54,"x_min":0,"x_max":0,"o":"m 662 982 l 109 982 l 109 0 l 363 0 l 363 437 "},"ʘ":{"ha":242,"x_min":0,"x_max":0,"o":""},"c":{"ha":-32,"x_min":0,"x_max":0,"o":""},"ć":{"ha":0,"x_min":0,"x_max":0,"o":""},"č":{"ha":0,"x_min":0,"x_max":0,"o":""},"ç":{"ha":0,"x_min":0,"x_max":0,"o":""},"ḉ":{"ha":0,"x_min":0,"x_max":0,"o":""},"ĉ":{"ha":0,"x_min":0,"x_max":0,"o":""},"ɕ":{"ha":-35,"x_min":0,"x_max":0,"o":"m 391 -15 b 665 201 544 -15 665 68 b 473 365 665 297 602 365 b 189 252 365 365 268 315 b 172 369 178 287 172 326 b 391 643 172 534 259 643 b 566 514 490 643 548 582 l 681 514 b 388 746 663 654 545 746 b 54 369 189 746 54 589 b 96 170 54 294 68 226 b -20 43 45 119 7 72 l 61 -27 b 161 76 81 -5 117 33 b 391 -15 218 18 296 -15 z m 244 151 b 472 263 317 212 401 263 b 547 197 503 263 547 244 b 391 88 547 134 479 88 b 244 151 331 88 281 111 z "},"ċ":{"ha":0,"x_min":0,"x_max":0,"o":""},"ƈ":{"ha":39,"x_min":0,"x_max":0,"o":"m 568 514 l 685 514 l 684 524 l 684 610 b 791 709 684 686 730 709 b 827 705 804 709 818 708 l 827 804 b 762 810 811 810 784 810 b 582 690 679 810 609 767 b 392 746 531 726 466 746 b 58 365 191 746 58 589 b 395 -15 58 144 186 -15 b 685 217 559 -15 666 85 z "},"ʗ":{"ha":-58,"x_min":0,"x_max":0,"o":"m 372 -184 b 186 65 224 -184 186 -56 l 186 389 b 372 639 186 510 225 639 b 532 487 467 639 526 568 l 659 487 b 798 492 803 487 798 377 b NaN NaN 798 326 608 NaN l NaN NaN b NaN NaN NaN NaN NaN NaN b NaN NaN NaN NaN NaN NaN l NaN NaN b NaN NaN NaN NaN NaN NaN z "},"d":{"ha":54,"x_min":0,"x_max":0,"o":""},"ď":{"ha":0,"x_min":0,"x_max":0,"o":""},"ḑ":{"ha":0,"x_min":0,"x_max":0,"o":""},"ḓ":{"ha":0,"x_min":0,"x_max":0,"o":""},"đ":{"ha":54,"x_min":0,"x_max":0,"o":""},"ḋ":{"ha":0,"x_min":0,"x_max":0,"o":""},"ḍ":{"ha":0,"x_min":0,"x_max":0,"o":""},"ƍ":{"ha":-56,"x_min":0,"x_max":0,"o":"m 585 -247 l 585 -168 b 358 47 522 -96 434 -22 b 381 50 368 47 368 47 b 677 363 567 73 677 205 l 677 377 l 663 377 b 905 -7 663 228 764 115 b 1032 -129 947 -42 1017 -109 l 742 -129 l 742 -232 z m 1171 391 l 1171 377 b 972 146 1171 255 1109 146 b 916 155 949 146 932 148 b 796 377 854 194 796 274 l 796 391 b 983 654 796 541 853 654 b 1171 391 1115 654 1171 541 z "},"ɗ":{"ha":0,"x_min":0,"x_max":0,"o":"l 47 0 l 47 372 l 847 372 b 957 464 847 448 896 464 b 994 461 966 464 984 464 l 994 562 b 927 568 976 567 949 568 b 729 372 817 568 729 500 l 729 191 l 721 191 "},"ḏ":{"ha":0,"x_min":0,"x_max":0,"o":""},"ɖ":{"ha":37,"x_min":0,"x_max":0,"o":"m 788 -277 b 825 -288 812 -277 838 -288 b NaN NaN 823 -288 810 NaN b NaN NaN NaN NaN NaN NaN l NaN NaN l NaN NaN l NaN NaN l NaN NaN l NaN NaN l NaN NaN l NaN NaN l NaN NaN b NaN NaN NaN NaN NaN NaN "},"ƌ":{"ha":54,"x_min":0,"x_max":0,"o":"m 157 982 l 157 875 l 594 875 l 594 620 l 586 620 l 598 620 l 598 507 l 712 507 l 712 1489 z m 598 876 b 388 597 598 711 522 597 z "},"ʤ":{"ha":505,"x_min":0,"x_max":0,"o":"m 711 0 l 711 629 l 1053 629 l 804 289 l 804 184 l 899 184 b 1119 -7 1043 184 1119 90 b 916 -197 1119 -109 1040 -197 b 715 -61 807 -197 728 -136 l 601 -61 b 916 -292 627 -231 764 -292 b 1233 -5 1105 -292 1233 -182 b 939 285 1233 155 1131 273 l 1211 654 l 1210 736 l 711 736 l 711 982 l 594 982 l 594 621 l 586 621 b 373 746 562 661 515 746 b 58 366 189 746 58 600 b 372 -15 58 132 189 -15 b 586 113 511 -15 562 71 l 598 113 l 598 0 z m 175 369 b 388 642 175 522 245 642 b 597 369 526 642 597 532 b 388 90 597 203 524 90 b 175 369 247 90 175 212 z "},"ǳ":{"ha":645,"x_min":0,"x_max":0,"o":"m 384 -90 z "},"ʣ":{"ha":644,"x_min":0,"x_max":0,"o":"m 772 0 l 1351 0 l 1351 107 l 933 107 l 933 115 l 1337 644 l 1430 644 l 1430 19 l 1904 19 l 1904 11 l 1489 -522 "},"ǆ":{"ha":645,"x_min":0,"x_max":0,"o":"m 384 -90 "},"ʥ":{"ha":748,"x_min":0,"x_max":0,"o":"m 1069 0 l 1211 0 b 1496 222 1423 0 1496 134 b 1328 378 1496 313 1420 378 b 1012 107 1213 378 1135 280 l 932 107 l 1341 646 l 1432 646 l 1432 16 l 1911 16 l 1499 -517 l 1499 -613 l 1656 -613 l 1607 -681 l 1698 -742 z m 1934 -506 l 1864 -506 b 2039 -346 1936 -402 1980 -346 b 2104 -400 2071 -346 2104 -362 b 1934 -506 2104 -450 2047 -506 z m 1108 -524 b 867 -772 943 -524 867 -637 z "},"ð":{"ha":-2,"x_min":0,"x_max":0,"o":"m 627 935 l 595 1006 l 431 926 b 256 1043 375 975 315 1013 l 208 962 b 338 882 257 937 300 909 l 199 814 l 231 742 l 404 826 b 575 567 496 738 547 644 l 566 567 b 353 690 532 624 464 690 b 58 338 189 690 58 545 b 382 -15 58 133 184 -15 b 705 362 578 -15 705 123 b 492 869 705 572 614 744 z m 382 88 b 175 339 237 88 175 208 b 382 594 175 476 244 594 b 594 331 532 594 594 454 b 382 88 594 195 521 88 z "},"e":{"ha":0,"x_min":0,"x_max":0,"o":""},"é":{"ha":0,"x_min":0,"x_max":0,"o":""},"ĕ":{"ha":0,"x_min":0,"x_max":0,"o":""},"ě":{"ha":0,"x_min":0,"x_max":0,"o":""},"ḝ":{"ha":0,"x_min":0,"x_max":0,"o":""},"ê":{"ha":0,"x_min":0,"x_max":0,"o":""},"ế":{"ha":0,"x_min":0,"x_max":0,"o":""},"ḙ":{"ha":0,"x_min":0,"x_max":0,"o":""},"ệ":{"ha":0,"x_min":0,"x_max":0,"o":""},"ề":{"ha":0,"x_min":0,"x_max":0,"o":""},"ể":{"ha":0,"x_min":0,"x_max":0,"o":""},"ễ":{"ha":0,"x_min":0,"x_max":0,"o":""},"ȅ":{"ha":0,"x_min":0,"x_max":0,"o":""},"ë":{"ha":0,"x_min":0,"x_max":0,"o":""},"ė":{"ha":0,"x_min":0,"x_max":0,"o":""},"ẹ":{"ha":0,"x_min":0,"x_max":0,"o":""},"è":{"ha":0,"x_min":0,"x_max":0,"o":"l 1 0 l 1 -66 l 852 -66 l 852 -202 "},"ẻ":{"ha":0,"x_min":0,"x_max":0,"o":""},"ȇ":{"ha":0,"x_min":0,"x_max":0,"o":""},"ē":{"ha":0,"x_min":0,"x_max":0,"o":""},"ḗ":{"ha":0,"x_min":0,"x_max":0,"o":""},"ḕ":{"ha":0,"x_min":0,"x_max":0,"o":""},"ę":{"ha":1,"x_min":0,"x_max":0,"o":"m 410 -285 b 549 -187 463 -285 510 -241 b 758 -9 655 -165 730 -98 b 1053 -384 758 -218 869 -361 "},"ɛ":{"ha":0,"x_min":0,"x_max":0,"o":""},"ɜ":{"ha":0,"x_min":0,"x_max":0,"o":"b 109 44 0 -9 109 21 b 168 NaN 109 115 168 NaN b -115 NaN 168 NaN 53 NaN b -412 NaN -283 NaN -395 NaN "},"ɞ":{"ha":-28,"x_min":0,"x_max":0,"o":"m 382 -14 b 681 199 555 -14 681 72 b 537 369 681 260 653 336 b 667 529 645 399 667 469 b 385 746 667 666 553 746 b 50 380 167 746 50 608 b 382 -14 50 134 165 -14 z m 167 380 b 391 643 167 544 241 643 b 549 529 487 643 549 595 b 392 429 549 468 498 429 l 307 429 l 307 330 l 392 330 b 559 206 495 330 559 275 b 384 92 559 138 490 92 b 167 380 237 92 167 201 z "},"ɝ":{"ha":0,"x_min":0,"x_max":0,"o":"b 264 129 191 86 214 118 b NaN NaN 313 156 318 NaN l NaN NaN b NaN NaN NaN NaN NaN NaN b NaN NaN NaN NaN NaN NaN l NaN NaN b NaN NaN NaN NaN NaN NaN b NaN NaN NaN NaN NaN NaN l NaN NaN b NaN NaN NaN NaN NaN NaN b NaN NaN NaN NaN NaN NaN "},"ʚ":{"ha":-26,"x_min":0,"x_max":0,"o":"m 357 -14 b 689 380 574 -14 689 134 b 355 746 689 608 574 746 b 394 NaN 286 746 394 715 b 249 NaN 277 NaN 249 NaN b 547 NaN 249 NaN 375 NaN z m 371 NaN b 538 NaN 371 NaN 436 NaN b 724 NaN 625 NaN 724 NaN b 633 NaN 724 NaN 797 NaN b 385 NaN 454 NaN 385 NaN b 382 NaN 385 NaN 314 NaN z "},"ɘ":{"ha":-58,"x_min":0,"x_max":0,"o":"m 330 -14 b 661 342 532 -14 661 127 l 661 369 b 339 746 661 594 533 746 b 49 384 157 746 49 610 l 49 326 l 526 326 b 326 94 521 184 447 94 b 138 190 254 94 187 126 l 57 126 b 330 -14 119 34 212 -14 z m 184 431 l 184 441 b 347 639 194 571 254 639 b 524 431 448 639 509 561 z "},"ʃ":{"ha":-180,"x_min":0,"x_max":0,"o":"m 227 785 l 227 -50 b 106 -180 227 -134 183 -180 b 41 -175 84 -180 58 -179 b -72 66 35 -175 -72 -91 "},"ʆ":{"ha":-56,"x_min":0,"x_max":0,"o":"m 457 -15 l 457 785 b 586 916 457 869 511 916 b 651 909 609 916 633 913 l 658 1017 b 574 1027 629 1023 601 1027 b 342 785 423 1027 342 941 l 342 57 b 244 75 311 68 279 75 b 54 -102 137 75 54 11 b 256 -277 54 -203 136 -277 b 446 -152 371 -277 425 -222 l 541 -251 l 617 -170 z m 187 -102 b 262 -31 187 -64 216 -31 b 342 -60 288 -31 314 -41 l 342 -96 b 254 -170 342 -140 308 -170 b 187 -102 214 -170 187 -142 z "},"ƪ":{"ha":-55,"x_min":0,"x_max":0,"o":"m 64 802 b 290 575 64 678 165 575 b 381 594 323 575 353 582 l 381 -45 b 571 -277 381 -195 445 -277 b 648 -264 594 -277 629 -273 l 648 -159 b 605 -165 635 -163 617 -165 b 517 -45 548 -165 517 -134 l 517 802 b 290 1027 517 928 415 1027 b 64 802 165 1027 64 928 z m 290 699 b 189 804 233 699 189 732 b 290 909 189 873 233 909 b 391 804 346 909 391 873 b 290 699 391 732 346 699 z "},"ʅ":{"ha":-180,"x_min":0,"x_max":0,"o":"m 361 -50 l 361 506 b 119 746 361 662 270 746 b 35 735 92 746 64 742 l 41 629 b 106 635 58 633 84 635 b 228 506 183 635 228 587 l 228 -50 b 468 -292 228 -208 317 -292 b 553 -282 495 -292 525 -288 l 545 -175 b 480 -180 529 -179 503 -180 b 361 -50 406 -180 361 -134 z "},"ẽ":{"ha":0,"x_min":0,"x_max":0,"o":""},"ḛ":{"ha":0,"x_min":0,"x_max":0,"o":""},"ǝ":{"ha":0,"x_min":0,"x_max":0,"o":""},"ə":{"ha":0,"x_min":0,"x_max":0,"o":""},"ɚ":{"ha":191,"x_min":0,"x_max":0,"o":"m 315 727 b 42 589 171 727 90 658 l 123 524 b 309 620 165 579 224 620 b 499 473 407 620 472 559 l 34 384 l 34 342 b 332 -14 34 140 122 -14 b 647 355 494 -14 647 122 l 647 384 l 647 393 l 675 399 b 840 231 694 308 728 231 b 925 252 869 231 899 240 l 906 334 b 867 332 899 332 890 332 b 761 524 795 332 779 408 l 632 499 b 315 727 591 635 477 727 z m 168 282 l 168 300 l 511 366 l 511 355 b 332 94 511 187 438 94 b 168 282 212 94 168 191 z "},"ʒ":{"ha":0,"x_min":0,"x_max":0,"o":""},"ǯ":{"ha":0,"x_min":0,"x_max":0,"o":""},"ʓ":{"ha":83,"x_min":0,"x_max":0,"o":"m 129 736 l 129 628 l 549 628 l 549 621 l 305 328 l 305 231 l 397 231 b 609 45 522 231 609 151 b 595 -28 609 21 604 -4 l 578 -15 b 297 104 518 34 422 104 b 90 -71 167 104 90 34 b 362 -277 90 -202 214 -277 b 621 -182 471 -277 559 -239 l 701 -248 l 766 -171 l 685 -103 b 728 50 713 -56 728 -2 b 446 324 728 197 614 307 l 446 332 l 711 648 l 711 736 z m 191 -73 b 300 -3 191 -31 232 -3 b 513 -94 392 -3 464 -54 l 537 -113 b 368 -168 498 -146 442 -168 b 191 -73 277 -168 191 -136 z "},"ƹ":{"ha":67,"x_min":0,"x_max":0,"o":"m 755 1 l 631 1 b 419 -151 620 -98 532 -151 b 205 31 298 -151 205 -90 b 453 231 205 136 274 231 l 533 231 l 533 328 l 289 621 l 289 628 l 707 628 l 707 736 l 122 736 l 122 647 l 385 332 l 385 324 b 84 31 214 316 84 193 b 420 -259 84 -137 224 -259 b 755 1 598 -259 743 -163 z "},"ƺ":{"ha":-58,"x_min":0,"x_max":0,"o":"m 87 736 l 87 629 l 465 629 l 216 410 l 216 326 l 332 326 b 467 245 429 326 467 296 b 319 140 467 186 434 163 b 50 -80 142 103 50 37 b 331 -293 50 -206 161 -293 b 625 -57 522 -293 625 -175 l 492 -57 b 324 -184 487 -156 404 -184 b 184 -87 237 -184 184 -149 b 339 30 184 -41 213 3 b 602 241 498 64 602 114 b 403 427 602 338 526 409 l 661 655 l 661 736 z "},"f":{"ha":-299,"x_min":0,"x_max":0,"o":""},"ḟ":{"ha":0,"x_min":0,"x_max":0,"o":""},"ʩ":{"ha":337,"x_min":0,"x_max":0,"o":"m 469 -639 "},"ʪ":{"ha":68,"x_min":0,"x_max":0,"o":"m 642 190 b 496 94 642 136 591 94 b 155 221 429 94 288 113 l 155 982 l 38 982 l 38 0 l 155 0 l 155 79 b 496 -14 268 7 397 -14 b 777 202 666 -14 777 75 b 513 418 777 319 685 381 b 358 519 401 439 358 464 b 494 621 358 568 397 621 b 633 503 583 621 633 559 l 769 503 b 494 727 769 625 667 727 b 227 515 332 727 227 629 b 486 308 227 397 323 345 b 642 190 608 281 642 251 z "},"ʭ":{"ha":-58,"x_min":0,"x_max":0,"o":"m 624 384 l 87 384 l 87 0 l 189 0 l 189 302 l 522 302 l 522 0 l 624 0 z m 624 959 l 87 959 l 87 578 l 189 578 l 189 878 l 522 878 l 522 578 l 624 578 z "},"g":{"ha":37,"x_min":0,"x_max":0,"o":""},"ǵ":{"ha":0,"x_min":0,"x_max":0,"o":""},"ɣ":{"ha":17,"x_min":0,"x_max":0,"o":"m 392 -292 b 571 -130 505 -292 571 -235 b 543 -18 571 -106 566 -64 l 460 146 l 749 736 l 621 736 l 393 279 l 163 736 l 35 736 l 327 148 l 244 -18 b 208 -130 224 -57 208 -100 b 392 -292 208 -235 278 -292 z m 335 -130 b 395 12 335 -97 358 -58 b 448 -130 430 -60 448 -97 b 392 -182 448 -159 426 -182 b 335 -130 357 -182 335 -160 z "},"ǥ":{"ha":37,"x_min":0,"x_max":0,"o":"m 392 -292 b 712 -20 571 -292 712 -210 b 1218 -88 1061 -20 1218 69 b 1252 302 1218 231 1342 302 b 1131 NaN 1118 302 1131 NaN l 979 NaN l 979 NaN l 1131 NaN b 922 NaN 1117 NaN 1044 NaN z "},"ğ":{"ha":0,"x_min":0,"x_max":0,"o":""},"ǧ":{"ha":0,"x_min":0,"x_max":0,"o":""},"ĝ":{"ha":0,"x_min":0,"x_max":0,"o":""},"ģ":{"ha":0,"x_min":0,"x_max":0,"o":""},"ɡ":{"ha":37,"x_min":0,"x_max":0,"o":""},"ġ":{"ha":0,"x_min":0,"x_max":0,"o":""},"ɠ":{"ha":44,"x_min":0,"x_max":0,"o":"m 712 -20 l 712 798 b 819 895 712 873 758 895 b 856 891 833 895 845 892 l 856 990 b 788 996 838 996 814 996 b 598 798 681 996 598 925 l 598 620 l 589 620 b 373 746 562 659 515 746 b 58 378 189 746 58 605 b 372 11 58 146 193 11 b 586 136 514 11 562 95 l 595 136 l 595 -14 b 392 -190 595 -136 518 -190 b 202 -77 288 -190 218 -152 l 80 -77 b 392 -292 94 -214 214 -292 b 712 -20 571 -292 712 -210 b 524 190 388 -20 524 117 b 290 -83 524 80 366 -83 b 60 NaN 194 -83 60 NaN z "},"ʡ":{"ha":-58,"x_min":0,"x_max":0,"o":"m 538 202 l 401 202 l 401 260 l 324 260 l 324 100 l 179 100 l 179 -5 l 324 -5 l 324 -102 l 465 -102 l 465 -5 l 602 -5 z "},"ƾ":{"ha":-58,"x_min":0,"x_max":0,"o":"m 510 190 b 365 94 510 136 457 94 b 202 224 290 94 206 126 l 68 224 b 365 -14 68 103 172 -14 b 644 202 532 -14 644 75 b 404 521 644 400 404 357 l 404 614 l 534 614 l 534 713 l 404 713 l 404 884 l 269 884 l 269 713 l 141 713 l 141 614 l 269 614 l 269 517 b 510 190 269 298 510 319 z "},"ʢ":{"ha":-58,"x_min":0,"x_max":0,"o":"m 300 0 l 434 0 l 434 94 l 579 94 l 579 183 l 434 183 l 434 362 l 347 362 b 186 608 220 376 186 498 l 186 640 b 372 888 186 758 225 888 b 532 735 467 888 526 819 l 659 735 b 802 738 807 735 802 625 b NaN NaN 802 572 612 NaN l NaN NaN b NaN NaN NaN NaN NaN NaN l NaN NaN l NaN NaN l NaN NaN l NaN NaN z "},"ʖ":{"ha":-58,"x_min":0,"x_max":0,"o":"m 338 654 b 526 404 487 654 526 525 l 526 343 b 338 94 526 225 484 94 b 179 247 243 94 186 165 l 50 247 b 338 -14 58 102 168 -14 b 659 343 556 -14 659 153 l 659 404 b 412 755 659 571 580 721 l 412 982 l 277 982 l 277 654 z "},"ʕ":{"ha":-58,"x_min":0,"x_max":0,"o":"m 300 0 l 434 0 l 434 362 l 347 362 b 186 608 220 376 186 498 l 186 640 b 372 888 186 758 225 888 b 532 735 467 888 526 819 l 659 735 b 802 738 807 735 802 625 b NaN NaN 802 572 612 NaN l NaN NaN b NaN NaN NaN NaN NaN NaN z "},"ḡ":{"ha":0,"x_min":0,"x_max":0,"o":""},"ȝ":{"ha":-58,"x_min":0,"x_max":0,"o":"m 134 236 l 134 136 b 460 262 267 161 377 205 b 499 125 485 231 499 183 b 134 -182 499 -37 395 -123 l 134 -288 b 633 117 468 -243 633 -109 b 543 334 633 215 603 288 b 621 524 593 391 621 455 b 361 746 621 661 521 746 b 77 514 189 746 77 656 l 212 514 b 355 639 212 590 267 639 b 486 515 441 639 486 595 b 134 236 486 391 361 292 z "},"h":{"ha":14,"x_min":0,"x_max":0,"o":""},"ħ":{"ha":0,"x_min":0,"x_max":0,"o":""},"ḫ":{"ha":0,"x_min":0,"x_max":0,"o":""},"ḩ":{"ha":0,"x_min":0,"x_max":0,"o":"l 14 0 l 14 210 l 35 210 l 35 213 "},"ĥ":{"ha":0,"x_min":0,"x_max":0,"o":""},"ḧ":{"ha":0,"x_min":0,"x_max":0,"o":""},"ḣ":{"ha":0,"x_min":0,"x_max":0,"o":""},"ḥ":{"ha":0,"x_min":0,"x_max":0,"o":""},"ɧ":{"ha":7,"x_min":0,"x_max":0,"o":"m 562 0 l 562 -77 b 456 -175 562 -153 515 -175 b 418 -172 441 -175 427 -174 l 418 -270 l 411 -270 l 411 -252 l 437 -252 l 437 -254 l 498 -254 z "},"ɦ":{"ha":7,"x_min":0,"x_max":0,"o":"m 206 736 l 206 798 l 323 798 z "},"ẖ":{"ha":0,"x_min":0,"x_max":0,"o":""},"ɥ":{"ha":14,"x_min":0,"x_max":0,"o":"m 571 294 l 571 754 l 454 754 l 454 286 b 705 8 454 98 555 8 b 922 133 822 8 888 57 l 932 133 l 932 -228 l 1048 -228 l 1048 754 l 932 754 z "},"ʯ":{"ha":0,"x_min":0,"x_max":0,"o":"l 135 0 l 135 -194 b 328 -393 135 -323 220 -393 b 395 -387 352 -393 378 -393 l 395 -289 b 357 -292 386 -290 371 -292 b 250 -194 298 -292 250 -270 l 250 620 l 134 620 l 134 178 "},"ʮ":{"ha":0,"x_min":0,"x_max":0,"o":"l 112 0 l 112 -393 l 227 -393 l 227 620 l 111 620 l 111 178 "},"ƕ":{"ha":493,"x_min":0,"x_max":0,"o":"m 94 0 l 210 0 l 210 442 l 210 274 b 457 -31 210 62 319 -31 b 807 620 656 -31 807 160 l 807 719 l 689 719 l 689 620 b 465 72 689 216 585 72 b 327 274 408 72 327 104 l 503 274 l 503 635 l 387 635 z "},"i":{"ha":-465,"x_min":0,"x_max":0,"o":""},"ı":{"ha":-465,"x_min":0,"x_max":0,"o":""},"í":{"ha":0,"x_min":0,"x_max":0,"o":""},"ɨ":{"ha":0,"x_min":0,"x_max":0,"o":""},"ĭ":{"ha":0,"x_min":0,"x_max":0,"o":""},"ǐ":{"ha":0,"x_min":0,"x_max":0,"o":""},"î":{"ha":0,"x_min":0,"x_max":0,"o":""},"ȉ":{"ha":0,"x_min":0,"x_max":0,"o":""},"ï":{"ha":0,"x_min":0,"x_max":0,"o":""},"ḯ":{"ha":0,"x_min":0,"x_max":0,"o":""},"ị":{"ha":0,"x_min":0,"x_max":0,"o":""},"ì":{"ha":0,"x_min":0,"x_max":0,"o":""},"ỉ":{"ha":0,"x_min":0,"x_max":0,"o":""},"ȋ":{"ha":0,"x_min":0,"x_max":0,"o":""},"ī":{"ha":0,"x_min":0,"x_max":0,"o":""},"į":{"ha":0,"x_min":0,"x_max":0,"o":"l 0 -467 l 119 -467 l 119 -753 l 856 -753 l 856 -870 l 127 -870 "},"ĩ":{"ha":-410,"x_min":0,"x_max":0,"o":"m 122 0 "},"ḭ":{"ha":0,"x_min":0,"x_max":0,"o":""},"ĳ":{"ha":0,"x_min":0,"x_max":0,"o":""},"j":{"ha":0,"x_min":0,"x_max":0,"o":""},"ȷ":{"ha":-465,"x_min":0,"x_max":0,"o":""},"ǰ":{"ha":0,"x_min":0,"x_max":0,"o":""},"ĵ":{"ha":0,"x_min":0,"x_max":0,"o":""},"ʝ":{"ha":-314,"x_min":0,"x_max":0,"o":"m 164 -277 b 357 -64 289 -277 357 -174 l 357 -31 l 500 -31 l 500 77 l 358 77 l 358 736 l 241 736 l 241 161 l 240 161 l 240 77 l 170 77 b -30 -102 60 77 -30 8 b 164 -277 -30 -199 43 -277 "},"ɟ":{"ha":0,"x_min":0,"x_max":0,"o":""},"ʄ":{"ha":-180,"x_min":0,"x_max":0,"o":"m 227 785 l 227 107 l 81 107 l 81 18 l 227 18 l 227 -50 b 106 -180 227 -134 183 -180 b 41 -175 84 -180 58 -179 b -72 66 35 -175 -72 -91 "},"k":{"ha":-50,"x_min":0,"x_max":0,"o":""},"ḱ":{"ha":0,"x_min":0,"x_max":0,"o":""},"ǩ":{"ha":0,"x_min":0,"x_max":0,"o":""},"ķ":{"ha":0,"x_min":0,"x_max":0,"o":""},"ḳ":{"ha":0,"x_min":0,"x_max":0,"o":""},"ĸ":{"ha":0,"x_min":0,"x_max":0,"o":""},"ƙ":{"ha":-64,"x_min":0,"x_max":0,"o":"m 555 0 l 693 0 l 374 422 l 663 736 l 515 736 l 220 408 l 210 408 l 210 798 l 210 873 l 256 873 l 256 76 l 373 76 l 373 317 l 460 412 z "},"ḵ":{"ha":0,"x_min":0,"x_max":0,"o":""},"ʞ":{"ha":-50,"x_min":0,"x_max":0,"o":"m 624 736 l 507 736 l 507 463 l 430 389 l 156 736 l 8 736 l 342 316 l 31 0 l 175 0 l 494 326 l 507 326 l 507 -245 l 624 -245 z "},"l":{"ha":-465,"x_min":0,"x_max":0,"o":""},"ĺ":{"ha":0,"x_min":0,"x_max":0,"o":""},"ƛ":{"ha":67,"x_min":0,"x_max":0,"o":"m 446 936 l 376 909 b 218 997 348 965 305 997 b 152 989 198 997 163 993 l 152 886 b 182 888 159 888 175 888 b 243 859 206 888 226 881 l 119 811 l 119 699 l 285 761 l 320 675 l 62 0 l 212 0 l 389 498 l 534 122 b 703 -11 581 4 623 -11 b 755 -4 724 -11 745 -8 l 751 103 l 728 103 b 667 159 700 103 684 117 l 416 810 l 446 821 z "},"ƚ":{"ha":-465,"x_min":0,"x_max":0,"o":"m 210 982 z "},"ɬ":{"ha":-218,"x_min":0,"x_max":0,"o":"m 217 395 l 290 395 l 290 0 l 407 0 l 407 395 l 549 395 l 549 500 l 407 500 l 407 982 l 290 982 l 290 734 b 214 746 268 742 243 746 b 20 571 94 746 20 669 b 217 395 20 461 110 395 z m 141 571 b 212 644 141 610 172 644 b 290 566 264 644 290 608 l 290 500 l 220 500 b 141 571 174 500 141 533 z "},"ľ":{"ha":0,"x_min":0,"x_max":0,"o":""},"ḽ":{"ha":0,"x_min":0,"x_max":0,"o":""},"ļ":{"ha":0,"x_min":0,"x_max":0,"o":""},"ȴ":{"ha":-321,"x_min":0,"x_max":0,"o":"m 95 982 l 95 -20 l 91 -24 l -57 -175 l 18 -251 l 111 -155 b 300 -277 137 -222 196 -277 b 495 -100 420 -277 495 -205 b 311 75 495 5 416 75 b 212 56 279 75 245 68 l 212 982 z m 212 -96 l 212 -57 b 296 -28 236 -40 262 -28 b 376 -100 345 -28 376 -56 b 301 -176 376 -145 346 -176 b 212 -96 254 -176 212 -140 z "},"ŀ":{"ha":0,"x_min":0,"x_max":0,"o":""},"ḷ":{"ha":0,"x_min":0,"x_max":0,"o":""},"ḹ":{"ha":0,"x_min":0,"x_max":0,"o":""},"ǉ":{"ha":0,"x_min":0,"x_max":0,"o":""},"ḻ":{"ha":0,"x_min":0,"x_max":0,"o":""},"ɫ":{"ha":-372,"x_min":0,"x_max":0,"o":"m 258 982 l 141 982 l 141 578 b 132 568 141 580 130 568 b 130 576 119 568 130 577 b NaN NaN 130 574 139 NaN z "},"ɭ":{"ha":-424,"x_min":0,"x_max":0,"o":"m 210 -77 l 210 0 l 212 0 l 212 982 l 95 982 l 95 0 l 94 0 l 94 -77 b 288 -277 94 -206 179 -277 b 354 -270 312 -277 336 -277 z "},"ł":{"ha":-466,"x_min":0,"x_max":0,"o":"m 313 614 l 210 576 l 210 982 l 94 982 l 94 533 l -12 492 l -12 407 l 94 448 l 94 0 l 210 0 l 210 491 l 313 529 z "},"ɮ":{"ha":73,"x_min":0,"x_max":0,"o":"m 109 982 l 109 1 l 224 1 l 224 628 l 591 628 l 591 621 l 347 328 l 347 231 l 441 231 b 652 26 566 231 652 155 b 441 -184 652 -103 566 -184 b 275 -122 372 -184 315 -161 l 190 -206 b 439 -293 251 -260 336 -293 b 773 26 633 -293 773 -165 b 488 324 773 199 659 307 l 488 332 l 753 648 l 753 736 l 224 736 l 224 982 z "},"m":{"ha":391,"x_min":0,"x_max":0,"o":""},"ḿ":{"ha":0,"x_min":0,"x_max":0,"o":""},"ṁ":{"ha":0,"x_min":0,"x_max":0,"o":""},"ṃ":{"ha":0,"x_min":0,"x_max":0,"o":""},"ɱ":{"ha":391,"x_min":0,"x_max":0,"o":"m 947 0 l 947 -77 b 840 -175 947 -153 901 -175 b 802 -172 826 -175 812 -174 l 802 -270 l 802 -277 l 821 -277 l 821 -252 l 1313 -252 b 1088 1 1313 -79 1219 1 b 867 -123 982 1 905 -47 l 859 -123 b 662 1 823 -45 758 1 b 464 -123 566 1 495 -45 l 464 -133 l 579 -133 l 579 -245 l -157 -245 z "},"ɯ":{"ha":391,"x_min":0,"x_max":0,"o":"m 1065 736 l 1177 736 z "},"ɰ":{"ha":391,"x_min":0,"x_max":0,"o":"m 951 -277 l 1063 -277 l 1063 0 l 1065 0 l 1065 736 l 1063 736 z "},"n":{"ha":6,"x_min":0,"x_max":0,"o":""},"ń":{"ha":0,"x_min":0,"x_max":0,"o":""},"ň":{"ha":0,"x_min":0,"x_max":0,"o":""},"ṋ":{"ha":0,"x_min":0,"x_max":0,"o":""},"ņ":{"ha":0,"x_min":0,"x_max":0,"o":""},"ȵ":{"ha":242,"x_min":0,"x_max":0,"o":"m 210 442 l 210 72 l 208 69 l 60 -83 l 134 -159 l 225 -64 b 415 -184 252 -130 311 -184 b 610 -9 534 -184 610 -113 b 426 167 610 98 532 167 b 327 149 393 167 359 161 z m 796 163 l 796 464 l 837 464 b 920 491 861 480 888 491 b 1001 419 968 491 1001 464 b 925 342 1001 376 971 342 b 837 423 879 342 837 378 z "},"ṅ":{"ha":0,"x_min":0,"x_max":0,"o":""},"ṇ":{"ha":0,"x_min":0,"x_max":0,"o":""},"ǌ":{"ha":0,"x_min":0,"x_max":0,"o":""},"ƞ":{"ha":6,"x_min":0,"x_max":0,"o":""},"ɲ":{"ha":31,"x_min":0,"x_max":0,"o":"m 117 0 l 117 -77 b 11 -175 117 -152 72 -175 b -27 -172 -3 -175 -18 -174 l -28 -270 b 39 -277 -9 -277 15 -277 b 235 -77 149 -277 235 -205 l 235 442 z "},"ṉ":{"ha":0,"x_min":0,"x_max":0,"o":""},"ɳ":{"ha":1,"x_min":0,"x_max":0,"o":"m 680 -77 l 1225 -77 l 1225 365 b 1411 564 1225 492 1303 564 b 1577 382 1515 564 1577 496 l 1577 -77 l 1576 -77 l 1576 -155 b 1771 -354 1576 -283 1663 -354 b 1838 -347 1796 -354 1820 -354 z "},"ñ":{"ha":0,"x_min":0,"x_max":0,"o":""},"ŋ":{"ha":6,"x_min":0,"x_max":0,"o":"m 562 0 "},"o":{"ha":21,"x_min":0,"x_max":0,"o":""},"ó":{"ha":0,"x_min":0,"x_max":0,"o":""},"ɵ":{"ha":0,"x_min":0,"x_max":0,"o":""},"ŏ":{"ha":0,"x_min":0,"x_max":0,"o":""},"ǒ":{"ha":0,"x_min":0,"x_max":0,"o":""},"ô":{"ha":0,"x_min":0,"x_max":0,"o":""},"ố":{"ha":0,"x_min":0,"x_max":0,"o":""},"ộ":{"ha":0,"x_min":0,"x_max":0,"o":""},"ồ":{"ha":0,"x_min":0,"x_max":0,"o":""},"ổ":{"ha":0,"x_min":0,"x_max":0,"o":""},"ỗ":{"ha":0,"x_min":0,"x_max":0,"o":""},"ȍ":{"ha":0,"x_min":0,"x_max":0,"o":""},"ö":{"ha":0,"x_min":0,"x_max":0,"o":""},"ọ":{"ha":0,"x_min":0,"x_max":0,"o":""},"ò":{"ha":0,"x_min":0,"x_max":0,"o":""},"ỏ":{"ha":0,"x_min":0,"x_max":0,"o":""},"ơ":{"ha":21,"x_min":0,"x_max":0,"o":""},"ớ":{"ha":0,"x_min":0,"x_max":0,"o":""},"ợ":{"ha":0,"x_min":0,"x_max":0,"o":""},"ờ":{"ha":0,"x_min":0,"x_max":0,"o":""},"ở":{"ha":0,"x_min":0,"x_max":0,"o":""},"ỡ":{"ha":0,"x_min":0,"x_max":0,"o":""},"ő":{"ha":0,"x_min":0,"x_max":0,"o":""},"ƣ":{"ha":70,"x_min":0,"x_max":0,"o":"m 357 94 b 171 343 241 94 171 186 l 171 370 b 353 639 171 510 210 639 b 453 608 395 639 427 627 l 453 123 b 357 94 426 106 397 94 z m 800 736 l 696 736 l 564 669 b 357 746 513 717 443 746 b 35 370 140 746 35 579 l 35 343 b 351 -14 35 153 144 -14 b 589 92 457 -14 536 30 l 589 518 l 667 564 l 667 -277 l 800 -277 z "},"ȏ":{"ha":21,"x_min":0,"x_max":0,"o":""},"ō":{"ha":0,"x_min":0,"x_max":0,"o":""},"ṓ":{"ha":0,"x_min":0,"x_max":0,"o":""},"ṑ":{"ha":0,"x_min":0,"x_max":0,"o":""},"ɷ":{"ha":313,"x_min":0,"x_max":0,"o":"m 540 639 b 883 330 800 639 883 505 b 742 94 883 217 849 94 b 606 312 670 94 606 153 l 606 437 l 473 437 l 473 312 b 336 94 473 153 410 94 b 198 330 231 94 198 217 b 540 639 198 505 279 639 z m 540 746 b 62 328 194 746 62 538 b 326 -14 62 170 132 -14 b 540 141 431 -14 503 40 b 753 -14 575 40 648 -14 b 1017 328 948 -14 1017 170 b 540 746 1017 538 886 746 z "},"ǫ":{"ha":21,"x_min":0,"x_max":0,"o":""},"ǭ":{"ha":0,"x_min":0,"x_max":0,"o":""},"ɔ":{"ha":0,"x_min":0,"x_max":0,"o":""},"ø":{"ha":0,"x_min":0,"x_max":0,"o":""},"ǿ":{"ha":0,"x_min":0,"x_max":0,"o":""},"õ":{"ha":0,"x_min":0,"x_max":0,"o":""},"ṍ":{"ha":0,"x_min":0,"x_max":0,"o":""},"ṏ":{"ha":0,"x_min":0,"x_max":0,"o":""},"œ":{"ha":551,"x_min":0,"x_max":0,"o":"m 395 -15 b 670 134 515 -15 612 40 b 956 -15 728 41 827 -15 b 1252 172 1108 -15 1217 61 b 1061 -62 1252 52 1156 -5 b 784 90 1002 33 905 90 "},"p":{"ha":37,"x_min":0,"x_max":0,"o":""},"ṕ":{"ha":0,"x_min":0,"x_max":0,"o":""},"ṗ":{"ha":0,"x_min":0,"x_max":0,"o":""},"ɸ":{"ha":70,"x_min":0,"x_max":0,"o":"m 90 374 l 90 358 b 353 -8 90 167 189 22 l 353 -260 l 486 -260 l 486 -7 b 749 358 651 23 749 168 l 749 374 b 486 741 749 566 651 709 l 486 982 l 353 982 l 353 741 b 90 374 189 711 90 567 z m 224 358 l 224 374 b 353 628 224 494 267 594 l 353 106 b 224 358 267 138 224 237 z m 486 106 l 486 627 b 613 374 571 593 613 492 l 613 358 b 486 106 613 239 570 140 z "},"ƥ":{"ha":39,"x_min":0,"x_max":0,"o":"m 94 736 l 95 736 l 95 -277 l 94 -277 b 201 -201 94 -227 133 -201 b 237 -205 212 -201 227 -202 l 237 -107 b 171 -100 227 -104 201 -100 b -19 -277 52 -100 -19 -163 z m 96 -644 b -115 -1059 96 -802 24 -924 z "},"þ":{"ha":0,"x_min":0,"x_max":0,"o":""},"q":{"ha":0,"x_min":0,"x_max":0,"o":""},"ʠ":{"ha":117,"x_min":0,"x_max":0,"o":"m 598 736 l 598 620 l 586 620 l 594 620 l 594 231 l 712 231 l 712 1244 b 818 1320 712 1294 751 1320 b 856 1316 830 1320 844 1318 l 856 1413 b 789 1420 845 1416 821 1420 b 598 1244 670 1420 598 1358 z m 598 876 b 388 597 598 711 522 597 b 176 876 248 597 176 719 b 388 1149 176 1029 247 1149 b 598 876 525 1149 598 1039 z "},"ɋ":{"ha":79,"x_min":0,"x_max":0,"o":"m 789 -277 b 826 -288 814 -277 840 -288 b NaN NaN 825 -288 811 NaN b NaN NaN NaN NaN NaN NaN l NaN NaN l NaN NaN l NaN NaN l NaN NaN l NaN NaN l NaN NaN b NaN NaN NaN NaN NaN NaN "},"r":{"ha":-281,"x_min":0,"x_max":0,"o":""},"ŕ":{"ha":0,"x_min":0,"x_max":0,"o":""},"ř":{"ha":0,"x_min":0,"x_max":0,"o":""},"ŗ":{"ha":0,"x_min":0,"x_max":0,"o":""},"ȑ":{"ha":0,"x_min":0,"x_max":0,"o":""},"ṙ":{"ha":0,"x_min":0,"x_max":0,"o":""},"ṛ":{"ha":0,"x_min":0,"x_max":0,"o":""},"ṝ":{"ha":0,"x_min":0,"x_max":0,"o":""},"ɾ":{"ha":-372,"x_min":0,"x_max":0,"o":"m 210 0 l 210 543 b 327 639 210 617 266 639 b 363 635 339 639 353 637 l 363 736 b 297 746 346 742 316 746 b 94 549 189 746 94 678 l 94 0 z "},"ɿ":{"ha":-379,"x_min":0,"x_max":0,"o":"m 296 -277 l 296 549 b 91 746 296 678 199 746 b 24 736 71 746 42 742 l 24 635 b 61 639 37 637 50 639 b 179 543 123 639 179 617 l 179 -277 z "},"ȓ":{"ha":0,"x_min":0,"x_max":0,"o":""},"ṟ":{"ha":-281,"x_min":0,"x_max":0,"o":"m 283 -857 l -167 -857 l -167 -954 l 283 -954 z "},"ɹ":{"ha":-281,"x_min":0,"x_max":0,"o":"m 392 736 l 275 736 l 275 273 l 388 273 z "},"ɺ":{"ha":-302,"x_min":0,"x_max":0,"o":"m 57 119 l 57 -4 b 113 -14 68 -8 95 -14 b 275 76 186 -14 240 21 l 278 0 l 408 0 l 408 1013 l 274 1013 l 274 206 b 119 114 248 149 197 114 b 57 119 96 114 80 117 z "},"ɻ":{"ha":-257,"x_min":0,"x_max":0,"o":"m 469 -288 b 536 -279 491 -288 518 -286 l 536 -190 b 499 -194 526 -194 510 -194 b 392 -90 429 -194 392 -159 l 392 736 l 275 736 l 275 273 l 274 273 l 274 182 b 465 -15 274 53 357 -15 z "},"s":{"ha":-78,"x_min":0,"x_max":0,"o":""},"ś":{"ha":0,"x_min":0,"x_max":0,"o":""},"ṥ":{"ha":0,"x_min":0,"x_max":0,"o":""},"š":{"ha":0,"x_min":0,"x_max":0,"o":""},"ṧ":{"ha":0,"x_min":0,"x_max":0,"o":""},"ş":{"ha":0,"x_min":0,"x_max":0,"o":"l -78 17 l -199 100 l -271 239 l -283 222 l -360 244 b -120 463 -206 259 -120 347 b -317 662 -120 566 -185 631 "},"ŝ":{"ha":0,"x_min":0,"x_max":0,"o":""},"ș":{"ha":-78,"x_min":0,"x_max":0,"o":"m -264 -871 l -174 -871 l -91 -623 l -209 -623 z "},"ṡ":{"ha":0,"x_min":0,"x_max":0,"o":""},"ṣ":{"ha":0,"x_min":0,"x_max":0,"o":""},"ṩ":{"ha":0,"x_min":0,"x_max":0,"o":""},"ß":{"ha":40,"x_min":0,"x_max":0,"o":"m 109 731 l 109 0 l 225 0 l 225 728 b 396 887 225 823 297 887 b 566 724 500 887 566 815 b 410 553 566 636 506 553 l 349 553 l 349 444 l 434 444 b 624 271 551 444 624 372 b 453 109 624 175 557 109 l 346 109 l 346 0 l 453 0 b 741 270 627 0 741 114 b 528 510 741 408 652 498 l 528 519 b 684 742 620 552 684 631 b 395 996 684 899 559 996 b 109 731 225 996 109 895 z "},"ẛ":{"ha":-298,"x_min":0,"x_max":0,"o":"m 142 837 l 142 0 l 260 0 l 260 811 "},"ẜ":{"ha":-330,"x_min":0,"x_max":0,"o":"m 24 498 l 111 530 l 111 0 l 229 0 l 229 575 l 353 621 l 353 736 l 229 690 l 229 811 l 229 620 l 142 587 z "},"ʂ":{"ha":-78,"x_min":0,"x_max":0,"o":"m 60 179 l 60 -22 b 255 -218 60 -149 144 -218 b 320 -212 277 -218 302 -217 l 320 -111 b 283 -115 311 -115 293 -115 b 159 -22 222 -115 159 -98 l 159 30 b 342 -15 205 0 267 -15 b 631 206 526 -15 631 79 b 434 406 631 309 566 374 l 437 392 z "},"ſ":{"ha":-329,"x_min":0,"x_max":0,"o":"m 228 0 l 228 787 b 346 920 228 869 269 920 b 403 914 369 920 388 918 l 418 1013 b 323 1027 388 1021 355 1027 b 94 787 180 1027 94 943 l 94 0 z "},"t":{"ha":-295,"x_min":0,"x_max":0,"o":""},"ŧ":{"ha":-295,"x_min":0,"x_max":0,"o":"m 31 401 l 31 513 l -189 513 l -189 703 l -34 703 l -34 791 l -189 791 l -189 940 l -34 940 l -34 1038 l -189 1038 l -189 1214 l -307 1214 l -307 1065 l -418 1065 z "},"ť":{"ha":0,"x_min":0,"x_max":0,"o":""},"ʨ":{"ha":318,"x_min":0,"x_max":0,"o":"m 415 736 l 259 736 l 259 913 l 142 913 l 142 472 b 339 264 142 331 229 263 b 525 332 407 265 469 292 b 735 259 579 286 650 259 b 1009 476 888 259 1009 347 b 827 642 1009 571 948 642 b 543 498 715 642 629 583 b 517 643 526 538 517 587 b 735 917 517 808 605 917 b 909 788 834 917 892 856 l 1027 788 b 732 1020 1008 928 890 1020 b 400 639 532 1020 400 863 b 454 416 400 553 419 477 b 340 370 415 387 375 370 b 259 472 300 370 259 395 l 259 913 l 415 913 z m 608 408 l 612 412 b 823 537 685 495 745 537 b 901 477 879 537 901 517 b 736 363 901 403 821 363 b 608 408 686 363 642 379 z "},"ţ":{"ha":0,"x_min":0,"x_max":0,"o":"b -156 -237 0 -295 -97 -237 b -109 NaN -85 -237 -109 NaN l -127 NaN l -123 NaN b -60 NaN -97 NaN -74 NaN l -60 NaN l 95 NaN "},"ṱ":{"ha":0,"x_min":0,"x_max":0,"o":""},"ț":{"ha":0,"x_min":0,"x_max":0,"o":""},"ȶ":{"ha":-135,"x_min":0,"x_max":0,"o":"m 182 913 l 182 511 b 31 359 139 473 91 422 l 104 283 b 198 380 140 321 170 353 b 387 259 224 313 283 259 b 586 439 510 259 586 335 b 397 610 586 536 521 610 b 298 591 361 610 330 604 l 298 913 l 454 913 l 454 1010 l 298 1010 l 298 1187 z m 298 438 l 298 469 b 381 506 334 495 359 506 b 467 434 448 506 467 472 b 388 358 467 384 430 358 b 298 438 336 358 298 393 z "},"ẗ":{"ha":0,"x_min":0,"x_max":0,"o":""},"ṫ":{"ha":0,"x_min":0,"x_max":0,"o":""},"ṭ":{"ha":0,"x_min":0,"x_max":0,"o":""},"ʧ":{"ha":-37,"x_min":0,"x_max":0,"o":"m 142 884 l 142 713 l 15 713 l 15 614 l 142 614 l 142 198 b 319 -14 142 68 186 -14 b 414 -4 355 -14 388 -9 l 414 -35 b 293 -165 414 -119 370 -165 b 228 -159 270 -165 245 -163 b 114 83 222 -159 114 -73 l 114 903 l 42 903 l 42 766 l 213 766 z m 213 80 l 213 496 l 350 496 l 350 -12 b 289 -18 330 -15 308 -18 b 213 80 233 -18 213 5 z "},"ƭ":{"ha":-302,"x_min":0,"x_max":0,"o":"m 297 713 l 297 830 b 396 933 297 906 336 933 b 434 928 407 933 422 932 l 434 1017 b 366 1027 414 1024 387 1027 b 161 830 256 1027 161 959 l 161 713 l 34 713 l 34 614 l 161 614 l 161 198 b 330 -14 161 46 237 -14 b 429 0 376 -14 408 -5 l 429 107 b 372 100 416 106 392 100 b 297 198 332 100 297 121 l 297 614 l 426 614 l 426 713 z "},"ṯ":{"ha":0,"x_min":0,"x_max":0,"o":""},"ƽ":{"ha":-56,"x_min":0,"x_max":0,"o":"m 244 311 b 380 378 267 346 307 378 b 526 237 476 378 526 321 b 377 98 526 156 481 98 b 231 213 290 98 231 142 l 100 202 b 377 -11 100 57 252 -11 b 661 237 579 -11 661 98 b 407 484 661 396 566 488 b 267 445 355 483 297 464 l 286 598 l 624 598 l 624 713 l 50 713 l 50 598 l 160 598 l 127 320 z "},"ƅ":{"ha":237,"x_min":0,"x_max":0,"o":"m 292 0 l -62 0 l -62 -109 l 175 -109 "},"ƨ":{"ha":-78,"x_min":0,"x_max":0,"o":"m 72 545 l 186 545 b 335 647 202 606 248 647 b 491 536 426 647 491 598 b 365 433 491 487 452 453 l 255 406 b 58 206 123 374 58 309 b 347 -15 58 79 163 -15 b 631 193 513 -15 612 58 l 509 193 b 350 87 495 121 442 87 b 179 199 245 87 179 130 b 300 305 179 251 216 286 l 411 331 b 608 529 540 361 608 431 b 335 746 608 655 498 746 b 72 545 183 746 87 665 z "},"ƫ":{"ha":0,"x_min":0,"x_max":0,"o":"b -180 -201 0 -288 -119 -201 b -100 NaN -90 -201 -100 NaN l -100 NaN b -208 NaN -100 NaN -148 NaN b -245 NaN -222 NaN -236 NaN l -245 NaN b -179 NaN -228 NaN -202 NaN b 14 NaN -71 NaN 14 NaN l 14 NaN l -42 NaN l -62 NaN b -159 NaN -113 NaN -159 NaN l -159 NaN l -4 NaN "},"ʈ":{"ha":-292,"x_min":0,"x_max":0,"o":"m 415 736 l 259 736 l 259 913 l 142 913 l 142 174 b 343 -18 142 45 245 -18 b 429 -3 387 -16 414 -9 l 406 100 b 355 95 396 99 381 95 b 259 203 307 95 259 110 l 259 913 l 415 913 z "},"ʦ":{"ha":191,"x_min":0,"x_max":0,"o":"m 163 884 l 163 736 l 34 736 l 34 637 l 163 637 l 163 212 b 332 0 163 60 240 0 l 646 0 b 925 205 814 0 925 75 b 658 418 925 317 840 377 b 509 526 557 439 509 460 b 640 640 509 589 552 640 b 781 503 738 640 781 576 l 917 503 b 643 746 917 644 812 746 b 557 736 612 746 584 743 l 298 736 l 298 884 z m 789 195 b 646 113 789 133 741 113 l 373 113 b 298 212 334 113 298 134 l 298 637 l 408 637 b 374 524 386 604 374 566 b 637 308 374 399 473 340 b 789 195 768 281 789 237 z "},"ʇ":{"ha":-295,"x_min":0,"x_max":0,"o":"m 57 0 l 212 0 l 212 -176 l 330 -176 l 330 0 l 441 0 l 441 98 l 330 98 l 330 555 b 127 746 330 685 225 746 b 46 741 94 746 64 743 l 46 632 b 115 635 64 633 94 635 b 212 525 165 635 212 620 l 212 98 l 57 98 z "},"u":{"ha":1,"x_min":0,"x_max":0,"o":""},"ú":{"ha":0,"x_min":0,"x_max":0,"o":""},"ʉ":{"ha":45,"x_min":0,"x_max":0,"o":"m 823 471 l 697 471 l 697 736 l 582 736 l 582 471 l 233 471 l 233 736 l 117 736 l 117 471 l -11 471 l -11 381 l 117 381 l 117 269 l -8 269 l -8 384 l 373 384 l 373 510 z m 132 431 l 132 536 l 480 536 z "},"ŭ":{"ha":0,"x_min":0,"x_max":0,"o":""},"ǔ":{"ha":0,"x_min":0,"x_max":0,"o":""},"û":{"ha":0,"x_min":0,"x_max":0,"o":""},"ṷ":{"ha":1,"x_min":0,"x_max":0,"o":"m -69 -1005 l 41 -1005 l 41 -997 l -117 -798 l -222 -798 l -380 -997 l -380 -1005 l -269 -1005 l -170 -872 z "},"ȕ":{"ha":0,"x_min":0,"x_max":0,"o":""},"ü":{"ha":0,"x_min":0,"x_max":0,"o":""},"ǘ":{"ha":0,"x_min":0,"x_max":0,"o":""},"ṳ":{"ha":1,"x_min":0,"x_max":0,"o":"m 286 0 z "},"ǚ":{"ha":1,"x_min":0,"x_max":0,"o":"m -163 308 l -553 308 l -553 481 l -667 481 l -667 475 l -498 292 l -416 292 l -245 475 l -245 481 l -361 481 l -457 370 z "},"ǜ":{"ha":1,"x_min":0,"x_max":0,"o":"m -119 307 l -510 307 l -510 480 l -671 480 l -496 283 l -381 283 z "},"ǖ":{"ha":0,"x_min":0,"x_max":0,"o":""},"ụ":{"ha":0,"x_min":0,"x_max":0,"o":""},"ù":{"ha":0,"x_min":0,"x_max":0,"o":""},"ủ":{"ha":0,"x_min":0,"x_max":0,"o":""},"ư":{"ha":56,"x_min":0,"x_max":0,"o":""},"ứ":{"ha":0,"x_min":0,"x_max":0,"o":""},"ự":{"ha":56,"x_min":0,"x_max":0,"o":"m -469 -1013 z "},"ừ":{"ha":0,"x_min":0,"x_max":0,"o":""},"ử":{"ha":0,"x_min":0,"x_max":0,"o":""},"ữ":{"ha":0,"x_min":0,"x_max":0,"o":""},"ű":{"ha":0,"x_min":0,"x_max":0,"o":""},"ȗ":{"ha":0,"x_min":0,"x_max":0,"o":""},"ū":{"ha":0,"x_min":0,"x_max":0,"o":""},"ṻ":{"ha":0,"x_min":0,"x_max":0,"o":""},"ǹ":{"ha":0,"x_min":0,"x_max":0,"o":""},"ȟ":{"ha":0,"x_min":0,"x_max":0,"o":""},"ȡ":{"ha":185,"x_min":0,"x_max":0,"o":"m 372 -15 l 380 -15 l 380 -149 l 229 -302 l 302 -380 l 397 -285 b 586 -404 422 -351 481 -404 b 781 -229 707 -404 781 -332 b 595 -54 781 -123 703 -54 b 498 -72 564 -54 530 -60 l 498 854 l 380 854 l 380 492 l 372 492 z m 694 324 l 694 345 b 795 374 722 367 755 381 b 860 301 836 370 860 342 b 784 225 860 258 830 225 b 694 324 736 225 694 260 z "},"ȣ":{"ha":64,"x_min":0,"x_max":0,"o":"m 408 479 l 423 479 b 651 289 559 479 651 415 b 423 94 651 157 559 94 l 408 94 b 180 286 271 94 180 157 b 408 479 180 415 271 479 z m 429 586 l 401 586 b 180 754 283 586 180 621 b 305 926 180 849 224 894 l 305 1027 b 45 754 160 1020 45 925 b 183 529 45 640 100 569 b 45 286 98 481 45 401 b 408 -14 45 84 202 -14 l 423 -14 b 787 289 629 -14 787 84 b 648 529 787 401 734 481 b 787 754 732 569 787 640 b 526 1027 787 925 670 1020 l 526 926 b 651 754 608 894 651 849 b 429 586 651 621 549 586 z "},"ȧ":{"ha":0,"x_min":0,"x_max":0,"o":""},"ȩ":{"ha":0,"x_min":0,"x_max":0,"o":""},"ȫ":{"ha":0,"x_min":0,"x_max":0,"o":""},"ȭ":{"ha":0,"x_min":0,"x_max":0,"o":""},"ȯ":{"ha":21,"x_min":0,"x_max":0,"o":"m 0 770 z "},"ȱ":{"ha":0,"x_min":0,"x_max":0,"o":""},"ȳ":{"ha":0,"x_min":0,"x_max":0,"o":""},"ȸ":{"ha":432,"x_min":0,"x_max":0,"o":"m 1142 358 l 1142 372 b 854 746 1142 598 1034 746 b 666 665 774 746 712 718 l 666 982 l 532 982 l 532 665 b 514 655 532 718 486 655 b 515 749 434 655 515 718 b NaN NaN 515 805 562 NaN l NaN NaN z m NaN NaN l NaN NaN l NaN NaN l NaN NaN b NaN NaN NaN NaN NaN NaN b NaN NaN NaN NaN NaN NaN l NaN NaN b NaN NaN NaN NaN NaN NaN b NaN NaN NaN NaN NaN NaN z "},"ȹ":{"ha":432,"x_min":0,"x_max":0,"o":"m 532 -274 l 532 -140 l 873 -140 l 873 -126 b 586 248 873 100 765 248 b 393 161 503 248 439 218 l 387 239 l 275 239 l 269 161 b 252 153 269 218 222 153 b 248 243 170 153 248 215 b NaN NaN 248 296 294 NaN z m NaN NaN l NaN NaN l NaN NaN l NaN NaN b NaN NaN NaN NaN NaN NaN b NaN NaN NaN NaN NaN NaN l NaN NaN b NaN NaN NaN NaN NaN NaN b NaN NaN NaN NaN NaN NaN z "},"ȼ":{"ha":-32,"x_min":0,"x_max":0,"o":"m 673 982 l 582 982 l 484 735 b 392 746 455 742 425 746 b 58 365 191 746 58 589 b 206 41 58 222 112 104 l 80 -277 l 172 -277 l 283 3 b 395 -15 317 -9 355 -15 b 685 217 559 -15 666 85 l 568 217 b 395 90 548 136 481 90 b 323 102 369 90 345 94 l 519 598 b 568 514 545 574 561 545 l 685 514 b 562 703 674 596 629 662 z m 175 369 b 395 643 175 534 263 643 b 445 637 412 643 429 641 l 250 148 b 175 369 202 197 175 273 z "},"ȿ":{"ha":0,"x_min":0,"x_max":0,"o":"b -161 46 -78 6 -123 22 b NaN NaN -192 160 -393 NaN l NaN NaN b NaN NaN NaN NaN NaN NaN b NaN NaN NaN NaN NaN NaN l NaN NaN b NaN NaN NaN NaN NaN NaN b NaN NaN NaN NaN NaN NaN b NaN NaN NaN NaN NaN NaN b NaN NaN NaN NaN NaN NaN b NaN NaN NaN NaN NaN NaN "},"ɀ":{"ha":-51,"x_min":0,"x_max":0,"o":"m 260 107 l 231 107 l 642 646 l 642 736 l 72 736 l 72 629 l 491 629 l 491 793 b 876 517 701 793 701 517 b 1019 583 940 517 989 553 l 972 662 b 884 625 949 642 921 625 b 507 901 780 625 747 901 z "},"ɂ":{"ha":-56,"x_min":0,"x_max":0,"o":"m 81 463 l 217 463 b 359 639 217 571 267 639 b 495 461 457 639 495 563 b 358 297 495 362 458 297 l 296 297 l 296 0 l 431 0 l 431 218 b 629 468 574 241 628 339 b 362 746 628 650 526 746 b 81 463 197 746 81 644 z "},"ɇ":{"ha":1,"x_min":0,"x_max":0,"o":"m 673 982 l 582 982 l 483 735 b 392 746 453 743 422 746 b 238 726 248 746 301 632 l 112 409 l 204 409 l 315 690 b 435 671 351 677 391 671 b 730 858 587 671 695 747 l 606 858 b 435 774 578 812 523 774 b 355 786 406 774 378 778 l 446 1015 l 741 1015 l 741 1064 b 593 1387 741 1234 678 1335 z m 207 1015 l 353 1015 l 280 831 b 207 1015 236 871 210 933 z m 208 1114 b 424 1329 215 1228 296 1329 b 477 1323 442 1329 460 1326 l 394 1114 z m 485 1114 l 553 1284 b 623 1114 597 1246 623 1185 z "},"ɉ":{"ha":0,"x_min":0,"x_max":0,"o":""},"ɍ":{"ha":-281,"x_min":0,"x_max":0,"o":"m 94 0 l 210 0 l 210 309 l 365 309 l 365 399 l 210 399 l 210 464 l -127 464 l -127 311 l -217 311 l -217 464 z "},"ɏ":{"ha":-32,"x_min":0,"x_max":0,"o":"m 689 525 l 621 525 l 700 736 l 572 736 l 500 525 l 236 525 l 163 736 l 35 736 l 114 525 l 41 525 l 41 435 l 146 435 b -133 612 308 435 -133 540 b NaN 711 -133 667 -18 711 l NaN 1252 l NaN 1252 z m NaN 1252 l NaN 1252 l NaN 968 l NaN 968 z "},"ʙ":{"ha":0,"x_min":0,"x_max":0,"o":""},"ʜ":{"ha":0,"x_min":0,"x_max":0,"o":"l 1 0 l 1 117 l 737 117 l 737 0 l 421 0 l 421 -349 "},"ʫ":{"ha":193,"x_min":0,"x_max":0,"o":"m 894 107 l 473 107 l 884 646 l 884 736 l 210 736 l 210 982 l 94 982 l 94 0 l 210 0 l 210 629 l 734 629 l 734 1200 z "},"ʬ":{"ha":-181,"x_min":0,"x_max":0,"o":"m 119 962 l 15 962 l 126 575 l 513 NaN l 411 NaN l 359 NaN l 278 NaN l 193 NaN l 115 NaN z m 61 NaN l -43 NaN l 68 NaN l 453 NaN l 351 NaN l 300 NaN l 218 NaN l 133 NaN l 56 NaN z "},"ẝ":{"ha":-303,"x_min":0,"x_max":0,"o":"m 260 0 l 260 726 l 408 726 l 408 826 l 264 826 b 381 916 277 884 319 916 b 444 910 401 916 427 914 l 452 1017 b 366 1027 425 1024 395 1027 b 129 826 229 1027 143 956 l 15 826 l 15 726 l 126 726 l 126 0 z "},"ẟ":{"ha":-56,"x_min":0,"x_max":0,"o":"m 92 838 b 227 658 92 754 144 690 l 227 654 b 11 349 109 624 11 503 l 11 336 b 332 -14 11 138 129 -14 b 652 336 533 -14 652 138 l 652 349 b 373 719 652 526 567 650 b 229 840 254 762 229 806 b 347 916 229 884 270 916 b 522 879 412 916 484 894 l 522 993 b 345 1027 463 1016 412 1027 b 92 838 187 1027 92 952 z m 146 336 l 146 350 b 332 595 146 481 203 595 b 518 350 445 572 518 457 l 518 336 b 332 94 518 205 460 94 b 146 336 203 94 146 205 z "},"ỻ":{"ha":-51,"x_min":0,"x_max":0,"o":"m 680 876 l 526 876 l 526 982 l 410 982 l 410 876 l 285 876 l 285 982 l 168 982 l 168 876 l 38 876 l 38 770 l 168 770 l 168 0 l 285 0 l 285 770 l 410 770 l 410 0 l 526 0 l 526 770 l 680 770 z "},"ỽ":{"ha":-56,"x_min":0,"x_max":0,"o":"m 389 644 l 353 536 b 529 286 445 510 529 434 b 358 96 529 165 467 96 b 184 355 270 96 184 186 l 184 397 b 486 930 184 662 296 834 l 438 1029 b 49 396 167 892 49 673 l 49 359 b 359 -14 49 180 149 -14 b 662 297 559 -14 662 107 b 389 644 662 471 551 604 z "},"ỿ":{"ha":67,"x_min":0,"x_max":0,"o":"m 309 736 l 159 736 l 369 148 b 281 165 342 159 312 165 b 54 -61 157 165 54 62 b 281 -288 54 -187 157 -288 b 500 -119 395 -288 467 -222 l 788 736 l 637 736 l 473 213 l 463 251 z m 283 -167 b 182 -61 225 -167 182 -130 b 283 46 182 9 225 46 b 382 -61 339 46 382 9 b 283 -167 382 -130 339 -167 z "},"ↄ":{"ha":0,"x_min":0,"x_max":0,"o":""},"ų":{"ha":1,"x_min":0,"x_max":0,"o":"m 559 302 l 444 302 l 444 222 l 392 222 l 392 190 l 332 190 l 332 132 l 1068 132 l 1068 17 z "},"ʊ":{"ha":64,"x_min":0,"x_max":0,"o":"m 415 94 b 205 288 235 94 205 213 b 290 587 205 408 290 490 b 66 746 290 633 278 746 l 66 639 b 156 571 96 639 156 633 b 69 262 156 473 69 419 b 415 -14 69 130 140 -14 b 762 262 693 -14 762 130 b 677 571 762 419 677 473 b 765 639 677 633 735 639 l 765 746 b 541 587 552 746 541 633 b 627 288 541 490 627 408 b 415 94 627 213 595 94 z "},"ů":{"ha":0,"x_min":0,"x_max":0,"o":""},"ũ":{"ha":0,"x_min":0,"x_max":0,"o":""},"ṹ":{"ha":0,"x_min":0,"x_max":0,"o":""},"ṵ":{"ha":0,"x_min":0,"x_max":0,"o":""},"v":{"ha":-32,"x_min":0,"x_max":0,"o":""},"ṿ":{"ha":0,"x_min":0,"x_max":0,"o":""},"ʋ":{"ha":-55,"x_min":0,"x_max":0,"o":"m 355 -14 b 633 292 519 -14 633 75 l 633 543 b 496 746 633 642 624 746 b 346 718 444 746 388 731 l 362 614 b 441 625 393 621 415 625 b 499 543 480 625 499 602 l 499 292 b 355 98 499 136 438 98 b 213 292 275 98 213 136 l 213 736 l 80 736 l 80 292 b 355 -14 80 75 194 -14 z "},"ṽ":{"ha":0,"x_min":0,"x_max":0,"o":""},"ʌ":{"ha":-32,"x_min":0,"x_max":0,"o":"m 35 0 l -236 736 l -357 736 z "},"w":{"ha":313,"x_min":0,"x_max":0,"o":""},"ẃ":{"ha":0,"x_min":0,"x_max":0,"o":""},"ŵ":{"ha":0,"x_min":0,"x_max":0,"o":""},"ẅ":{"ha":0,"x_min":0,"x_max":0,"o":""},"ẇ":{"ha":0,"x_min":0,"x_max":0,"o":""},"ẉ":{"ha":0,"x_min":0,"x_max":0,"o":""},"ẁ":{"ha":0,"x_min":0,"x_max":0,"o":""},"ẘ":{"ha":0,"x_min":0,"x_max":0,"o":""},"ʍ":{"ha":313,"x_min":0,"x_max":0,"o":"m 821 736 l 704 736 l 545 175 l 534 175 l 374 736 l 259 736 l 35 0 l 157 0 l 315 559 l 323 559 l 476 0 l 601 0 l 757 562 l 764 562 l 921 0 l 1044 0 z "},"ƿ":{"ha":67,"x_min":0,"x_max":0,"o":"m 110 -274 l 245 -274 l 245 -107 b 723 349 541 -20 723 87 l 723 381 b 442 746 723 598 624 746 b 241 661 355 746 289 715 l 235 736 l 110 736 z m 245 0 l 245 544 b 401 635 276 597 326 635 b 589 381 532 635 589 519 l 589 349 b 245 0 589 151 444 54 z "},"x":{"ha":-55,"x_min":0,"x_max":0,"o":""},"ẍ":{"ha":0,"x_min":0,"x_max":0,"o":""},"ẋ":{"ha":-55,"x_min":0,"x_max":0,"o":"m 0 422 z "},"y":{"ha":-32,"x_min":0,"x_max":0,"o":""},"ý":{"ha":0,"x_min":0,"x_max":0,"o":""},"ŷ":{"ha":0,"x_min":0,"x_max":0,"o":""},"ÿ":{"ha":0,"x_min":0,"x_max":0,"o":""},"ẏ":{"ha":0,"x_min":0,"x_max":0,"o":""},"ỵ":{"ha":0,"x_min":0,"x_max":0,"o":""},"ỳ":{"ha":0,"x_min":0,"x_max":0,"o":""},"ƴ":{"ha":62,"x_min":0,"x_max":0,"o":"m 168 -277 b 388 -106 273 -277 346 -221 l 667 652 b 789 807 704 758 731 807 b 869 783 817 807 844 795 l 901 864 b 773 909 867 891 822 909 b 557 693 654 909 594 800 l 372 152 l 363 152 l 163 736 l 35 736 l 308 -5 l 286 -61 b 113 -160 247 -172 195 -182 l 84 -263 b 168 -277 96 -269 129 -277 z "},"ỷ":{"ha":0,"x_min":0,"x_max":0,"o":""},"ẙ":{"ha":0,"x_min":0,"x_max":0,"o":""},"ỹ":{"ha":0,"x_min":0,"x_max":0,"o":""},"ʎ":{"ha":-32,"x_min":0,"x_max":0,"o":"m 567 1013 b 347 842 463 1013 391 958 l 35 0 l -237 742 l -216 798 b -90 909 -176 905 -137 909 b -33 906 -72 909 -45 907 l -33 1010 b -98 1013 -47 1012 -72 1013 z "},"z":{"ha":-55,"x_min":0,"x_max":0,"o":""},"ź":{"ha":0,"x_min":0,"x_max":0,"o":""},"ƶ":{"ha":-55,"x_min":0,"x_max":0,"o":"m 72 0 l 651 0 l 651 107 l 235 107 l 235 115 l 395 326 l 568 326 l 568 415 l 464 415 l 637 644 l 637 736 l 85 736 l 85 629 l 487 629 l 487 621 l 327 415 l 144 415 l 144 326 l 258 326 l 72 88 z "},"ž":{"ha":0,"x_min":0,"x_max":0,"o":""},"ẑ":{"ha":0,"x_min":0,"x_max":0,"o":""},"ʑ":{"ha":48,"x_min":0,"x_max":0,"o":"m 369 0 l 511 0 b 798 222 723 0 798 134 b 627 378 798 313 719 378 b 312 107 514 378 435 280 l 231 107 l 642 646 l 642 736 l 72 736 l 72 629 l 491 629 l 491 785 l 444 718 l 532 656 z m 769 892 l 699 892 b 873 1053 771 997 814 1053 b 939 998 906 1053 939 1036 b 769 892 939 948 882 892 z "},"ż":{"ha":0,"x_min":0,"x_max":0,"o":""},"ẓ":{"ha":0,"x_min":0,"x_max":0,"o":""},"ȥ":{"ha":-58,"x_min":0,"x_max":0,"o":"m 559 -118 l 559 -155 l 663 -155 l 663 -88 b 465 107 663 23 591 107 l 224 107 l 635 646 l 635 736 l 66 736 l 66 629 l 484 629 l 484 1021 b 578 903 562 1021 578 964 z "},"ẕ":{"ha":0,"x_min":0,"x_max":0,"o":""},"ʐ":{"ha":21,"x_min":0,"x_max":0,"o":"m 536 0 l 536 -91 b 732 -288 536 -218 621 -288 b 798 -279 753 -288 780 -286 l 798 -180 b 761 -184 788 -184 770 -184 b 651 -91 700 -184 651 -167 l 651 107 l 235 107 l 235 115 l 235 27 z "},"ａ":{"ha":0,"x_min":0,"x_max":0,"o":""},"ｂ":{"ha":535,"x_min":0,"x_max":0,"o":"m 350 0 "},"ｃ":{"ha":535,"x_min":0,"x_max":0,"o":""},"ｄ":{"ha":535,"x_min":0,"x_max":0,"o":""},"ｅ":{"ha":535,"x_min":0,"x_max":0,"o":"m 670 -15 b 966 172 822 -15 930 61 b 1310 -205 966 -54 1097 -205 "},"ｆ":{"ha":535,"x_min":0,"x_max":0,"o":"m 841 736 l 678 736 l 678 811 l 678 711 l 560 711 l 560 613 l 678 613 l 678 -26 l 796 -26 l 796 613 l 959 613 z "},"ｇ":{"ha":0,"x_min":0,"x_max":0,"o":""},"ｈ":{"ha":535,"x_min":0,"x_max":0,"o":"m 472 442 l 472 559 l 940 559 b 689 837 940 747 840 837 b 472 712 572 837 506 788 l 463 712 l 463 1073 l 346 1073 l 346 91 l 463 91 z "},"ｉ":{"ha":535,"x_min":0,"x_max":0,"o":"m 594 0 "},"ｊ":{"ha":0,"x_min":0,"x_max":0,"o":""},"ｋ":{"ha":535,"x_min":0,"x_max":0,"o":""},"ｌ":{"ha":0,"x_min":0,"x_max":0,"o":""},"ｍ":{"ha":535,"x_min":0,"x_max":0,"o":"m 167 0 z "},"ｎ":{"ha":535,"x_min":0,"x_max":0,"o":"m 476 442 l 593 442 z "},"ｏ":{"ha":535,"x_min":0,"x_max":0,"o":""},"ｐ":{"ha":535,"x_min":0,"x_max":0,"o":"m 343 -277 l 231 -277 z m 345 -644 b 133 -1059 345 -802 273 -924 z "},"ｑ":{"ha":0,"x_min":0,"x_max":0,"o":""},"ｒ":{"ha":535,"x_min":0,"x_max":0,"o":"m 503 0 "},"ɼ":{"ha":0,"x_min":0,"x_max":0,"o":"l -265 0 l -265 277 l -264 277 l -264 741 "},"ɽ":{"ha":-265,"x_min":0,"x_max":0,"o":"m 288 -277 b 354 -270 312 -277 336 -277 l 354 -193 l 355 -193 l 355 271 z "},"ｓ":{"ha":535,"x_min":0,"x_max":0,"o":""},"ｔ":{"ha":0,"x_min":0,"x_max":0,"o":""},"ｕ":{"ha":535,"x_min":0,"x_max":0,"o":"m 827 302 l 1564 302 l 1564 187 z "},"ｖ":{"ha":0,"x_min":0,"x_max":0,"o":""},"ｗ":{"ha":535,"x_min":0,"x_max":0,"o":"m 372 0 l 488 0 l 647 562 l 658 562 l 818 0 l 933 0 l 1157 736 l 1035 736 l 878 178 l 869 178 l 716 736 l 591 736 l 435 175 l 429 175 l 271 736 l 148 736 z "},"ｘ":{"ha":0,"x_min":0,"x_max":0,"o":""},"ｙ":{"ha":0,"x_min":0,"x_max":0,"o":""},"ｚ":{"ha":535,"x_min":0,"x_max":0,"o":"m 368 0 z "},"ₔ":{"ha":-181,"x_min":0,"x_max":0,"o":"m 286 259 b 76 159 179 259 110 212 l 152 90 b 279 159 183 125 218 159 b 416 38 352 159 405 113 l 62 38 l 62 -27 b 297 -288 62 -175 142 -288 b 541 -15 416 -288 541 -189 l 541 5 b 286 259 541 153 434 259 z m 184 -69 l 184 -64 l 416 -64 b 297 -184 405 -144 363 -184 b 184 -69 220 -184 184 -136 z "},"ₐ":{"ha":0,"x_min":0,"x_max":0,"o":""},"ₑ":{"ha":0,"x_min":0,"x_max":0,"o":""},"ᵢ":{"ha":0,"x_min":0,"x_max":0,"o":""},"ⱼ":{"ha":0,"x_min":0,"x_max":0,"o":""},"ₒ":{"ha":0,"x_min":0,"x_max":0,"o":""},"ᵣ":{"ha":0,"x_min":0,"x_max":0,"o":""},"ᵤ":{"ha":0,"x_min":0,"x_max":0,"o":""},"ᵥ":{"ha":0,"x_min":0,"x_max":0,"o":""},"ₓ":{"ha":0,"x_min":0,"x_max":0,"o":""},"ǃ":{"ha":-410,"x_min":0,"x_max":0,"o":"m 244 982 l 111 982 l 121 277 l 235 277 z "},"ʔ":{"ha":-58,"x_min":0,"x_max":0,"o":"m 338 362 z "},"ǀ":{"ha":-429,"x_min":0,"x_max":0,"o":"m 221 981 l 117 981 l 117 0 l 221 0 z "},"ǁ":{"ha":-304,"x_min":0,"x_max":0,"o":"m 184 981 l 80 981 l 80 0 l 184 0 z m 363 981 l 259 981 l 259 0 l 363 0 z "},"ǂ":{"ha":-428,"x_min":0,"x_max":0,"o":"m 221 981 z "},"ƻ":{"ha":0,"x_min":0,"x_max":0,"o":"l 48 92 b 154 208 90 136 125 174 l 332 208 l 332 297 l 220 297 b 332 350 220 336 281 350 b 330 277 390 350 330 326 b NaN NaN 330 229 269 NaN l NaN NaN l NaN NaN l NaN NaN l NaN NaN l NaN NaN "},"ꟿ":{"ha":804,"x_min":0,"x_max":0,"o":"m 294 962 l 153 962 l 61 0 l 202 0 l 273 736 l 670 0 l 673 3 l 673 0 l 810 0 l 880 736 l 1276 0 l 1282 5 l 1280 0 l 1417 0 l 1510 962 l 1373 962 l 1302 222 l 902 962 l 765 962 l 694 222 z "},"ʶ":{"ha":-180,"x_min":0,"x_max":0,"o":"m 292 430 b 496 605 420 430 496 513 b 408 755 496 668 465 724 l 532 958 l 392 958 l 283 780 l 178 780 l 178 958 l 54 958 l 54 430 z m 178 532 l 178 680 l 281 680 b 374 606 347 680 374 647 b 270 532 374 566 343 532 z "},"ʵ":{"ha":-303,"x_min":0,"x_max":0,"o":"m 54 549 l 54 426 b 100 420 61 422 79 420 b 206 486 143 420 180 444 l 206 372 b 312 217 206 278 228 217 b 411 228 346 217 376 221 l 411 342 b 363 335 401 339 381 335 b 328 380 346 335 328 346 l 328 958 l 206 958 l 206 590 b 122 536 191 556 163 536 b 54 549 96 536 76 540 z "},"ʱ":{"ha":-180,"x_min":0,"x_max":0,"o":"m 203 1027 b 237 1073 203 1063 221 1073 b 285 1066 255 1073 275 1069 l 285 1177 b 184 1191 251 1185 220 1191 b 81 1035 102 1191 81 1128 l 81 430 l 203 430 l 203 800 b 296 867 220 840 250 867 b 384 742 349 867 384 834 l 384 430 l 506 430 l 506 765 b 336 967 506 907 441 967 b 203 894 279 967 234 939 z "},"ʴ":{"ha":-427,"x_min":0,"x_max":0,"o":"m 34 549 l 34 426 b 80 420 41 422 61 420 b 197 505 129 420 170 452 l 216 430 l 309 430 l 309 958 l 187 958 l 187 591 b 100 536 172 557 144 536 b 34 549 76 536 54 540 z "},"ʰ":{"ha":0,"x_min":0,"x_max":0,"o":""},"ⁱ":{"ha":0,"x_min":0,"x_max":0,"o":""},"ʲ":{"ha":0,"x_min":0,"x_max":0,"o":""},"ˡ":{"ha":-559,"x_min":0,"x_max":0,"o":"m 156 1145 l 53 1145 l 53 491 l 156 491 z "},"ⁿ":{"ha":0,"x_min":0,"x_max":0,"o":""},"ʳ":{"ha":0,"x_min":0,"x_max":0,"o":""},"ˢ":{"ha":-299,"x_min":0,"x_max":0,"o":""},"ʷ":{"ha":0,"x_min":0,"x_max":0,"o":""},"ˣ":{"ha":0,"x_min":0,"x_max":0,"o":""},"ʸ":{"ha":0,"x_min":0,"x_max":0,"o":""},"ª":{"ha":0,"x_min":0,"x_max":0,"o":""},"º":{"ha":0,"x_min":0,"x_max":0,"o":""},"А":{"ha":0,"x_min":0,"x_max":0,"o":""},"Б":{"ha":0,"x_min":0,"x_max":0,"o":""},"В":{"ha":93,"x_min":0,"x_max":0,"o":""},"Г":{"ha":0,"x_min":0,"x_max":0,"o":""},"Ѓ":{"ha":0,"x_min":0,"x_max":0,"o":""},"Ґ":{"ha":-9,"x_min":0,"x_max":0,"o":"m 109 0 l 231 0 l 231 873 l 703 873 l 703 1202 l 582 1202 l 582 982 l 109 982 z "},"Ӷ":{"ha":-9,"x_min":0,"x_max":0,"o":"m 703 982 l 109 982 l 109 0 l 229 0 l 229 -115 l 996 -115 l 996 357 z "},"Ғ":{"ha":0,"x_min":0,"x_max":0,"o":"l -9 0 l -9 463 l 313 463 l 313 935 "},"Ҕ":{"ha":56,"x_min":0,"x_max":0,"o":"m 703 982 l 109 982 l 109 0 l 231 0 l 231 439 l 369 439 l 369 301 l 696 301 l 696 773 z "},"Д":{"ha":224,"x_min":0,"x_max":0,"o":"m 24 -237 l 141 -237 l 141 0 l 829 0 l 829 -236 l 945 -236 l 945 109 l 833 109 l 833 982 l 247 982 l 225 568 b 87 109 212 286 152 167 l 24 109 z m 233 109 b 342 568 293 202 331 354 l 358 873 l 716 873 l 716 109 z "},"Е":{"ha":21,"x_min":0,"x_max":0,"o":""},"Ѐ":{"ha":0,"x_min":0,"x_max":0,"o":""},"Ё":{"ha":0,"x_min":0,"x_max":0,"o":""},"Ж":{"ha":501,"x_min":0,"x_max":0,"o":""},"З":{"ha":90,"x_min":0,"x_max":0,"o":"m 431 -14 b 773 267 627 -14 774 106 l 650 267 b 991 7 656 111 796 7 z "},"И":{"ha":230,"x_min":0,"x_max":0,"o":""},"Й":{"ha":0,"x_min":0,"x_max":0,"o":""},"Ѝ":{"ha":0,"x_min":0,"x_max":0,"o":""},"Ҋ":{"ha":0,"x_min":0,"x_max":0,"o":"l 230 0 l 230 85 l 1135 85 l 1135 -31 l 600 -798 l 592 -798 l 592 -31 "},"К":{"ha":90,"x_min":0,"x_max":0,"o":"m 686 0 l 833 0 "},"Ќ":{"ha":0,"x_min":0,"x_max":0,"o":""},"Л":{"ha":0,"x_min":0,"x_max":0,"o":"l 178 0 l 178 123 l 1160 123 l 1160 -479 l 1144 -951 b 979 -1348 1133 -1240 1101 -1348 l 950 -1350 "},"М":{"ha":417,"x_min":0,"x_max":0,"o":""},"Н":{"ha":214,"x_min":0,"x_max":0,"o":""},"О":{"ha":242,"x_min":0,"x_max":0,"o":""},"П":{"ha":0,"x_min":0,"x_max":0,"o":""},"Р":{"ha":0,"x_min":0,"x_max":0,"o":""},"С":{"ha":196,"x_min":0,"x_max":0,"o":""},"Т":{"ha":82,"x_min":0,"x_max":0,"o":""},"У":{"ha":56,"x_min":0,"x_max":0,"o":""},"Ў":{"ha":0,"x_min":0,"x_max":0,"o":""},"Ф":{"ha":286,"x_min":0,"x_max":0,"o":"m 605 865 l 589 865 l 589 1000 l 465 1000 l 465 865 l 448 865 b 71 476 228 865 71 707 b 448 88 71 245 228 88 l 465 88 l 465 -41 l 589 -41 l 589 88 l 605 88 b 982 477 823 88 982 247 b 605 865 982 708 823 865 z m 448 758 l 465 758 l 465 197 l 448 197 b 191 476 282 197 191 307 b 448 758 191 647 282 758 z m 589 197 l 589 758 l 605 758 b 860 477 770 758 860 647 b 605 197 860 307 770 197 z "},"Х":{"ha":83,"x_min":0,"x_max":0,"o":""},"Ч":{"ha":180,"x_min":0,"x_max":0,"o":""},"Ц":{"ha":226,"x_min":0,"x_max":0,"o":"m 947 115 l 844 115 l 844 982 l 727 982 l 727 111 l 224 111 l 224 982 l 109 982 l 109 0 l 807 0 l 807 -232 l 933 -232 z "},"Ш":{"ha":503,"x_min":0,"x_max":0,"o":"m 109 982 l 109 0 l 1161 0 l 1161 982 z "},"Щ":{"ha":536,"x_min":0,"x_max":0,"o":"m 1257 107 l 1161 107 l 1161 982 l 1039 982 l 1039 0 l 2055 0 l 2055 -232 l 2174 -232 z "},"Џ":{"ha":185,"x_min":0,"x_max":0,"o":"m 109 0 l 415 0 l 415 -237 l 537 -237 l 537 0 l 844 0 l 844 982 l 722 982 l 722 111 l 231 111 l 231 982 l 109 982 z "},"Ь":{"ha":96,"x_min":0,"x_max":0,"o":"m 476 571 "},"Ы":{"ha":0,"x_min":0,"x_max":0,"o":""},"Ъ":{"ha":313,"x_min":0,"x_max":0,"o":"m 54 875 l 324 875 l 324 0 l -68 0 "},"Љ":{"ha":676,"x_min":0,"x_max":0,"o":"m 16 0 l 53 0 b 328 486 270 0 313 149 l 346 873 l 688 873 l 688 0 l 104 0 l 87 -472 b -79 -869 76 -800 27 -869 l -106 -869 "},"Њ":{"ha":739,"x_min":0,"x_max":0,"o":"m 109 0 l 231 0 l 231 464 l 751 464 l 751 0 l 629 0 l 629 -411 l 109 -411 l 109 0 l -14 0 "},"Ѕ":{"ha":77,"x_min":0,"x_max":0,"o":""},"Є":{"ha":112,"x_min":0,"x_max":0,"o":"m 449 -14 b 817 308 656 -14 804 109 l 689 308 b 449 98 678 178 571 98 b 191 429 300 98 193 235 l 578 429 l 578 540 l 191 540 b 461 883 196 741 306 883 b 689 670 578 883 680 802 l 817 670 b 461 996 806 873 662 996 b 71 525 232 996 71 800 l 71 434 b 449 -14 71 172 227 -14 z "},"Э":{"ha":119,"x_min":0,"x_max":0,"o":""},"І":{"ha":-428,"x_min":0,"x_max":0,"o":""},"Ї":{"ha":0,"x_min":0,"x_max":0,"o":""},"Ј":{"ha":0,"x_min":0,"x_max":0,"o":""},"Ћ":{"ha":420,"x_min":0,"x_max":0,"o":"m 802 982 l 54 982 l 54 873 l 350 873 l 350 0 l 472 0 l 472 477 b 741 515 554 501 644 515 b 948 328 869 515 948 472 l 948 0 l 1070 0 l 1070 328 b 741 627 1070 545 947 627 b 472 587 625 627 551 611 l 472 873 l 802 873 z "},"Ю":{"ha":581,"x_min":0,"x_max":0,"o":"m 231 982 l 658 982 l 658 1164 b 1089 723 681 890 854 723 b 1217 666 1400 723 1217 917 b 755 233 1217 426 1040 250 l 575 233 z m 1504 190 z "},"Я":{"ha":120,"x_min":0,"x_max":0,"o":"m 779 0 l 779 982 l 445 982 b 110 680 214 982 110 854 b 293 404 110 550 168 448 l 72 0 l 214 0 l 420 382 l 444 381 l 656 381 l 656 0 z m 231 680 b 450 873 231 798 293 873 l 656 873 l 656 492 l 449 492 b 231 680 293 492 231 563 z "},"Ђ":{"ha":307,"x_min":0,"x_max":0,"o":"m 795 982 l 54 982 l 54 873 l 363 873 l 363 0 l 487 0 l 487 456 b 669 481 545 472 610 481 b 892 286 808 481 892 408 b 680 100 892 170 812 100 l 682 -8 b 1016 288 891 -8 1016 104 b 670 589 1016 476 883 589 b 487 560 615 589 550 578 l 487 873 l 795 873 z "},"Ѡ":{"ha":417,"x_min":0,"x_max":0,"o":"m 109 263 b 376 -14 109 77 221 -14 b 591 80 467 -14 544 18 l 591 18 l 636 18 l 636 90 l 1355 90 l 1355 -34 l 636 -34 b 480 -199 636 -145 563 -199 b 338 -34 397 -199 338 -145 l 338 685 l 214 685 l 214 -34 b 60 -199 214 -145 151 -199 b -85 -34 -16 -199 -85 -145 l -85 685 l -208 685 z "},"Ѣ":{"ha":0,"x_min":0,"x_max":0,"o":""},"Ѥ":{"ha":498,"x_min":0,"x_max":0,"o":"m 869 553 l 494 553 b 807 882 515 767 646 882 b 1081 674 936 882 1053 810 l 1203 675 b 807 996 1165 876 1004 996 b 376 553 572 996 398 827 l 231 553 l 231 982 l 675 982 l 675 1126 b 1108 667 692 842 869 667 b 1504 987 1305 667 1466 787 l 1381 989 b 1108 781 1352 853 1237 781 b 793 1126 943 781 810 902 l 1171 1126 z "},"Ѧ":{"ha":68,"x_min":0,"x_max":0,"o":"m 680 0 l 823 0 l 483 982 l 359 982 l 15 0 l 157 0 l 254 286 l 347 286 l 347 0 l 481 0 l 481 286 l 586 286 z m 292 400 l 422 785 l 548 400 z "},"Ѩ":{"ha":440,"x_min":0,"x_max":0,"o":"m 191 982 l 68 982 l 68 0 l 191 0 l 191 286 l 416 286 l 316 0 l 458 0 l 555 286 l 648 286 l 648 0 l 783 0 l 783 286 l 887 286 l 981 0 l 1124 0 l 784 982 l 661 982 l 457 400 l 191 400 z m 593 400 l 723 785 l 849 400 z "},"Ѫ":{"ha":313,"x_min":0,"x_max":0,"o":"m 53 243 l 28 243 b -297 -56 -178 243 -297 160 z m 4 570 l 388 570 l 195 243 z "},"Ѭ":{"ha":809,"x_min":0,"x_max":0,"o":"m 117 0 l 239 0 l 239 427 l 486 427 b 439 243 455 382 439 321 l -111 243 l -111 684 l -233 684 z m 391 570 l 774 570 l 582 243 z "},"Ѯ":{"ha":-55,"x_min":0,"x_max":0,"o":"m 309 982 l 110 982 l 110 873 l 309 873 b 490 719 433 873 490 814 b 297 557 490 627 434 557 l 202 557 l 202 449 l 297 449 b 506 273 431 449 506 388 b 326 95 506 164 439 95 l 297 95 b 72 -75 161 95 72 39 b 251 -296 72 -191 164 -259 l 305 -208 b 199 -87 266 -190 199 -156 b 293 -14 199 -45 227 -14 l 326 -14 b 642 269 510 -14 642 90 b 464 506 642 389 578 469 b 625 728 565 546 625 626 b 309 982 625 883 492 982 z m 273 1259 l 273 1164 l 264 1164 l 264 1172 l 168 1172 l 53 1058 z "},"Ѱ":{"ha":0,"x_min":0,"x_max":0,"o":""},"Ѳ":{"ha":0,"x_min":0,"x_max":0,"o":""},"Ѵ":{"ha":161,"x_min":0,"x_max":0,"o":""},"Ѷ":{"ha":0,"x_min":0,"x_max":0,"o":""},"Ѹ":{"ha":0,"x_min":0,"x_max":0,"o":""},"Җ":{"ha":-251,"x_min":0,"x_max":0,"o":"l 501 0 l 501 58 l 401 58 "},"Ҙ":{"ha":90,"x_min":0,"x_max":0,"o":"m 90 247 l 96 104 l 214 4 l 385 -11 l 369 -90 l 392 82 b 670 NaN 410 206 522 205 z "},"Қ":{"ha":144,"x_min":0,"x_max":0,"o":"m 686 0 l 742 0 l 742 -237 l 859 -237 l 859 107 l 746 107 "},"Ҝ":{"ha":105,"x_min":0,"x_max":0,"o":"m 309 708 l 309 543 l 231 543 l 231 982 l 109 982 l 109 0 l 231 0 l 231 426 l 309 426 l 309 270 l 416 270 l 416 426 l 469 426 l 711 0 l 848 0 l 571 492 l 830 982 l 688 982 l 461 543 l 416 543 l 416 708 z "},"Ҡ":{"ha":224,"x_min":0,"x_max":0,"o":"m 365 982 l 1 982 l 1 875 l 243 875 l 243 0 l 365 0 l 365 450 l 454 450 l 821 0 l 967 0 l 557 0 l 557 503 z "},"Ң":{"ha":256,"x_min":0,"x_max":0,"o":"m 109 0 l 231 0 l 231 438 l 750 438 l 750 0 l 860 0 l 860 -103 l 1735 -103 l 1735 -227 z "},"Ҥ":{"ha":545,"x_min":0,"x_max":0,"o":"m 1257 982 l 750 982 l 750 0 l 872 0 l 872 438 l 1392 438 l 1392 0 l 1515 0 l 1515 873 l 1899 873 z "},"Ҧ":{"ha":680,"x_min":0,"x_max":0,"o":"m 808 982 l 72 982 l 72 0 l 194 0 l 194 873 l 685 873 l 685 0 l 808 0 l 808 439 l 947 439 l 947 301 z "},"Ҩ":{"ha":314,"x_min":0,"x_max":0,"o":"m 982 -19 l 982 96 b 840 113 930 96 882 102 b 974 450 924 196 974 315 l 974 631 b 700 996 974 844 864 996 b 425 633 536 996 425 838 l 425 465 b 586 110 425 319 483 195 b 513 103 562 105 538 103 b 221 445 343 103 221 251 l 221 581 b 404 879 221 751 301 879 l 404 997 b 99 578 221 997 99 815 l 99 445 b 513 -14 99 186 264 -14 b 719 30 589 -14 659 2 b 982 -19 795 -2 884 -19 z m 547 464 l 547 635 b 700 879 547 776 617 879 b 852 633 784 879 852 781 l 852 450 b 711 163 852 328 799 224 b 547 464 606 226 547 331 z "},"Ҫ":{"ha":0,"x_min":0,"x_max":0,"o":""},"Ҭ":{"ha":82,"x_min":0,"x_max":0,"o":"m 54 873 l 363 873 l 363 0 l 484 0 l 484 -114 l 1251 -114 l 1251 194 l 1359 194 l 1359 -547 z "},"Ү":{"ha":113,"x_min":0,"x_max":0,"o":""},"Ұ":{"ha":113,"x_min":0,"x_max":0,"o":"m 24 982 l 358 437 l 229 437 l 229 347 l 378 347 l 378 0 l 502 0 l 502 347 l 654 347 l 654 437 l 524 437 "},"Ҳ":{"ha":0,"x_min":0,"x_max":0,"o":"l 83 0 l 83 -237 l 200 -237 l 200 107 l 96 107 "},"Ҵ":{"ha":429,"x_min":0,"x_max":0,"o":"m 685 982 l 54 982 l 54 875 l 312 875 l 312 0 l 1010 0 l 1010 -232 l 1137 -232 l 1150 115 l 1047 115 l 1047 982 l 930 982 l 930 111 l 427 111 l 427 875 l 685 875 z "},"Ҷ":{"ha":0,"x_min":0,"x_max":0,"o":""},"Ҹ":{"ha":180,"x_min":0,"x_max":0,"o":"m 515 670 l 408 670 l 408 468 b 240 654 303 477 240 526 l 240 982 l 118 982 l 118 654 b 408 357 118 451 226 367 l 408 205 l 515 205 l 515 358 b 716 396 595 362 654 376 l 716 0 l 838 0 l 838 982 l 716 982 l 716 506 b 515 469 653 487 587 474 z "},"Һ":{"ha":180,"x_min":0,"x_max":0,"o":"m 829 0 l 829 328 b 499 627 829 545 705 627 b 231 587 384 627 310 611 l 231 982 l 708 982 b 977 1020 790 1006 880 1020 b 1184 833 1105 1020 1184 977 l 1184 505 z "},"Ҽ":{"ha":0,"x_min":0,"x_max":0,"o":"b -416 469 0 313 -259 469 b -58 589 -160 469 -58 566 b NaN NaN -58 629 -3 NaN l NaN NaN "},"Ҿ":{"ha":0,"x_min":0,"x_max":0,"o":"b -380 436 0 313 -231 436 b -203 NaN -173 436 -203 NaN l -203 NaN l -87 NaN l -87 NaN b 133 NaN 2 NaN 84 NaN l 102 NaN "},"Ӏ":{"ha":-428,"x_min":0,"x_max":0,"o":""},"Ӂ":{"ha":0,"x_min":0,"x_max":0,"o":""},"Ӄ":{"ha":132,"x_min":0,"x_max":0,"o":"m 231 445 l 422 445 b 697 165 593 445 697 339 b 496 -90 697 8 621 -90 l 499 -198 b 819 167 699 -198 819 -60 b 477 549 819 389 692 530 l 833 982 l 680 982 l 342 553 l 231 553 l 231 982 z "},"Ӆ":{"ha":0,"x_min":0,"x_max":0,"o":"l 178 0 l 178 84 l 66 84 l 66 989 l -536 989 l -553 517 b -718 119 -564 228 -596 119 l -747 118 "},"Ӈ":{"ha":214,"x_min":0,"x_max":0,"o":"m 749 0 l 749 -75 b 643 -175 749 -152 704 -175 b 606 -171 629 -175 616 -172 l 606 -271 b 671 -277 623 -277 648 -277 b 872 -77 785 -277 872 -202 l 872 0 l 873 0 l 873 982 l 750 982 l 750 0 l 872 0 l 872 438 l 1392 438 l 1392 0 z "},"Ӊ":{"ha":267,"x_min":0,"x_max":0,"o":"m 109 0 l 231 0 l 231 438 l 750 438 l 750 0 l 836 0 l 836 -114 l 1740 -114 l 1740 -237 z "},"Ӌ":{"ha":0,"x_min":0,"x_max":0,"o":""},"Ӎ":{"ha":0,"x_min":0,"x_max":0,"o":"l 417 0 l 417 109 l 496 109 l 1400 109 l 1400 -38 l 1069 -846 l 1057 -846 l 726 -38 "},"Ӑ":{"ha":0,"x_min":0,"x_max":0,"o":""},"Ӓ":{"ha":0,"x_min":0,"x_max":0,"o":""},"Ӕ":{"ha":0,"x_min":0,"x_max":0,"o":""},"Ӗ":{"ha":0,"x_min":0,"x_max":0,"o":""},"Ә":{"ha":0,"x_min":0,"x_max":0,"o":""},"Ӛ":{"ha":0,"x_min":0,"x_max":0,"o":""},"Ӝ":{"ha":0,"x_min":0,"x_max":0,"o":""},"Ӟ":{"ha":90,"x_min":0,"x_max":0,"o":"m 431 -14 b 773 267 627 -14 774 106 l 650 267 b 991 7 656 111 796 7 "},"Ӡ":{"ha":0,"x_min":0,"x_max":0,"o":""},"Ӣ":{"ha":0,"x_min":0,"x_max":0,"o":""},"Ӥ":{"ha":0,"x_min":0,"x_max":0,"o":""},"Ӧ":{"ha":0,"x_min":0,"x_max":0,"o":""},"Ө":{"ha":0,"x_min":0,"x_max":0,"o":""},"Ӫ":{"ha":0,"x_min":0,"x_max":0,"o":""},"Ӭ":{"ha":0,"x_min":0,"x_max":0,"o":""},"Ӯ":{"ha":0,"x_min":0,"x_max":0,"o":""},"Ӱ":{"ha":0,"x_min":0,"x_max":0,"o":""},"Ӳ":{"ha":0,"x_min":0,"x_max":0,"o":""},"Ӵ":{"ha":0,"x_min":0,"x_max":0,"o":""},"Ӹ":{"ha":333,"x_min":0,"x_max":0,"o":"m -488 -956 l -488 -1538 l 574 -1538 l 574 -1180 l 819 -1180 "},"Ӻ":{"ha":0,"x_min":0,"x_max":0,"o":"l -9 0 l -9 -57 l -9 -174 l 348 -174 l 348 -22 l 437 -22 l 437 -174 l 759 -174 l 759 298 "},"Ӽ":{"ha":0,"x_min":0,"x_max":0,"o":"l 83 0 l 83 -57 l 83 -161 "},"Ӿ":{"ha":83,"x_min":0,"x_max":0,"o":"m 171 982 l 26 982 l 312 537 l 213 537 l 213 448 l 315 448 l 26 0 l -255 448 l -160 448 l -160 537 l -252 537 l 26 982 l -118 982 l -369 576 l -377 576 z "},"Ҁ":{"ha":64,"x_min":0,"x_max":0,"o":"m 505 98 l 420 98 b 191 392 285 98 191 218 l 191 590 b 427 883 191 770 279 883 b 640 673 555 883 640 800 l 779 673 b 429 996 779 865 636 996 b 53 589 202 996 53 834 l 53 392 b 365 -9 53 177 179 17 l 365 -252 l 505 -252 z "},"Ҍ":{"ha":0,"x_min":0,"x_max":0,"o":""},"Ҏ":{"ha":73,"x_min":0,"x_max":0,"o":"m 532 632 l 444 576 l 511 473 b 438 465 490 468 465 465 l 231 465 l 231 873 l 437 873 b 656 670 594 873 656 788 b 605 522 656 611 640 559 z m 109 0 l 231 0 l 231 357 l 444 357 b 575 376 493 357 537 363 l 646 267 l 734 324 l 669 423 b 777 670 743 481 777 570 l 444 670 z "},"а":{"ha":0,"x_min":0,"x_max":0,"o":""},"б":{"ha":12,"x_min":0,"x_max":0,"o":"m 700 941 l 643 1013 b 397 982 594 972 515 986 b 58 476 172 977 58 806 l 58 399 b 391 -15 58 126 191 -15 b 719 358 589 -15 719 127 b 415 712 719 590 587 712 b 168 578 312 712 218 670 l 159 578 b 400 873 175 768 245 868 b 700 941 536 879 633 876 z m 391 88 b 175 358 258 88 175 195 b 388 609 179 518 258 609 b 602 358 522 609 602 518 b 391 88 602 194 522 88 z "},"в":{"ha":0,"x_min":0,"x_max":0,"o":""},"г":{"ha":-166,"x_min":0,"x_max":0,"o":""},"ѓ":{"ha":0,"x_min":0,"x_max":0,"o":""},"ґ":{"ha":-165,"x_min":0,"x_max":0,"o":"m 552 918 l 435 918 l 435 736 l 94 736 l 94 0 l 210 0 l 210 629 l 552 629 z "},"ӷ":{"ha":-166,"x_min":0,"x_max":0,"o":"m 549 736 l 94 736 l 94 0 l 209 0 l 209 -241 l 326 -241 l 326 103 l 210 103 l 210 629 l 549 629 z "},"ғ":{"ha":0,"x_min":0,"x_max":0,"o":"l -166 0 l -166 117 l 159 117 l 159 271 l 249 271 l 249 117 l 463 117 l 463 456 "},"ҕ":{"ha":-56,"x_min":0,"x_max":0,"o":"m 549 736 l 94 736 l 94 0 l 210 0 l 210 320 l 300 320 b 519 113 429 320 519 235 b 353 -87 519 22 450 -61 l 381 -189 b 637 113 532 -161 637 -37 b 300 429 637 300 496 429 l 210 429 l 210 629 l 549 629 z "},"д":{"ha":56,"x_min":0,"x_max":0,"o":"m 15 -212 l 132 -212 l 132 0 l 673 0 l 673 -212 l 788 -212 l 788 107 l 675 107 l 675 736 l 203 736 l 179 448 b 76 107 161 244 136 168 l 15 107 z m 208 107 b 293 448 259 175 277 293 l 312 629 l 559 629 l 559 107 z "},"е":{"ha":0,"x_min":0,"x_max":0,"o":""},"ѐ":{"ha":0,"x_min":0,"x_max":0,"o":"l 1 0 l 1 -66 l 852 -66 l 852 -202 "},"ё":{"ha":0,"x_min":0,"x_max":0,"o":""},"ж":{"ha":333,"x_min":0,"x_max":0,"o":""},"з":{"ha":-119,"x_min":0,"x_max":0,"o":""},"и":{"ha":21,"x_min":0,"x_max":0,"o":""},"й":{"ha":0,"x_min":0,"x_max":0,"o":""},"ҋ":{"ha":0,"x_min":0,"x_max":0,"o":"l 0 89 l 80 89 l 739 89 l 739 -44 "},"ѝ":{"ha":0,"x_min":0,"x_max":0,"o":""},"к":{"ha":-58,"x_min":0,"x_max":0,"o":""},"ќ":{"ha":0,"x_min":0,"x_max":0,"o":""},"л":{"ha":0,"x_min":0,"x_max":0,"o":"l 10 0 l 10 736 l -484 736 l -484 711 "},"м":{"ha":0,"x_min":0,"x_max":0,"o":"l 0 227 l 117 227 l 117 964 l -34 964 "},"н":{"ha":0,"x_min":0,"x_max":0,"o":"l 1 0 l 1 117 l 737 117 l 737 0 l 421 0 l 421 -349 "},"о":{"ha":21,"x_min":0,"x_max":0,"o":""},"п":{"ha":0,"x_min":0,"x_max":0,"o":"l 1 0 l 1 736 l -581 736 "},"р":{"ha":37,"x_min":0,"x_max":0,"o":""},"с":{"ha":-32,"x_min":0,"x_max":0,"o":""},"т":{"ha":-64,"x_min":0,"x_max":0,"o":"m 50 629 l 294 629 l 294 0 l 411 0 l 411 629 l 652 629 l 652 736 l 50 736 z "},"у":{"ha":-32,"x_min":0,"x_max":0,"o":""},"ў":{"ha":0,"x_min":0,"x_max":0,"o":""},"ф":{"ha":139,"x_min":0,"x_max":0,"o":"m 395 -251 l 511 -251 l 511 -15 b 511 NaN 712 -15 511 NaN l 511 NaN l 395 NaN l 395 NaN z m 395 NaN b 175 NaN 244 NaN 175 NaN b 395 NaN 175 NaN 244 NaN z m 511 NaN l 511 NaN b 730 NaN 662 NaN 730 NaN b 511 NaN 730 NaN 662 NaN z "},"х":{"ha":-55,"x_min":0,"x_max":0,"o":""},"ч":{"ha":-10,"x_min":0,"x_max":0,"o":""},"ц":{"ha":0,"x_min":0,"x_max":0,"o":"l 59 0 l 59 571 l -47 571 "},"ш":{"ha":319,"x_min":0,"x_max":0,"o":"m 94 736 l 94 0 l 994 0 l 994 736 z "},"щ":{"ha":383,"x_min":0,"x_max":0,"o":"m 1104 107 l 994 107 l 994 736 l 878 736 l 878 0 l 1755 0 l 1755 -212 l 1874 -212 z "},"џ":{"ha":0,"x_min":0,"x_max":0,"o":"l 1 0 l 1 233 l -235 233 l -235 350 l 1 350 l 1 582 "},"ь":{"ha":0,"x_min":0,"x_max":0,"o":""},"ы":{"ha":0,"x_min":0,"x_max":0,"o":""},"ъ":{"ha":100,"x_min":0,"x_max":0,"o":"m 228 736 l 24 736 l 24 629 l 228 629 "},"љ":{"ha":463,"x_min":0,"x_max":0,"o":"m 50 0 l 90 0 b 313 368 254 0 300 126 l 326 629 l 591 629 l 591 736 l 213 736 l 213 709 "},"њ":{"ha":429,"x_min":0,"x_max":0,"o":"m 94 0 b 553 5 210 0 553 349 b NaN NaN 553 84 380 NaN l NaN NaN l NaN NaN l NaN NaN l NaN NaN l NaN NaN l NaN NaN l NaN NaN z m NaN NaN l NaN NaN l NaN NaN b NaN NaN NaN NaN NaN NaN b NaN NaN NaN NaN NaN NaN z "},"ѕ":{"ha":-78,"x_min":0,"x_max":0,"o":""},"є":{"ha":-56,"x_min":0,"x_max":0,"o":"m 393 410 l 130 410 b 346 642 142 551 226 642 b 519 514 444 642 503 582 l 637 515 b 343 746 617 654 499 746 b 11 369 142 746 11 589 b 346 -15 11 142 140 -15 b 637 214 509 -15 617 84 l 519 217 b 346 90 499 137 434 90 b 133 302 230 90 152 171 l 393 302 z "},"э":{"ha":-55,"x_min":0,"x_max":0,"o":""},"і":{"ha":-465,"x_min":0,"x_max":0,"o":""},"ї":{"ha":0,"x_min":0,"x_max":0,"o":""},"ј":{"ha":0,"x_min":0,"x_max":0,"o":""},"ћ":{"ha":0,"x_min":0,"x_max":0,"o":""},"ю":{"ha":311,"x_min":0,"x_max":0,"o":"m 156 736 l 464 736 l 464 922 b 795 600 485 726 612 600 b 795 286 996 600 795 415 b NaN 138 795 156 594 138 l NaN 138 z m NaN -187 b NaN 88 NaN -187 NaN -58 b NaN 365 NaN 235 NaN 365 b NaN 88 NaN 365 NaN 235 b NaN -187 NaN -58 NaN -187 z "},"я":{"ha":-28,"x_min":0,"x_max":0,"o":"m 536 0 l 646 0 l 646 736 l 342 736 b 84 517 182 736 84 654 b 224 315 84 416 135 345 l 45 0 l 171 0 l 340 298 l 536 298 z m 201 517 b 342 631 201 587 254 631 l 536 631 l 536 404 l 330 404 b 201 517 248 404 201 448 z "},"ђ":{"ha":14,"x_min":0,"x_max":0,"o":"m 570 0 l 570 -77 b 463 -175 570 -153 524 -175 b 426 -172 449 -175 435 -174 l 426 -270 l 419 -270 l 419 -252 l 444 -252 l 444 190 z "},"ѡ":{"ha":296,"x_min":0,"x_max":0,"o":"m 94 233 b 334 -14 94 68 195 -14 b 532 79 418 -14 490 18 b 719 -14 571 18 637 -14 b 971 233 863 -14 971 68 l 971 736 l 853 736 l 853 233 b 719 94 853 140 787 94 b 591 233 647 94 591 140 l 591 736 l 475 736 l 475 233 b 334 94 475 140 408 94 b 210 233 273 94 210 140 l 210 736 l 94 736 z "},"ѣ":{"ha":1,"x_min":0,"x_max":0,"o":"m 473 827 l 247 827 l 247 1103 l 130 1103 l 130 827 l 3 827 l 3 722 l 130 722 l 130 0 l 380 0 l 380 227 "},"ѥ":{"ha":314,"x_min":0,"x_max":0,"o":"m 734 408 l 444 408 b 658 642 455 550 537 642 b 834 514 757 642 815 582 l 949 515 b 656 746 929 654 812 746 b 324 408 468 746 339 607 l 183 408 l 183 736 l 486 736 l 486 880 b 817 563 509 690 631 563 b 1108 792 979 563 1088 662 l 991 795 b 817 667 971 715 905 667 b 605 880 702 667 623 749 l 892 880 z "},"ѧ":{"ha":-56,"x_min":0,"x_max":0,"o":"m 339 496 l 354 551 l 368 496 l 449 296 l 260 296 z m 567 0 l 704 0 l 412 715 l 296 715 l 7 0 l 144 0 l 218 189 l 292 189 l 292 0 l 422 0 l 422 189 l 491 189 z "},"ѩ":{"ha":241,"x_min":0,"x_max":0,"o":"m 837 0 l 971 0 l 680 736 l 563 736 l 391 296 l 198 296 l 198 736 l 81 736 l 81 0 l 198 0 l 198 189 l 349 189 l 274 0 l 408 0 l 480 189 l 564 189 l 564 0 l 677 0 l 677 189 l 765 189 z m 519 296 l 604 518 l 621 579 l 637 518 l 723 296 z "},"ѫ":{"ha":189,"x_min":0,"x_max":0,"o":"m 209 0 l 209 106 b 372 292 209 252 262 292 l 414 292 l 414 290 l 414 0 l 549 0 l 549 286 l 553 292 l 585 292 b 747 106 694 292 747 252 l 747 0 l 883 0 l 883 106 b 616 399 883 308 783 389 l 815 736 l 148 736 l 350 399 b 73 106 176 392 73 311 l 73 0 z m 358 631 l 606 631 l 483 401 z "},"ѭ":{"ha":561,"x_min":0,"x_max":0,"o":"m 202 736 l 495 736 l 495 983 b 449 796 465 938 449 877 l 449 690 l 585 690 l 585 796 b 747 982 585 943 637 982 l 788 982 l 788 981 l 788 690 l 924 690 l 924 977 l 928 982 l 960 982 b 1122 796 1069 982 1122 943 l 1122 690 l 1257 690 l 1257 796 b 990 1089 1257 998 1157 1080 l 1191 1427 l 522 1427 l 723 1089 l 248 1089 z m 732 1321 l 982 1321 l 857 1090 z "},"ѯ":{"ha":-159,"x_min":0,"x_max":0,"o":"m 235 736 l 37 736 l 37 629 l 235 629 b 389 536 336 629 389 597 b 222 427 389 468 327 427 l 127 427 l 127 323 l 222 323 b 406 208 346 323 406 281 b 252 94 406 133 349 94 l 224 94 b -1 -79 77 94 -1 34 b 176 -296 0 -165 68 -247 l 231 -208 b 126 -87 163 -176 126 -136 b 221 -14 126 -38 159 -14 l 254 -14 b 541 212 431 -14 541 84 b 403 381 541 298 493 353 b 525 543 479 414 525 471 b 235 736 525 658 407 736 z m 152 1013 l 152 918 l 145 918 l 145 925 l 50 925 l -66 811 z "},"ѱ":{"ha":0,"x_min":0,"x_max":0,"o":""},"ѳ":{"ha":0,"x_min":0,"x_max":0,"o":""},"ѵ":{"ha":31,"x_min":0,"x_max":0,"o":""},"ѷ":{"ha":0,"x_min":0,"x_max":0,"o":""},"ѹ":{"ha":0,"x_min":0,"x_max":0,"o":""},"җ":{"ha":-216,"x_min":0,"x_max":0,"o":"l 333 0 l 333 61 l 216 61 l 216 54 "},"ҙ":{"ha":-119,"x_min":0,"x_max":0,"o":"m 171 189 l 47 189 l 50 81 l 142 5 l 273 -11 l 256 -90 l 278 NaN b 515 NaN 418 NaN 515 NaN b 376 NaN 515 NaN 460 NaN z "},"қ":{"ha":5,"x_min":0,"x_max":0,"o":"m 94 0 l 210 0 l 210 309 l 298 309 l 549 0 l 608 0 l 608 -113 l 396 142 l 692 517 l 543 517 l 293 198 l 206 198 l 206 517 l 90 517 z "},"ҝ":{"ha":-1,"x_min":0,"x_max":0,"o":"m 94 0 l 210 0 l 210 309 l 279 309 l 279 175 l 384 175 l 384 309 l 431 309 l 624 0 l 758 0 l 515 381 l 754 736 l 620 736 l 410 418 l 384 418 l 384 552 l 279 552 l 279 418 l 210 418 l 210 736 l 94 736 z "},"ҡ":{"ha":165,"x_min":0,"x_max":0,"o":"m 434 736 l 50 736 l 50 629 l 317 629 l 317 0 z "},"ң":{"ha":0,"x_min":0,"x_max":0,"o":"l 67 0 l 67 113 l -45 113 l -45 742 l -162 742 l -162 426 l -511 426 "},"ҥ":{"ha":204,"x_min":0,"x_max":0,"o":"m 941 736 l 559 736 l 559 420 l 210 420 l 210 736 l 524 736 l 524 1085 l 210 1085 l 210 1202 l 840 1202 l 840 1468 z "},"ҧ":{"ha":0,"x_min":0,"x_max":0,"o":"l 458 0 l 458 320 l 596 320 b 832 113 724 320 832 241 b 657 -85 832 20 775 -54 l 694 -189 b 949 113 880 -155 949 15 b 596 429 949 309 800 429 l 458 429 l 458 736 l -124 736 "},"ҩ":{"ha":68,"x_min":0,"x_max":0,"o":"m 777 -8 l 777 98 b 661 111 734 98 695 102 b 742 362 712 177 742 264 l 742 450 b 530 746 742 617 662 746 b 319 464 400 746 319 629 l 319 378 b 445 100 319 268 363 170 b 389 94 427 96 408 94 b 178 377 270 94 178 220 l 178 431 b 296 637 178 548 233 636 l 296 745 b 61 431 156 745 61 610 l 61 377 b 389 -14 61 156 193 -14 b 563 30 454 -14 513 2 b 777 -8 625 5 696 -8 z m 433 376 l 433 467 b 529 637 433 567 473 637 b 627 453 586 637 627 562 l 627 363 b 549 160 627 281 597 209 b 433 376 475 210 433 286 z "},"ҫ":{"ha":0,"x_min":0,"x_max":0,"o":""},"ҭ":{"ha":-64,"x_min":0,"x_max":0,"o":"m 50 629 l 294 629 l 294 0 l 411 0 l 411 -241 l 528 -241 l 528 103 l 411 103 l 411 629 l 652 629 l 652 736 l 50 736 z "},"ү":{"ha":0,"x_min":0,"x_max":0,"o":""},"ұ":{"ha":-64,"x_min":0,"x_max":0,"o":"m 35 736 l 269 90 l 141 90 l 141 0 l 294 0 l 294 -277 l 411 -277 l 411 0 l 566 0 l 566 90 l 438 90 "},"ҳ":{"ha":0,"x_min":0,"x_max":0,"o":"l -55 0 l -55 182 l 682 182 l 682 239 l 572 239 l 404 500 l 641 868 l 507 868 l 332 568 "},"ҵ":{"ha":176,"x_min":0,"x_max":0,"o":"m 519 736 l 50 736 l 50 629 l 225 629 l 225 0 l 764 0 l 764 -212 l 883 -212 l 897 107 l 807 107 l 807 736 l 690 736 l 690 107 l 342 107 l 342 629 l 519 629 z "},"ҷ":{"ha":0,"x_min":0,"x_max":0,"o":"l 0 58 l 114 58 l 114 -184 l 231 -184 l 231 161 l 115 161 "},"ҹ":{"ha":-10,"x_min":0,"x_max":0,"o":"m 430 525 l 323 525 l 323 345 b 210 502 256 360 210 410 l 210 739 l 94 739 l 94 502 b 323 233 94 340 182 250 l 323 149 l 430 149 l 430 233 b 548 256 473 237 511 245 l 548 0 l 663 0 l 663 736 l 548 736 l 548 365 b 430 342 510 353 472 345 z "},"һ":{"ha":14,"x_min":0,"x_max":0,"o":""},"ҽ":{"ha":0,"x_min":0,"x_max":0,"o":"b 121 12 200 0 -8 12 b NaN NaN -16 12 187 NaN b NaN NaN NaN NaN NaN NaN b NaN NaN NaN NaN NaN NaN b NaN NaN NaN NaN NaN NaN "},"ҿ":{"ha":0,"x_min":0,"x_max":0,"o":"l 200 10 l 16 112 l -112 275 l -139 259 l -219 279 b 51 465 -81 287 18 360 b -265 134 51 285 -75 158 b -397 273 -359 136 -397 187 "},"ӏ":{"ha":-428,"x_min":0,"x_max":0,"o":""},"ӂ":{"ha":0,"x_min":0,"x_max":0,"o":""},"ӄ":{"ha":2,"x_min":0,"x_max":0,"o":"m 94 0 l 210 0 l 210 309 l 359 309 b 597 118 499 309 597 231 b 427 -75 597 30 526 -50 l 457 -171 b 711 118 606 -145 711 -24 b 427 412 711 273 597 388 l 696 736 l 547 736 l 283 418 l 210 418 l 210 736 l 94 736 z "},"ӆ":{"ha":0,"x_min":0,"x_max":0,"o":"l 79 0 l 79 80 l -37 80 l -37 739 l -531 739 l -531 713 "},"ӈ":{"ha":1,"x_min":0,"x_max":0,"o":"m 674 -58 l 674 0 l 675 0 l 675 736 l 559 736 l 559 420 l 210 420 l 210 736 l 524 736 l 524 1085 l 210 1085 l 210 1084 l 152 1084 b 52 962 152 1008 103 962 b -14 970 38 962 -1 963 l -24 864 b 52 854 3 856 24 854 b 269 1084 187 854 269 935 z "},"ӊ":{"ha":0,"x_min":0,"x_max":0,"o":"l 70 0 l 70 80 l 16 -171 l 119 -171 l 222 156 l 106 156 l 106 817 l -10 817 l -10 500 l -359 500 "},"ӌ":{"ha":0,"x_min":0,"x_max":0,"o":""},"ӎ":{"ha":0,"x_min":0,"x_max":0,"o":"l 0 296 l 80 296 l 739 296 l 739 146 "},"ӑ":{"ha":0,"x_min":0,"x_max":0,"o":""},"ӓ":{"ha":0,"x_min":0,"x_max":0,"o":""},"ӕ":{"ha":0,"x_min":0,"x_max":0,"o":""},"ӗ":{"ha":0,"x_min":0,"x_max":0,"o":""},"ә":{"ha":0,"x_min":0,"x_max":0,"o":""},"ӛ":{"ha":0,"x_min":0,"x_max":0,"o":""},"ӝ":{"ha":0,"x_min":0,"x_max":0,"o":""},"ӟ":{"ha":0,"x_min":0,"x_max":0,"o":""},"ӡ":{"ha":0,"x_min":0,"x_max":0,"o":""},"ӣ":{"ha":0,"x_min":0,"x_max":0,"o":""},"ӥ":{"ha":0,"x_min":0,"x_max":0,"o":""},"ӧ":{"ha":0,"x_min":0,"x_max":0,"o":""},"ө":{"ha":0,"x_min":0,"x_max":0,"o":""},"ӫ":{"ha":0,"x_min":0,"x_max":0,"o":""},"ӭ":{"ha":0,"x_min":0,"x_max":0,"o":""},"ӯ":{"ha":0,"x_min":0,"x_max":0,"o":""},"ӱ":{"ha":0,"x_min":0,"x_max":0,"o":""},"ӳ":{"ha":0,"x_min":0,"x_max":0,"o":""},"ӵ":{"ha":0,"x_min":0,"x_max":0,"o":""},"ӹ":{"ha":0,"x_min":0,"x_max":0,"o":""},"ӻ":{"ha":0,"x_min":0,"x_max":0,"o":"l -166 0 l -166 1 l -223 1 l -223 0 l -3 0 l -3 214 l 336 214 "},"ӽ":{"ha":-56,"x_min":0,"x_max":0,"o":"m 47 0 l 182 0 l 355 283 l 483 84 b 530 -24 506 46 524 11 b 438 -179 549 -126 490 -179 b 376 -168 426 -179 387 -175 l 365 -278 b 439 -288 391 -286 412 -288 b 647 -73 575 -288 644 -189 b 575 136 648 5 620 68 l 427 369 l 663 736 l 529 736 l 355 438 l 182 736 l 47 736 l 279 369 z "},"ӿ":{"ha":-55,"x_min":0,"x_max":0,"o":"m 182 736 l 47 736 l 251 415 l 144 415 l 144 326 l 252 326 l 47 326 l 47 0 l 180 0 l -28 326 l 84 326 l 84 415 l -27 415 l 180 736 l 46 736 l -129 437 z "},"ҁ":{"ha":-58,"x_min":0,"x_max":0,"o":"m 446 94 l 372 94 b 194 343 243 94 194 224 l 194 370 b 369 639 194 510 244 639 b 526 467 460 639 526 568 l 654 467 b 372 746 654 631 536 746 b 58 370 172 746 58 579 l 58 343 b 311 -8 58 174 147 22 l 311 -252 l 446 -252 z "},"ҍ":{"ha":1,"x_min":0,"x_max":0,"o":"m 473 962 l 247 962 l 247 1103 l 130 1103 l 130 962 l 3 962 l 3 854 l 130 854 l 130 0 l 513 0 l 513 227 "},"ҏ":{"ha":37,"x_min":0,"x_max":0,"o":"m 507 259 l 431 187 l 503 107 b 418 90 477 96 450 90 b 208 6 282 90 208 73 b NaN NaN 208 -25 158 NaN z m NaN NaN b NaN NaN NaN NaN NaN NaN l NaN NaN l NaN NaN l NaN NaN b NaN NaN NaN NaN NaN NaN l NaN NaN l NaN NaN l NaN NaN z "},"ԯ":{"ha":0,"x_min":0,"x_max":0,"o":"l 79 0 l 79 -239 l 196 -239 l 196 106 l 79 106 l 79 736 l -414 736 l -414 711 "},"Α":{"ha":0,"x_min":0,"x_max":0,"o":""},"Β":{"ha":93,"x_min":0,"x_max":0,"o":""},"Γ":{"ha":0,"x_min":0,"x_max":0,"o":""},"Δ":{"ha":130,"x_min":0,"x_max":0,"o":"m 24 0 l 872 0 l 513 982 l 384 982 z m 191 109 l 444 823 l 452 823 l 704 109 z "},"∆":{"ha":130,"x_min":0,"x_max":0,"o":"m 24 0 l 872 0 l 513 982 l 384 982 z m 191 109 l 444 823 l 452 823 l 704 109 z "},"Ε":{"ha":21,"x_min":0,"x_max":0,"o":""},"Ζ":{"ha":59,"x_min":0,"x_max":0,"o":""},"Η":{"ha":214,"x_min":0,"x_max":0,"o":""},"Θ":{"ha":242,"x_min":0,"x_max":0,"o":"m 709 545 l 298 545 l 298 437 l 709 437 z "},"Ι":{"ha":-428,"x_min":0,"x_max":0,"o":""},"Κ":{"ha":96,"x_min":0,"x_max":0,"o":""},"Λ":{"ha":130,"x_min":0,"x_max":0,"o":"m 152 0 l 444 823 l 452 823 l 743 0 l 872 0 z "},"Μ":{"ha":417,"x_min":0,"x_max":0,"o":""},"Ν":{"ha":230,"x_min":0,"x_max":0,"o":""},"Ξ":{"ha":-58,"x_min":0,"x_max":0,"o":"m 43 0 l 666 0 l 666 109 l 43 109 z m 102 446 l 605 446 l 605 553 l 102 553 z m 46 873 l 656 873 l 656 982 l 46 982 z "},"Ο":{"ha":242,"x_min":0,"x_max":0,"o":""},"Π":{"ha":0,"x_min":0,"x_max":0,"o":""},"Ρ":{"ha":0,"x_min":0,"x_max":0,"o":""},"Σ":{"ha":64,"x_min":0,"x_max":0,"o":"m 754 114 l 254 114 l 538 473 l 538 486 l 254 848 l 724 848 l 724 962 l 77 962 l 77 860 l 389 477 l 77 100 l 77 0 l 754 0 z "},"Τ":{"ha":82,"x_min":0,"x_max":0,"o":""},"Υ":{"ha":113,"x_min":0,"x_max":0,"o":""},"Φ":{"ha":229,"x_min":0,"x_max":0,"o":"m 559 982 l 441 982 l 441 853 b 58 490 224 850 58 703 b 441 129 58 277 220 132 l 441 0 l 559 0 l 559 129 b 937 492 779 133 937 277 b 559 853 937 704 774 850 z m 176 490 b 441 741 176 641 283 738 l 441 241 b 176 490 281 245 176 340 z m 559 241 l 559 741 b 819 492 714 738 819 642 b 559 241 819 342 718 245 z "},"Χ":{"ha":83,"x_min":0,"x_max":0,"o":""},"Ψ":{"ha":0,"x_min":0,"x_max":0,"o":""},"Ω":{"ha":243,"x_min":0,"x_max":0,"o":""},"Ω":{"ha":243,"x_min":0,"x_max":0,"o":""},"Ά":{"ha":0,"x_min":0,"x_max":0,"o":""},"Έ":{"ha":150,"x_min":0,"x_max":0,"o":"m 237 0 l 840 0 l 840 109 l 359 109 l 359 438 l 802 438 l 802 545 l 359 545 l 359 873 l 833 873 l 833 982 l 237 982 "},"Ή":{"ha":382,"x_min":0,"x_max":0,"o":"m 277 0 "},"Ί":{"ha":0,"x_min":0,"x_max":0,"o":""},"Ό":{"ha":0,"x_min":0,"x_max":0,"o":""},"Ύ":{"ha":322,"x_min":0,"x_max":0,"o":"m 229 982 l 583 403 "},"Ώ":{"ha":0,"x_min":0,"x_max":0,"o":""},"Ϊ":{"ha":0,"x_min":0,"x_max":0,"o":""},"Ϋ":{"ha":0,"x_min":0,"x_max":0,"o":""},"Ͱ":{"ha":64,"x_min":0,"x_max":0,"o":"m 727 552 l 244 552 l 244 982 l 104 982 l 104 0 l 244 0 l 244 441 l 727 441 z "},"Ͳ":{"ha":97,"x_min":0,"x_max":0,"o":"m 802 594 l 802 982 l 62 982 l 62 594 l 175 594 l 175 873 l 372 873 l 372 0 l 494 0 l 494 873 l 690 873 l 690 594 z "},"Ͷ":{"ha":230,"x_min":0,"x_max":0,"o":""},"Ϙ":{"ha":241,"x_min":0,"x_max":0,"o":"m 939 491 b 503 996 939 802 755 996 b 71 491 252 996 71 802 b 442 -9 71 206 223 20 l 442 -274 l 566 -274 l 566 -9 b 939 491 785 20 939 207 z m 819 491 b 503 100 819 237 680 100 b 189 491 327 100 189 237 b 75 530 189 667 328 530 z "},"Ϛ":{"ha":189,"x_min":0,"x_max":0,"o":"m 609 -145 l 609 -259 b 822 -81 745 -248 822 -182 b 666 85 822 -1 772 50 l 444 163 b 245 437 311 208 245 297 l 245 549 b 498 882 245 762 334 882 b 712 670 621 882 690 817 l 852 670 b 496 996 830 876 700 996 b 104 549 259 996 104 821 l 104 437 b 415 41 104 241 208 109 l 629 -28 b 684 -88 670 -43 684 -61 b 609 -145 684 -126 656 -142 z "},"Ϝ":{"ha":67,"x_min":0,"x_max":0,"o":"m 633 279 l 633 545 l 228 545 l 228 873 l 696 873 l 696 982 l 104 982 l 104 0 l 228 0 l 228 438 l 522 438 l 522 279 z "},"Ϟ":{"ha":68,"x_min":0,"x_max":0,"o":"m 136 189 l 574 553 l 545 319 b 536 187 538 273 536 224 b 751 -14 536 83 608 -14 b 800 -9 766 -14 783 -12 l 811 96 b 781 94 804 94 792 94 b 667 199 705 94 669 136 b 675 297 667 213 670 250 l 738 840 l 715 850 l 273 477 l 297 703 b 300 784 300 731 301 758 b 88 996 293 916 227 996 b 37 991 71 996 54 994 l 24 883 b 52 886 33 886 41 886 b 167 791 129 886 160 854 b 165 718 168 769 168 745 l 117 198 z "},"Ϡ":{"ha":186,"x_min":0,"x_max":0,"o":"m 11 600 l 151 600 b 452 883 182 781 286 883 b 727 728 575 883 667 826 l 233 442 l 286 349 l 772 628 b 807 396 794 561 806 482 l 366 142 l 420 47 l 807 270 b 460 -163 795 7 677 -163 l 460 -288 b 943 309 762 -288 943 -52 l 943 378 b 456 997 943 739 774 997 b 11 600 172 997 38 800 z "},"Ϗ":{"ha":67,"x_min":0,"x_max":0,"o":"m 184 982 l 45 982 l 45 0 l 184 0 l 184 321 l 298 441 l 621 1 l 439 -157 l 513 -241 l 791 0 l 389 538 l 781 982 l 612 982 l 282 608 l 184 499 z "},"ϒ":{"ha":109,"x_min":0,"x_max":0,"o":""},"ϓ":{"ha":234,"x_min":0,"x_max":0,"o":"m 502 0 l 623 0 l 623 380 l 830 830 b 891 875 845 863 865 875 b 924 869 905 875 918 873 l 949 978 b 865 996 918 991 895 996 b 712 867 781 996 749 949 l 562 526 l 414 867 b 259 996 370 968 324 996 b 174 977 229 996 205 991 l 199 869 b 233 875 205 873 221 875 b 296 830 262 875 281 863 l 502 380 "},"ϔ":{"ha":0,"x_min":0,"x_max":0,"o":""},"ϴ":{"ha":0,"x_min":0,"x_max":0,"o":""},"Ϸ":{"ha":0,"x_min":0,"x_max":0,"o":""},"Ϲ":{"ha":196,"x_min":0,"x_max":0,"o":""},"Ϻ":{"ha":417,"x_min":0,"x_max":0,"o":""},"Ͻ":{"ha":67,"x_min":0,"x_max":0,"o":"m 184 309 l 43 309 b 396 -14 64 106 198 -14 b 791 437 640 -14 791 163 l 791 545 b 404 996 791 818 647 996 b 43 674 208 996 68 879 l 184 674 b 396 882 209 830 281 882 b 651 545 575 882 651 754 l 651 434 b 395 100 651 224 562 100 b 184 309 274 100 206 164 z "},"Ͼ":{"ha":196,"x_min":0,"x_max":0,"o":""},"Ͽ":{"ha":196,"x_min":0,"x_max":0,"o":""},"Ἀ":{"ha":0,"x_min":0,"x_max":0,"o":""},"Ἁ":{"ha":0,"x_min":0,"x_max":0,"o":""},"Ἂ":{"ha":0,"x_min":0,"x_max":0,"o":""},"Ἃ":{"ha":0,"x_min":0,"x_max":0,"o":""},"Ἄ":{"ha":0,"x_min":0,"x_max":0,"o":""},"Ἅ":{"ha":0,"x_min":0,"x_max":0,"o":""},"Ἆ":{"ha":0,"x_min":0,"x_max":0,"o":""},"Ἇ":{"ha":0,"x_min":0,"x_max":0,"o":""},"Ὰ":{"ha":0,"x_min":0,"x_max":0,"o":""},"Ά":{"ha":0,"x_min":0,"x_max":0,"o":""},"Ᾰ":{"ha":0,"x_min":0,"x_max":0,"o":""},"Ᾱ":{"ha":0,"x_min":0,"x_max":0,"o":""},"ᾼ":{"ha":0,"x_min":0,"x_max":0,"o":""},"ᾈ":{"ha":0,"x_min":0,"x_max":0,"o":""},"ᾉ":{"ha":0,"x_min":0,"x_max":0,"o":""},"ᾊ":{"ha":0,"x_min":0,"x_max":0,"o":""},"ᾋ":{"ha":0,"x_min":0,"x_max":0,"o":""},"ᾌ":{"ha":0,"x_min":0,"x_max":0,"o":""},"ᾍ":{"ha":0,"x_min":0,"x_max":0,"o":""},"ᾎ":{"ha":0,"x_min":0,"x_max":0,"o":""},"ᾏ":{"ha":0,"x_min":0,"x_max":0,"o":""},"Ἐ":{"ha":193,"x_min":0,"x_max":0,"o":"m 281 0 l 883 0 l 883 109 l 403 109 l 403 438 l 845 438 l 845 545 l 403 545 l 403 873 l 876 873 l 876 982 l 281 982 "},"Ἑ":{"ha":185,"x_min":0,"x_max":0,"o":"m 271 0 l 873 0 l 873 109 l 393 109 l 393 438 l 836 438 l 836 545 l 393 545 l 393 873 l 867 873 l 867 982 l 271 982 z "},"Ἒ":{"ha":458,"x_min":0,"x_max":0,"o":"m 545 0 l 1147 0 l 1147 109 l 667 109 l 667 438 l 1109 438 l 1109 545 l 667 545 l 667 873 l 1141 873 l 1141 982 l 545 982 z "},"Ἓ":{"ha":408,"x_min":0,"x_max":0,"o":"m 494 0 l 1096 0 l 1096 109 l 616 109 l 616 438 l 1058 438 l 1058 545 l 616 545 l 616 873 l 1089 873 l 1089 982 l 494 982 "},"Ἔ":{"ha":399,"x_min":0,"x_max":0,"o":"m 487 0 l 1089 0 l 1089 109 l 609 109 l 609 438 l 1051 438 l 1051 545 l 609 545 l 609 873 l 1082 873 l 1082 982 l 487 982 "},"Ἕ":{"ha":422,"x_min":0,"x_max":0,"o":"m 510 0 l 1112 0 l 1112 109 l 632 109 l 632 438 l 1074 438 l 1074 545 l 632 545 l 632 873 l 1105 873 l 1105 982 l 510 982 "},"Ὲ":{"ha":252,"x_min":0,"x_max":0,"o":"m 339 0 "},"Έ":{"ha":218,"x_min":0,"x_max":0,"o":"m 304 0 l 906 0 l 906 109 l 426 109 l 426 438 l 868 438 l 868 545 l 426 545 l 426 873 l 899 873 l 899 982 l 304 982 "},"Ἠ":{"ha":427,"x_min":0,"x_max":0,"o":"m 320 0 "},"Ἡ":{"ha":417,"x_min":0,"x_max":0,"o":""},"Ἢ":{"ha":691,"x_min":0,"x_max":0,"o":""},"Ἣ":{"ha":0,"x_min":0,"x_max":0,"o":""},"Ἤ":{"ha":0,"x_min":0,"x_max":0,"o":""},"Ἥ":{"ha":0,"x_min":0,"x_max":0,"o":""},"Ἦ":{"ha":0,"x_min":0,"x_max":0,"o":""},"Ἧ":{"ha":0,"x_min":0,"x_max":0,"o":""},"Ὴ":{"ha":0,"x_min":0,"x_max":0,"o":""},"Ή":{"ha":450,"x_min":0,"x_max":0,"o":"m 345 0 "},"ῌ":{"ha":214,"x_min":0,"x_max":0,"o":""},"ᾘ":{"ha":379,"x_min":0,"x_max":0,"o":"m 274 0 "},"ᾙ":{"ha":417,"x_min":0,"x_max":0,"o":""},"ᾚ":{"ha":691,"x_min":0,"x_max":0,"o":""},"ᾛ":{"ha":0,"x_min":0,"x_max":0,"o":""},"ᾜ":{"ha":0,"x_min":0,"x_max":0,"o":""},"ᾝ":{"ha":0,"x_min":0,"x_max":0,"o":""},"ᾞ":{"ha":0,"x_min":0,"x_max":0,"o":""},"ᾟ":{"ha":0,"x_min":0,"x_max":0,"o":""},"Ἰ":{"ha":0,"x_min":0,"x_max":0,"o":""},"Ἱ":{"ha":-249,"x_min":0,"x_max":0,"o":""},"Ἲ":{"ha":25,"x_min":0,"x_max":0,"o":""},"Ἳ":{"ha":0,"x_min":0,"x_max":0,"o":""},"Ἴ":{"ha":0,"x_min":0,"x_max":0,"o":""},"Ἵ":{"ha":0,"x_min":0,"x_max":0,"o":""},"Ἶ":{"ha":0,"x_min":0,"x_max":0,"o":""},"Ἷ":{"ha":0,"x_min":0,"x_max":0,"o":""},"Ὶ":{"ha":0,"x_min":0,"x_max":0,"o":""},"Ί":{"ha":0,"x_min":0,"x_max":0,"o":""},"Ῐ":{"ha":0,"x_min":0,"x_max":0,"o":""},"Ῑ":{"ha":0,"x_min":0,"x_max":0,"o":""},"Ὀ":{"ha":0,"x_min":0,"x_max":0,"o":""},"Ὁ":{"ha":361,"x_min":0,"x_max":0,"o":""},"Ὂ":{"ha":580,"x_min":0,"x_max":0,"o":""},"Ὃ":{"ha":0,"x_min":0,"x_max":0,"o":""},"Ὄ":{"ha":0,"x_min":0,"x_max":0,"o":""},"Ὅ":{"ha":0,"x_min":0,"x_max":0,"o":""},"Ὸ":{"ha":0,"x_min":0,"x_max":0,"o":""},"Ό":{"ha":0,"x_min":0,"x_max":0,"o":""},"Ῥ":{"ha":0,"x_min":0,"x_max":0,"o":""},"Ὑ":{"ha":317,"x_min":0,"x_max":0,"o":"m 224 982 l 578 403 z "},"Ὓ":{"ha":522,"x_min":0,"x_max":0,"o":"m 429 982 l 783 403 "},"Ὕ":{"ha":593,"x_min":0,"x_max":0,"o":"m 500 982 l 854 403 "},"Ὗ":{"ha":500,"x_min":0,"x_max":0,"o":"m 407 982 l 761 403 "},"Ὺ":{"ha":348,"x_min":0,"x_max":0,"o":"m 255 982 l 609 403 "},"Ύ":{"ha":338,"x_min":0,"x_max":0,"o":"m 245 982 l 600 403 "},"Ῠ":{"ha":0,"x_min":0,"x_max":0,"o":""},"Ῡ":{"ha":0,"x_min":0,"x_max":0,"o":""},"Ὠ":{"ha":0,"x_min":0,"x_max":0,"o":""},"Ὡ":{"ha":340,"x_min":0,"x_max":0,"o":""},"Ὢ":{"ha":558,"x_min":0,"x_max":0,"o":""},"Ὣ":{"ha":0,"x_min":0,"x_max":0,"o":""},"Ὤ":{"ha":0,"x_min":0,"x_max":0,"o":""},"Ὥ":{"ha":0,"x_min":0,"x_max":0,"o":""},"Ὦ":{"ha":0,"x_min":0,"x_max":0,"o":""},"Ὧ":{"ha":0,"x_min":0,"x_max":0,"o":""},"Ὼ":{"ha":352,"x_min":0,"x_max":0,"o":"m 180 0 "},"Ώ":{"ha":314,"x_min":0,"x_max":0,"o":"m 141 0 "},"ῼ":{"ha":243,"x_min":0,"x_max":0,"o":""},"ᾨ":{"ha":0,"x_min":0,"x_max":0,"o":""},"ᾩ":{"ha":340,"x_min":0,"x_max":0,"o":""},"ᾪ":{"ha":558,"x_min":0,"x_max":0,"o":""},"ᾫ":{"ha":0,"x_min":0,"x_max":0,"o":""},"ᾬ":{"ha":0,"x_min":0,"x_max":0,"o":""},"ᾭ":{"ha":0,"x_min":0,"x_max":0,"o":""},"ᾮ":{"ha":0,"x_min":0,"x_max":0,"o":""},"ᾯ":{"ha":0,"x_min":0,"x_max":0,"o":""},"Ϳ":{"ha":0,"x_min":0,"x_max":0,"o":""},"α":{"ha":0,"x_min":0,"x_max":0,"o":""},"β":{"ha":14,"x_min":0,"x_max":0,"o":"m 387 996 b 94 728 217 996 94 883 l 94 -277 l 210 -277 l 210 77 l 218 81 b 415 -14 271 8 343 -14 b 716 282 589 -14 716 115 b 575 534 716 380 672 483 b 673 736 642 586 673 664 b 387 996 673 867 568 996 z m 210 269 l 210 728 b 387 887 210 823 290 887 b 559 735 483 887 559 823 b 385 575 559 654 495 575 l 331 575 l 331 468 l 425 468 b 600 283 530 468 600 378 b 400 95 600 182 524 95 b 210 269 282 95 210 175 z "},"γ":{"ha":0,"x_min":0,"x_max":0,"o":""},"δ":{"ha":-56,"x_min":0,"x_max":0,"o":"m 117 838 b 251 658 117 754 168 690 l 251 654 b 35 349 133 624 35 503 l 35 336 b 357 -14 35 138 153 -14 b 677 336 557 -14 677 138 l 677 349 b 397 719 677 526 591 650 b 254 840 278 762 254 806 b 372 916 254 884 294 916 b 547 879 437 916 509 894 l 547 993 b 369 1027 487 1016 437 1027 b 117 838 212 1027 117 952 z m 171 336 l 171 350 b 357 595 171 481 228 595 b 543 350 469 572 543 457 l 543 336 b 357 94 543 205 484 94 b 171 336 228 94 171 205 z "},"ε":{"ha":0,"x_min":0,"x_max":0,"o":""},"ζ":{"ha":-81,"x_min":0,"x_max":0,"o":"m 621 982 l 54 982 l 54 873 l 471 873 l 290 658 b 103 254 172 521 103 416 b 305 9 103 138 179 46 l 365 -8 b 464 -77 426 -26 464 -52 b 401 -193 464 -106 441 -151 l 472 -254 b 593 -57 545 -193 593 -119 b 418 94 593 5 526 61 l 330 121 b 224 256 264 140 224 191 b 395 602 224 401 289 464 l 621 897 z "},"η":{"ha":6,"x_min":0,"x_max":0,"o":""},"θ":{"ha":-56,"x_min":0,"x_max":0,"o":"m 662 425 l 662 544 b 355 975 662 844 543 975 b 49 544 171 975 49 844 l 49 425 b 357 -14 49 125 172 -14 b 662 425 543 -14 662 125 z m 543 566 l 543 533 l 165 533 l 165 566 b 355 871 165 762 244 871 b 543 566 467 871 543 762 z m 165 404 l 165 425 l 543 425 l 543 404 b 357 91 543 208 469 91 b 165 404 247 91 165 208 z "},"ɩ":{"ha":-427,"x_min":0,"x_max":0,"o":""},"ι":{"ha":-427,"x_min":0,"x_max":0,"o":""},"κ":{"ha":0,"x_min":0,"x_max":0,"o":""},"λ":{"ha":5,"x_min":0,"x_max":0,"o":"m 681 -11 b 735 -4 699 -11 716 -8 l 711 98 l 684 96 b 627 152 647 96 636 126 l 376 827 b 157 996 335 941 263 996 b 73 982 119 996 87 987 l 103 879 b 277 781 198 902 237 883 l 301 722 l 35 0 l 161 0 l 355 562 l 363 562 l 517 123 b 681 -11 548 33 606 -11 z "},"μ":{"ha":56,"x_min":0,"x_max":0,"o":""},"ν":{"ha":-2,"x_min":0,"x_max":0,"o":"m 308 0 l 426 0 b 700 736 608 235 699 490 l 582 736 b 381 123 578 536 544 381 l 373 123 l 161 736 l 35 736 z "},"ξ":{"ha":-56,"x_min":0,"x_max":0,"o":"m 591 863 l 610 968 b 437 996 568 985 503 996 b 118 766 247 996 118 903 b 281 566 118 673 179 602 b 76 286 147 524 76 430 b 366 -4 76 129 167 38 l 407 -14 b 506 -87 480 -28 506 -46 b 438 -202 506 -110 496 -140 l 515 -260 b 635 -54 587 -198 633 -119 b 460 84 635 18 586 56 l 385 102 b 212 300 271 129 212 198 b 460 509 212 439 298 509 l 555 509 l 555 617 l 460 617 b 254 754 330 617 254 666 b 439 887 254 840 323 887 b 591 863 487 887 529 880 z "},"ο":{"ha":21,"x_min":0,"x_max":0,"o":""},"π":{"ha":67,"x_min":0,"x_max":0,"o":"m 765 736 l 38 736 l 38 629 l 146 629 l 146 0 l 263 0 l 263 629 l 543 629 l 543 183 b 700 -9 543 41 608 -9 b 798 5 745 -9 779 0 l 798 113 b 741 103 787 110 762 103 b 658 184 703 103 658 117 l 658 629 l 765 629 z "},"ρ":{"ha":0,"x_min":0,"x_max":0,"o":""},"ς":{"ha":-59,"x_min":0,"x_max":0,"o":"m 376 746 b 58 370 182 746 58 594 l 58 343 b 378 0 58 163 165 49 b 479 -72 457 -18 479 -28 b 415 -187 479 -103 467 -129 l 487 -247 b 606 -35 552 -194 606 -113 b 418 103 606 26 571 64 b 178 343 262 144 178 231 l 178 370 b 374 639 178 528 254 639 b 526 467 465 639 526 575 l 654 467 b 376 746 654 640 543 746 z "},"σ":{"ha":66,"x_min":0,"x_max":0,"o":"m 68 365 l 68 349 b 391 -14 68 144 189 -14 b 709 323 591 -14 709 149 l 709 336 b 581 606 709 454 661 549 l 765 606 l 765 713 l 388 713 b 68 365 189 713 68 562 z m 203 349 l 203 365 b 388 606 203 494 259 606 b 574 365 519 606 574 494 l 574 349 b 391 94 574 212 519 94 b 203 349 259 94 203 212 z "},"τ":{"ha":-149,"x_min":0,"x_max":0,"o":"m 610 736 l 8 736 l 8 629 l 244 629 l 244 186 b 399 -14 244 43 297 -14 b 524 24 441 -14 480 -8 l 492 117 b 434 96 480 107 457 96 b 361 180 403 96 361 96 l 361 629 l 610 629 z "},"υ":{"ha":5,"x_min":0,"x_max":0,"o":""},"φ":{"ha":204,"x_min":0,"x_max":0,"o":"m 422 593 l 422 98 b 175 389 248 121 175 253 b 294 659 179 506 218 591 l 224 746 b 58 389 114 670 58 543 b 422 -11 58 185 155 11 l 422 -277 l 538 -277 l 538 -11 b 913 374 810 10 913 184 b 586 746 913 587 768 746 b 422 593 480 746 422 700 z m 538 98 l 538 595 b 586 643 538 621 553 643 b 796 374 715 643 792 519 b 538 98 796 248 718 120 z "},"χ":{"ha":24,"x_min":0,"x_max":0,"o":"m 84 -277 l 208 -277 l 415 123 l 551 -148 b 757 -277 605 -255 647 -277 l 785 -277 l 785 -168 l 757 -168 b 647 -98 693 -168 680 -164 l 479 235 l 750 736 l 627 736 l 418 346 l 282 608 b 76 745 224 719 186 745 l 47 745 l 47 637 l 76 637 b 186 557 142 637 145 633 l 355 235 z "},"ψ":{"ha":0,"x_min":0,"x_max":0,"o":""},"ω":{"ha":310,"x_min":0,"x_max":0,"o":""},"ί":{"ha":0,"x_min":0,"x_max":0,"o":""},"ϊ":{"ha":0,"x_min":0,"x_max":0,"o":""},"ΐ":{"ha":0,"x_min":0,"x_max":0,"o":""},"ύ":{"ha":0,"x_min":0,"x_max":0,"o":""},"ϋ":{"ha":0,"x_min":0,"x_max":0,"o":""},"ΰ":{"ha":0,"x_min":0,"x_max":0,"o":""},"ό":{"ha":0,"x_min":0,"x_max":0,"o":""},"ώ":{"ha":0,"x_min":0,"x_max":0,"o":""},"ά":{"ha":0,"x_min":0,"x_max":0,"o":""},"έ":{"ha":0,"x_min":0,"x_max":0,"o":""},"ή":{"ha":0,"x_min":0,"x_max":0,"o":""},"ͱ":{"ha":-58,"x_min":0,"x_max":0,"o":"m 321 0 l 321 300 l 661 300 l 661 408 l 321 408 l 321 549 b 118 746 321 678 225 746 b 50 739 96 746 68 742 l 50 648 b 87 652 61 650 77 652 b 186 549 146 652 186 624 l 186 0 z "},"ͳ":{"ha":-52,"x_min":0,"x_max":0,"o":"m 644 982 l 71 982 l 71 680 l 178 680 l 178 875 l 297 875 l 297 0 l 418 0 l 418 875 l 536 875 l 536 680 l 644 680 z "},"ͷ":{"ha":66,"x_min":0,"x_max":0,"o":"m 217 0 l 530 528 l 530 199 b 666 -14 530 47 582 -14 b 751 9 696 -14 723 -11 l 734 107 b 716 103 730 106 723 103 b 666 199 688 103 666 121 l 666 736 l 530 736 l 217 213 l 217 736 l 84 736 l 84 0 z "},"ͻ":{"ha":0,"x_min":0,"x_max":0,"o":""},"ͼ":{"ha":-58,"x_min":0,"x_max":0,"o":"m 278 365 b 354 290 278 324 304 290 b 431 365 404 290 431 324 b 354 437 431 404 404 437 b 278 365 304 437 278 404 z m 372 -14 b 659 237 525 -14 654 102 l 532 237 b 372 94 526 153 456 94 b 186 353 224 94 186 224 l 186 380 b 372 639 186 510 225 639 b 532 476 467 639 526 568 l 659 476 b 808 481 814 476 808 366 b NaN NaN 808 315 609 NaN l NaN NaN b NaN NaN NaN NaN NaN NaN z "},"ͽ":{"ha":-58,"x_min":0,"x_max":0,"o":"m 179 228 l 50 228 b 338 -14 57 102 167 -14 b 659 353 555 -14 659 153 l 659 380 b 338 746 659 579 556 746 b 50 467 184 746 57 631 l 179 467 b 338 639 184 579 254 639 b 524 380 487 639 524 510 l 524 353 b 338 94 524 224 484 94 b 179 228 243 94 184 165 z m 355 285 b 431 358 406 285 431 317 b 355 431 431 399 406 431 b 278 358 307 431 278 399 b 355 285 278 317 307 285 z "},"ϙ":{"ha":66,"x_min":0,"x_max":0,"o":"m 385 90 b 167 365 235 90 167 218 b 385 642 167 511 235 642 b 604 365 536 642 604 511 b 385 90 604 218 536 90 z m 50 365 b 307 -7 50 167 150 28 l 307 -274 l 441 -274 l 441 -11 b 720 365 610 15 720 157 b 385 746 720 594 585 746 b 50 365 184 746 50 594 z "},"ϛ":{"ha":-58,"x_min":0,"x_max":0,"o":"m 445 -141 l 445 -252 b 661 -76 591 -251 661 -182 b 530 79 661 14 613 54 l 345 133 b 184 345 255 159 184 212 l 184 391 b 370 639 184 510 224 639 b 529 467 465 639 524 568 l 656 467 b 370 746 651 631 541 746 b 49 389 152 746 49 581 l 49 345 b 286 27 49 133 160 61 l 456 -14 b 528 -81 496 -22 528 -42 b 445 -141 528 -119 495 -141 z "},"ϝ":{"ha":-58,"x_min":0,"x_max":0,"o":"m 627 736 l 85 736 l 85 -274 l 218 -274 l 218 273 l 461 273 l 461 156 l 568 156 l 568 378 l 218 378 l 218 631 l 627 631 z "},"ϟ":{"ha":-55,"x_min":0,"x_max":0,"o":"m 659 538 l 202 538 l 363 982 l 239 982 l 53 472 l 53 431 l 510 431 l 350 0 l 475 0 l 659 499 z "},"ϡ":{"ha":189,"x_min":0,"x_max":0,"o":"m 179 1029 l 57 962 b 526 642 267 866 418 763 l 77 381 l 129 286 l 594 556 b 696 355 636 493 669 427 l 222 80 l 275 -14 l 728 248 b 779 -288 766 96 779 -79 l 902 -221 b 179 1029 902 415 741 781 z "},"ϗ":{"ha":189,"x_min":0,"x_max":0,"o":"m 283 0 l 624 472 b 661 294 633 395 648 341 b 765 -33 709 141 765 77 b 650 -152 765 -121 719 -152 b 608 -145 637 -152 620 -149 l 608 -251 b 684 -263 627 -258 662 -263 b 898 -33 812 -263 898 -179 b 784 347 898 118 834 195 b 730 618 764 410 742 495 l 814 736 l 674 736 l 349 286 l 349 515 b 136 746 349 663 264 746 b 58 735 113 746 80 741 l 58 629 b 100 635 72 633 90 635 b 216 515 172 635 216 605 l 216 102 l 142 0 z "},"ϐ":{"ha":66,"x_min":0,"x_max":0,"o":"m 446 620 b 210 510 347 620 264 575 b 231 705 210 581 216 648 b 437 666 313 672 380 666 b 656 846 597 666 656 761 b 442 1027 656 964 562 1027 b 96 503 208 1027 96 811 l 96 456 b 418 -14 96 145 209 -14 b 738 316 618 -14 738 117 b 446 620 738 513 616 620 z m 422 511 b 604 316 545 511 604 444 b 416 94 604 184 545 94 b 237 316 288 94 237 184 b 422 511 237 444 326 511 z m 266 808 b 427 918 300 877 354 918 b 522 841 499 918 522 879 b 420 773 522 812 495 773 b 266 808 382 773 331 782 z "},"ϑ":{"ha":67,"x_min":0,"x_max":0,"o":"m 758 408 l 751 513 b 666 499 726 507 696 501 l 666 750 b 442 996 666 906 578 996 b 214 764 308 996 214 910 l 214 751 b 532 392 214 563 339 423 l 532 289 b 378 98 532 161 473 98 b 210 289 274 98 210 171 l 210 506 l 77 506 l 77 289 b 378 -14 77 106 197 -14 b 666 289 549 -14 666 95 l 666 387 b 758 408 698 390 730 397 z m 349 750 l 349 765 b 439 882 349 850 385 882 b 532 751 499 882 532 844 l 532 507 b 349 750 414 538 349 633 z "},"ϕ":{"ha":161,"x_min":0,"x_max":0,"o":"m 407 -277 l 521 -277 l 521 -9 b 869 369 736 11 869 157 b 521 745 869 576 736 722 l 521 997 l 407 997 l 407 745 b 58 369 191 722 58 576 b 407 -9 58 157 192 12 z m 175 369 b 407 644 175 508 262 623 l 407 90 b 175 369 262 111 175 229 z m 521 90 l 521 644 b 753 369 667 623 753 508 b 521 90 753 229 667 111 z "},"ϖ":{"ha":314,"x_min":0,"x_max":0,"o":"m 1032 736 l 49 736 l 49 631 l 111 631 b 62 374 79 551 62 466 b 326 -14 62 129 160 -14 b 541 142 431 -14 505 41 b 755 -14 576 41 650 -14 b 1019 374 922 -14 1020 129 b 970 631 1019 466 1002 551 l 1032 631 z m 184 365 b 241 631 184 454 196 531 l 841 631 b 897 365 886 531 897 454 b 745 94 897 194 840 94 b 608 312 663 94 608 171 l 608 490 l 473 490 l 473 312 b 336 94 473 171 419 94 b 184 365 241 94 184 194 z "},"ϰ":{"ha":188,"x_min":0,"x_max":0,"o":"m 149 0 l 292 0 l 598 425 l 598 217 b 811 -14 598 71 685 -14 b 890 -1 836 -14 869 -9 l 890 103 b 846 98 876 100 859 98 b 732 217 777 98 732 127 l 732 610 l 823 736 l 682 736 l 357 288 l 357 515 b 144 746 357 663 270 746 b 66 735 121 746 87 741 l 66 629 b 110 635 80 633 96 635 b 224 515 179 635 224 605 l 224 103 z "},"ϱ":{"ha":66,"x_min":0,"x_max":0,"o":"m 578 -313 l 688 -313 b 448 -95 688 -136 568 -123 b 212 144 333 -68 239 -14 b 442 38 268 81 345 38 b 738 362 628 38 738 179 l 738 377 l 674 377 b 997 -142 674 50 806 -104 b 1156 -248 1092 -163 1156 -179 z m 994 210 b 808 427 864 210 808 312 l 808 442 b 994 704 808 591 864 704 b 1181 442 1124 704 1181 591 l 1181 427 b 994 210 1181 312 1123 210 z "},"ϲ":{"ha":-32,"x_min":0,"x_max":0,"o":""},"ϳ":{"ha":0,"x_min":0,"x_max":0,"o":""},"ϵ":{"ha":-181,"x_min":0,"x_max":0,"o":"m 353 107 b 168 315 221 107 176 203 l 427 315 l 427 422 l 168 422 b 353 629 176 535 220 629 l 555 629 l 555 736 l 353 736 b 31 384 136 736 31 583 l 31 357 b 353 0 31 157 133 0 l 555 0 l 555 107 z "},"ϸ":{"ha":0,"x_min":0,"x_max":0,"o":""},"ϻ":{"ha":189,"x_min":0,"x_max":0,"o":"m 480 175 l 250 736 l 76 736 l 76 -274 l 212 -274 l 212 526 l 433 0 l 526 0 l 745 514 l 745 0 l 880 0 l 880 736 l 712 736 z "},"ϼ":{"ha":-14,"x_min":0,"x_max":0,"o":"m 85 378 l 85 -76 l -69 -76 l -69 -165 l 85 -165 l 85 -274 l 202 -274 l 202 -165 l 355 -165 l 355 -76 l 201 -76 l 201 79 b 395 -14 245 20 306 -14 b 694 331 579 -14 694 130 l 694 345 b 385 746 694 586 581 746 b 85 378 214 746 85 625 "},"ἀ":{"ha":0,"x_min":0,"x_max":0,"o":""},"ἁ":{"ha":0,"x_min":0,"x_max":0,"o":""},"ἂ":{"ha":0,"x_min":0,"x_max":0,"o":""},"ἃ":{"ha":0,"x_min":0,"x_max":0,"o":""},"ἄ":{"ha":0,"x_min":0,"x_max":0,"o":""},"ἅ":{"ha":0,"x_min":0,"x_max":0,"o":""},"ἆ":{"ha":0,"x_min":0,"x_max":0,"o":""},"ἇ":{"ha":0,"x_min":0,"x_max":0,"o":""},"ὰ":{"ha":0,"x_min":0,"x_max":0,"o":""},"ά":{"ha":0,"x_min":0,"x_max":0,"o":""},"ᾶ":{"ha":0,"x_min":0,"x_max":0,"o":""},"ᾰ":{"ha":0,"x_min":0,"x_max":0,"o":""},"ᾱ":{"ha":0,"x_min":0,"x_max":0,"o":""},"ᾳ":{"ha":0,"x_min":0,"x_max":0,"o":""},"ᾲ":{"ha":0,"x_min":0,"x_max":0,"o":""},"ᾴ":{"ha":0,"x_min":0,"x_max":0,"o":""},"ᾀ":{"ha":0,"x_min":0,"x_max":0,"o":""},"ᾁ":{"ha":0,"x_min":0,"x_max":0,"o":""},"ᾂ":{"ha":0,"x_min":0,"x_max":0,"o":""},"ᾃ":{"ha":0,"x_min":0,"x_max":0,"o":""},"ᾄ":{"ha":0,"x_min":0,"x_max":0,"o":""},"ᾅ":{"ha":0,"x_min":0,"x_max":0,"o":""},"ᾆ":{"ha":0,"x_min":0,"x_max":0,"o":""},"ᾇ":{"ha":0,"x_min":0,"x_max":0,"o":""},"ᾷ":{"ha":0,"x_min":0,"x_max":0,"o":""},"ἐ":{"ha":0,"x_min":0,"x_max":0,"o":""},"ἑ":{"ha":0,"x_min":0,"x_max":0,"o":""},"ἒ":{"ha":0,"x_min":0,"x_max":0,"o":""},"ἓ":{"ha":0,"x_min":0,"x_max":0,"o":""},"ἔ":{"ha":-51,"x_min":0,"x_max":0,"o":"m -328 -815 b 644 -547 -328 -419 517 -547 b 731 -255 559 -547 731 -373 b NaN -149 731 -165 869 -149 l NaN -149 b NaN -271 NaN -232 NaN -271 b NaN -157 NaN -271 NaN -225 b NaN -34 NaN -88 NaN -34 b NaN -22 NaN -34 NaN -122 b NaN 46 NaN 76 NaN 31 l NaN 46 b NaN 259 NaN 179 NaN 259 b NaN NaN NaN 259 NaN 229 b NaN NaN NaN NaN NaN NaN z "},"ἕ":{"ha":0,"x_min":0,"x_max":0,"o":""},"ὲ":{"ha":-51,"x_min":0,"x_max":0,"o":"m -142 -841 b 815 -616 -142 -488 688 -616 b 902 -324 730 -616 902 -442 b NaN -218 902 -235 1040 -218 l NaN -218 b NaN -340 NaN -301 NaN -340 b NaN -227 NaN -340 NaN -294 b NaN -103 NaN -157 NaN -103 b NaN -91 NaN -103 NaN -191 b NaN -23 NaN 7 NaN -38 l NaN -23 b NaN 190 NaN 110 NaN 190 b NaN NaN NaN 190 NaN 160 b NaN NaN NaN NaN NaN NaN z "},"έ":{"ha":0,"x_min":0,"x_max":0,"o":""},"ἠ":{"ha":0,"x_min":0,"x_max":0,"o":""},"ἡ":{"ha":6,"x_min":0,"x_max":0,"o":""},"ἢ":{"ha":6,"x_min":0,"x_max":0,"o":""},"ἣ":{"ha":0,"x_min":0,"x_max":0,"o":""},"ἤ":{"ha":0,"x_min":0,"x_max":0,"o":""},"ἥ":{"ha":0,"x_min":0,"x_max":0,"o":""},"ἦ":{"ha":0,"x_min":0,"x_max":0,"o":""},"ἧ":{"ha":0,"x_min":0,"x_max":0,"o":""},"ὴ":{"ha":0,"x_min":0,"x_max":0,"o":""},"ή":{"ha":0,"x_min":0,"x_max":0,"o":""},"ῆ":{"ha":0,"x_min":0,"x_max":0,"o":""},"ῃ":{"ha":6,"x_min":0,"x_max":0,"o":""},"ῂ":{"ha":0,"x_min":0,"x_max":0,"o":""},"ῄ":{"ha":0,"x_min":0,"x_max":0,"o":""},"ᾐ":{"ha":0,"x_min":0,"x_max":0,"o":""},"ᾑ":{"ha":6,"x_min":0,"x_max":0,"o":""},"ᾒ":{"ha":6,"x_min":0,"x_max":0,"o":""},"ᾓ":{"ha":0,"x_min":0,"x_max":0,"o":""},"ᾔ":{"ha":0,"x_min":0,"x_max":0,"o":""},"ᾕ":{"ha":0,"x_min":0,"x_max":0,"o":""},"ᾖ":{"ha":0,"x_min":0,"x_max":0,"o":""},"ᾗ":{"ha":0,"x_min":0,"x_max":0,"o":""},"ῇ":{"ha":0,"x_min":0,"x_max":0,"o":""},"ἰ":{"ha":0,"x_min":0,"x_max":0,"o":""},"ἱ":{"ha":-427,"x_min":0,"x_max":0,"o":""},"ἲ":{"ha":-427,"x_min":0,"x_max":0,"o":""},"ἳ":{"ha":0,"x_min":0,"x_max":0,"o":""},"ἴ":{"ha":0,"x_min":0,"x_max":0,"o":""},"ἵ":{"ha":0,"x_min":0,"x_max":0,"o":""},"ἶ":{"ha":0,"x_min":0,"x_max":0,"o":""},"ἷ":{"ha":0,"x_min":0,"x_max":0,"o":""},"ὶ":{"ha":0,"x_min":0,"x_max":0,"o":""},"ί":{"ha":0,"x_min":0,"x_max":0,"o":""},"ῖ":{"ha":0,"x_min":0,"x_max":0,"o":""},"ῐ":{"ha":0,"x_min":0,"x_max":0,"o":""},"ῑ":{"ha":0,"x_min":0,"x_max":0,"o":""},"ῒ":{"ha":0,"x_min":0,"x_max":0,"o":""},"ΐ":{"ha":-427,"x_min":0,"x_max":0,"o":"m -129 41 l -406 41 l -406 271 l -323 271 l -201 420 l -323 420 z "},"ῗ":{"ha":0,"x_min":0,"x_max":0,"o":""},"ὀ":{"ha":0,"x_min":0,"x_max":0,"o":""},"ὁ":{"ha":21,"x_min":0,"x_max":0,"o":""},"ὂ":{"ha":21,"x_min":0,"x_max":0,"o":""},"ὃ":{"ha":0,"x_min":0,"x_max":0,"o":""},"ὄ":{"ha":0,"x_min":0,"x_max":0,"o":""},"ὅ":{"ha":0,"x_min":0,"x_max":0,"o":""},"ὸ":{"ha":0,"x_min":0,"x_max":0,"o":""},"ό":{"ha":0,"x_min":0,"x_max":0,"o":""},"ῤ":{"ha":0,"x_min":0,"x_max":0,"o":""},"ῥ":{"ha":0,"x_min":0,"x_max":0,"o":""},"ὐ":{"ha":0,"x_min":0,"x_max":0,"o":""},"ὑ":{"ha":5,"x_min":0,"x_max":0,"o":""},"ὒ":{"ha":5,"x_min":0,"x_max":0,"o":""},"ὓ":{"ha":0,"x_min":0,"x_max":0,"o":""},"ὔ":{"ha":0,"x_min":0,"x_max":0,"o":""},"ὕ":{"ha":0,"x_min":0,"x_max":0,"o":""},"ὖ":{"ha":0,"x_min":0,"x_max":0,"o":""},"ὗ":{"ha":0,"x_min":0,"x_max":0,"o":""},"ὺ":{"ha":0,"x_min":0,"x_max":0,"o":""},"ύ":{"ha":0,"x_min":0,"x_max":0,"o":""},"ῦ":{"ha":0,"x_min":0,"x_max":0,"o":""},"ῠ":{"ha":0,"x_min":0,"x_max":0,"o":""},"ῡ":{"ha":0,"x_min":0,"x_max":0,"o":""},"ῢ":{"ha":0,"x_min":0,"x_max":0,"o":""},"ΰ":{"ha":5,"x_min":0,"x_max":0,"o":"m -129 41 l -187 41 l -187 271 l -104 271 l 18 420 l -104 420 z "},"ῧ":{"ha":0,"x_min":0,"x_max":0,"o":""},"ὠ":{"ha":0,"x_min":0,"x_max":0,"o":""},"ὡ":{"ha":310,"x_min":0,"x_max":0,"o":""},"ὢ":{"ha":310,"x_min":0,"x_max":0,"o":""},"ὣ":{"ha":0,"x_min":0,"x_max":0,"o":""},"ὤ":{"ha":0,"x_min":0,"x_max":0,"o":""},"ὥ":{"ha":0,"x_min":0,"x_max":0,"o":""},"ὦ":{"ha":0,"x_min":0,"x_max":0,"o":""},"ὧ":{"ha":0,"x_min":0,"x_max":0,"o":""},"ὼ":{"ha":0,"x_min":0,"x_max":0,"o":""},"ώ":{"ha":0,"x_min":0,"x_max":0,"o":""},"ῶ":{"ha":0,"x_min":0,"x_max":0,"o":""},"ῳ":{"ha":310,"x_min":0,"x_max":0,"o":""},"ῲ":{"ha":0,"x_min":0,"x_max":0,"o":""},"ῴ":{"ha":0,"x_min":0,"x_max":0,"o":""},"ᾠ":{"ha":0,"x_min":0,"x_max":0,"o":""},"ᾡ":{"ha":310,"x_min":0,"x_max":0,"o":""},"ᾢ":{"ha":310,"x_min":0,"x_max":0,"o":""},"ᾣ":{"ha":0,"x_min":0,"x_max":0,"o":""},"ᾤ":{"ha":0,"x_min":0,"x_max":0,"o":""},"ᾥ":{"ha":0,"x_min":0,"x_max":0,"o":""},"ᾦ":{"ha":0,"x_min":0,"x_max":0,"o":""},"ᾧ":{"ha":0,"x_min":0,"x_max":0,"o":""},"ῷ":{"ha":0,"x_min":0,"x_max":0,"o":""},"ι":{"ha":-425,"x_min":0,"x_max":0,"o":""},"ͺ":{"ha":-425,"x_min":0,"x_max":0,"o":""},"ㄱ":{"ha":0,"x_min":0,"x_max":0,"o":"m 978 803 l 222 803 l 222 715 l 872 715 l 872 175 l 978 175 z "},"ﾡ":{"ha":0,"x_min":0,"x_max":0,"o":"m 978 803 l 222 803 l 222 715 l 872 715 l 872 175 l 978 175 z "},"ㄲ":{"ha":0,"x_min":0,"x_max":0,"o":"m 589 803 l 171 803 l 171 715 l 486 715 l 486 175 l 589 175 z m 1073 806 l 661 806 l 661 718 l 968 718 l 968 176 l 1073 176 z "},"ﾢ":{"ha":0,"x_min":0,"x_max":0,"o":"m 589 803 l 171 803 l 171 715 l 486 715 l 486 175 l 589 175 z m 1073 806 l 661 806 l 661 718 l 968 718 l 968 176 l 1073 176 z "},"ㄳ":{"ha":0,"x_min":0,"x_max":0,"o":"m 544 802 l 163 802 l 163 713 l 438 713 l 438 175 l 544 175 z m 891 589 l 891 815 l 788 815 l 788 589 b 567 244 788 452 719 307 l 625 165 b 840 401 733 213 802 299 b 1053 165 875 299 944 213 l 1112 244 b 891 589 959 307 891 452 z "},"ﾣ":{"ha":0,"x_min":0,"x_max":0,"o":"m 544 802 l 163 802 l 163 713 l 438 713 l 438 175 l 544 175 z m 891 589 l 891 815 l 788 815 l 788 589 b 567 244 788 452 719 307 l 625 165 b 840 401 733 213 802 299 b 1053 165 875 299 944 213 l 1112 244 b 891 589 959 307 891 452 z "},"ㄴ":{"ha":0,"x_min":0,"x_max":0,"o":"m 1001 271 l 336 271 l 336 803 l 231 803 l 231 184 l 1001 184 z "},"ﾤ":{"ha":0,"x_min":0,"x_max":0,"o":"m 1001 271 l 336 271 l 336 803 l 231 803 l 231 184 l 1001 184 z "},"ㄵ":{"ha":0,"x_min":0,"x_max":0,"o":"m 302 807 l 195 807 l 195 165 l 254 165 b 562 198 358 164 454 167 l 562 203 l 597 159 b 799 401 699 208 764 297 b 1006 156 834 296 901 207 l 1067 237 b 850 606 914 304 850 460 l 850 713 l 1031 713 l 1031 800 l 571 800 l 571 713 l 749 713 l 749 606 b 553 247 749 467 692 318 l 547 286 b 302 252 467 260 384 253 z "},"ﾥ":{"ha":0,"x_min":0,"x_max":0,"o":"m 302 807 l 195 807 l 195 165 l 254 165 b 562 198 358 164 454 167 l 562 203 l 597 159 b 799 401 699 208 764 297 b 1006 156 834 296 901 207 l 1067 237 b 850 606 914 304 850 460 l 850 713 l 1031 713 l 1031 800 l 571 800 l 571 713 l 749 713 l 749 606 b 553 247 749 467 692 318 l 547 286 b 302 252 467 260 384 253 z "},"ㄶ":{"ha":0,"x_min":0,"x_max":0,"o":"m 300 784 l 195 784 l 195 171 l 254 171 b 562 205 357 171 454 172 l 547 293 b 300 258 466 266 382 259 z m 1029 701 l 848 701 l 848 823 l 745 823 l 745 701 l 555 701 l 555 614 l 1029 614 z m 793 568 b 590 357 677 568 589 480 b 793 145 589 232 677 145 b 996 357 907 145 996 232 b 793 568 996 480 907 568 z m 793 483 b 906 357 859 483 906 431 b 793 231 906 282 859 231 b 681 357 727 231 681 282 b 793 483 681 431 727 483 z "},"ﾦ":{"ha":0,"x_min":0,"x_max":0,"o":"m 300 784 l 195 784 l 195 171 l 254 171 b 562 205 357 171 454 172 l 547 293 b 300 258 466 266 382 259 z m 1029 701 l 848 701 l 848 823 l 745 823 l 745 701 l 555 701 l 555 614 l 1029 614 z m 793 568 b 590 357 677 568 589 480 b 793 145 589 232 677 145 b 996 357 907 145 996 232 b 793 568 996 480 907 568 z m 793 483 b 906 357 859 483 906 431 b 793 231 906 282 859 231 b 681 357 727 231 681 282 b 793 483 681 431 727 483 z "},"ㄷ":{"ha":0,"x_min":0,"x_max":0,"o":"m 974 810 l 233 810 l 233 178 l 987 178 l 987 263 l 339 263 l 339 722 l 974 722 z "},"ﾧ":{"ha":0,"x_min":0,"x_max":0,"o":"m 974 810 l 233 810 l 233 178 l 987 178 l 987 263 l 339 263 l 339 722 l 974 722 z "},"ㄸ":{"ha":0,"x_min":0,"x_max":0,"o":"m 578 810 l 195 810 l 195 184 l 258 184 b 591 218 366 184 469 189 l 579 307 b 300 275 479 282 390 277 l 300 722 l 578 722 z m 1013 810 l 632 810 l 632 183 l 1019 183 l 1019 270 l 738 270 l 738 722 l 1013 722 z "},"ﾨ":{"ha":0,"x_min":0,"x_max":0,"o":"m 578 810 l 195 810 l 195 184 l 258 184 b 591 218 366 184 469 189 l 579 307 b 300 275 479 282 390 277 l 300 722 l 578 722 z m 1013 810 l 632 810 l 632 183 l 1019 183 l 1019 270 l 738 270 l 738 722 l 1013 722 z "},"ㄹ":{"ha":0,"x_min":0,"x_max":0,"o":"m 981 823 l 218 823 l 218 736 l 878 736 l 878 540 l 222 540 l 222 167 l 1001 167 l 1001 255 l 323 255 l 323 454 l 981 454 z "},"ﾩ":{"ha":0,"x_min":0,"x_max":0,"o":"m 981 823 l 218 823 l 218 736 l 878 736 l 878 540 l 222 540 l 222 167 l 1001 167 l 1001 255 l 323 255 l 323 454 l 981 454 z "},"ㄺ":{"ha":0,"x_min":0,"x_max":0,"o":"m 585 815 l 183 815 l 183 727 l 479 727 l 479 543 l 184 543 l 184 175 l 258 175 b 658 205 389 175 510 178 l 647 293 b 290 260 517 267 406 261 l 290 454 l 585 454 z m 1029 815 l 627 815 l 627 727 l 925 727 l 925 178 l 1029 178 z "},"ﾪ":{"ha":0,"x_min":0,"x_max":0,"o":"m 585 815 l 183 815 l 183 727 l 479 727 l 479 543 l 184 543 l 184 175 l 258 175 b 658 205 389 175 510 178 l 647 293 b 290 260 517 267 406 261 l 290 454 l 585 454 z m 1029 815 l 627 815 l 627 727 l 925 727 l 925 178 l 1029 178 z "},"ㄻ":{"ha":0,"x_min":0,"x_max":0,"o":"l -368 0 l -368 65 b -8 92 -254 65 -146 68 l -19 176 b -327 151 -136 156 -231 151 l -327 343 l -41 343 m 429 704 l 19 704 l 19 66 l 429 66 z m 114 617 l 335 617 l 335 152 l 114 152 z "},"ﾫ":{"ha":0,"x_min":0,"x_max":0,"o":"l -368 0 l -368 65 b -8 92 -254 65 -146 68 l -19 176 b -327 151 -136 156 -231 151 l -327 343 l -41 343 m 429 704 l 19 704 l 19 66 l 429 66 z m 114 617 l 335 617 l 335 152 l 114 152 z "},"ㄼ":{"ha":0,"x_min":0,"x_max":0,"o":"l -369 0 l -369 66 b -4 98 -250 66 -141 69 l -15 183 b -330 153 -130 159 -230 154 l -330 346 l -43 346 m 117 708 l 16 708 l 16 66 l 429 66 l 429 708 l 328 708 l 328 484 l 117 484 z m 117 155 l 117 396 l 328 396 l 328 155 z "},"ﾬ":{"ha":0,"x_min":0,"x_max":0,"o":"l -369 0 l -369 66 b -4 98 -250 66 -141 69 l -15 183 b -330 153 -130 159 -230 154 l -330 346 l -43 346 m 117 708 l 16 708 l 16 66 l 429 66 l 429 708 l 328 708 l 328 484 l 117 484 z m 117 155 l 117 396 l 328 396 l 328 155 z "},"ㄽ":{"ha":0,"x_min":0,"x_max":0,"o":"m 574 814 l 179 814 l 179 726 l 469 726 l 469 543 l 182 543 l 182 175 l 247 175 b 609 209 370 175 480 179 l 609 213 l 640 171 b 849 404 745 217 813 302 b 1057 171 884 302 951 217 l 1115 248 b 899 590 966 311 899 456 l 899 818 l 798 818 l 798 590 b 604 258 798 463 735 325 l 598 297 b 288 260 490 269 391 262 l 288 453 l 574 453 z "},"ﾭ":{"ha":0,"x_min":0,"x_max":0,"o":"m 574 814 l 179 814 l 179 726 l 469 726 l 469 543 l 182 543 l 182 175 l 247 175 b 609 209 370 175 480 179 l 609 213 l 640 171 b 849 404 745 217 813 302 b 1057 171 884 302 951 217 l 1115 248 b 899 590 966 311 899 456 l 899 818 l 798 818 l 798 590 b 604 258 798 463 735 325 l 598 297 b 288 260 490 269 391 262 l 288 453 l 574 453 z "},"ㄾ":{"ha":0,"x_min":0,"x_max":0,"o":"m 575 814 l 182 814 l 182 726 l 472 726 l 472 543 l 184 543 l 184 176 l 250 176 b 612 212 373 176 483 180 l 600 300 b 290 263 490 271 393 264 l 290 453 l 575 453 z m 1050 814 l 647 814 l 647 175 l 1058 175 l 1058 262 l 754 262 l 754 454 l 1035 454 l 1035 543 l 754 543 l 754 726 l 1050 726 z "},"ﾮ":{"ha":0,"x_min":0,"x_max":0,"o":"m 575 814 l 182 814 l 182 726 l 472 726 l 472 543 l 184 543 l 184 176 l 250 176 b 612 212 373 176 483 180 l 600 300 b 290 263 490 271 393 264 l 290 453 l 575 453 z m 1050 814 l 647 814 l 647 175 l 1058 175 l 1058 262 l 754 262 l 754 454 l 1035 454 l 1035 543 l 754 543 l 754 726 l 1050 726 z "},"ㄿ":{"ha":0,"x_min":0,"x_max":0,"o":"m 562 814 l 182 814 l 182 726 l 457 726 l 457 543 l 184 543 l 184 175 l 248 175 b 605 208 369 175 477 179 l 591 297 b 289 260 488 269 389 262 l 289 453 l 562 453 z m 1059 812 l 621 812 l 621 724 l 692 724 l 692 260 l 616 260 l 616 175 l 1066 175 l 1066 260 l 991 260 l 991 724 l 1059 724 z m 785 260 l 785 724 l 895 724 l 895 260 z "},"ﾯ":{"ha":0,"x_min":0,"x_max":0,"o":"m 562 814 l 182 814 l 182 726 l 457 726 l 457 543 l 184 543 l 184 175 l 248 175 b 605 208 369 175 477 179 l 591 297 b 289 260 488 269 389 262 l 289 453 l 562 453 z m 1059 812 l 621 812 l 621 724 l 692 724 l 692 260 l 616 260 l 616 175 l 1066 175 l 1066 260 l 991 260 l 991 724 l 1059 724 z m 785 260 l 785 724 l 895 724 l 895 260 z "},"ㅀ":{"ha":0,"x_min":0,"x_max":0,"o":"m 545 814 l 184 814 l 184 728 l 441 728 l 441 544 l 189 544 l 189 175 l 252 175 b 597 205 365 175 472 178 l 585 293 b 293 260 481 268 387 262 l 293 458 l 545 458 z m 1058 712 l 879 712 l 879 842 l 777 842 l 777 712 l 591 712 l 591 624 l 1058 624 z m 825 578 b 621 372 709 578 621 492 b 825 165 621 248 709 164 b 1027 372 939 164 1027 248 b 825 578 1027 492 939 578 z m 825 492 b 936 372 890 492 936 444 b 825 248 936 297 890 248 b 712 372 757 248 712 297 b 825 492 712 444 757 492 z "},"ﾰ":{"ha":0,"x_min":0,"x_max":0,"o":"m 545 814 l 184 814 l 184 728 l 441 728 l 441 544 l 189 544 l 189 175 l 252 175 b 597 205 365 175 472 178 l 585 293 b 293 260 481 268 387 262 l 293 458 l 545 458 z m 1058 712 l 879 712 l 879 842 l 777 842 l 777 712 l 591 712 l 591 624 l 1058 624 z m 825 578 b 621 372 709 578 621 492 b 825 165 621 248 709 164 b 1027 372 939 164 1027 248 b 825 578 1027 492 939 578 z m 825 492 b 936 372 890 492 936 444 b 825 248 936 297 890 248 b 712 372 757 248 712 297 b 825 492 712 444 757 492 z "},"ㅁ":{"ha":0,"x_min":0,"x_max":0,"o":"m 987 808 l 228 808 l 228 179 l 987 179 z m 335 720 l 879 720 l 879 266 l 335 266 z "},"ﾱ":{"ha":0,"x_min":0,"x_max":0,"o":"m 987 808 l 228 808 l 228 179 l 987 179 z m 335 720 l 879 720 l 879 266 l 335 266 z "},"ㅂ":{"ha":0,"x_min":0,"x_max":0,"o":"m 335 823 l 229 823 l 229 174 l 982 174 l 982 823 l 875 823 l 875 598 l 335 598 z m 335 267 l 335 506 l 875 506 l 875 267 z "},"ﾲ":{"ha":0,"x_min":0,"x_max":0,"o":"m 335 823 l 229 823 l 229 174 l 982 174 l 982 823 l 875 823 l 875 598 l 335 598 z m 335 267 l 335 506 l 875 506 l 875 267 z "},"ㅃ":{"ha":0,"x_min":0,"x_max":0,"o":"m 297 812 l 198 812 l 198 175 l 587 175 l 587 812 l 490 812 l 490 591 l 297 591 z m 297 263 l 297 503 l 490 503 l 490 263 z m 739 812 l 639 812 l 639 175 l 1028 175 l 1028 812 l 929 812 l 929 591 l 739 591 z m 739 263 l 739 503 l 929 503 l 929 263 z "},"ﾳ":{"ha":0,"x_min":0,"x_max":0,"o":"m 297 812 l 198 812 l 198 175 l 587 175 l 587 812 l 490 812 l 490 591 l 297 591 z m 297 263 l 297 503 l 490 503 l 490 263 z m 739 812 l 639 812 l 639 175 l 1028 175 l 1028 812 l 929 812 l 929 591 l 739 591 z m 739 263 l 739 503 l 929 503 l 929 263 z "},"ㅄ":{"ha":0,"x_min":0,"x_max":0,"o":"m 906 589 l 906 815 l 804 815 l 804 589 b 587 247 803 453 735 310 l 587 812 l 490 812 l 490 591 l 297 591 l 297 812 l 198 812 l 198 175 l 587 175 l 587 237 l 640 165 b 854 400 747 213 817 298 b 1070 165 890 298 960 213 l 1127 244 b 906 589 974 307 905 452 z m 297 263 l 297 503 l 490 503 l 490 263 z "},"ﾴ":{"ha":0,"x_min":0,"x_max":0,"o":"m 906 589 l 906 815 l 804 815 l 804 589 b 587 247 803 453 735 310 l 587 812 l 490 812 l 490 591 l 297 591 l 297 812 l 198 812 l 198 175 l 587 175 l 587 237 l 640 165 b 854 400 747 213 817 298 b 1070 165 890 298 960 213 l 1127 244 b 906 589 974 307 905 452 z m 297 263 l 297 503 l 490 503 l 490 263 z "},"ㅅ":{"ha":0,"x_min":0,"x_max":0,"o":"m 661 637 l 661 831 l 555 831 l 555 637 b 178 247 555 434 391 296 l 231 161 b 608 448 399 205 542 300 b 985 161 673 300 816 205 l 1036 247 b 661 637 823 296 661 434 z "},"ﾵ":{"ha":0,"x_min":0,"x_max":0,"o":"m 661 637 l 661 831 l 555 831 l 555 637 b 178 247 555 434 391 296 l 231 161 b 608 448 399 205 542 300 b 985 161 673 300 816 205 l 1036 247 b 661 637 823 296 661 434 z "},"ㅆ":{"ha":0,"x_min":0,"x_max":0,"o":"m 444 635 l 444 800 l 336 800 l 336 640 b 118 274 336 517 273 349 l 179 195 b 391 456 287 250 355 349 b 610 178 426 343 496 235 b 831 453 725 233 795 340 b 1044 197 866 345 935 250 l 1105 277 b 887 640 948 346 886 503 l 887 800 l 779 800 l 779 635 b 612 292 779 521 727 378 b 444 635 494 380 442 527 z "},"ﾶ":{"ha":0,"x_min":0,"x_max":0,"o":"m 444 635 l 444 800 l 336 800 l 336 640 b 118 274 336 517 273 349 l 179 195 b 391 456 287 250 355 349 b 610 178 426 343 496 235 b 831 453 725 233 795 340 b 1044 197 866 345 935 250 l 1105 277 b 887 640 948 346 886 503 l 887 800 l 779 800 l 779 635 b 612 292 779 521 727 378 b 444 635 494 380 442 527 z "},"ㅇ":{"ha":0,"x_min":0,"x_max":0,"o":"m 601 829 b 221 496 388 827 221 690 b 601 165 221 304 388 165 b 981 496 814 165 981 304 b 601 829 981 690 814 827 z m 601 735 b 876 496 755 735 876 635 b 601 255 876 358 755 255 b 326 496 446 255 324 358 b 601 735 324 635 446 735 z "},"ﾷ":{"ha":0,"x_min":0,"x_max":0,"o":"m 601 829 b 221 496 388 827 221 690 b 601 165 221 304 388 165 b 981 496 814 165 981 304 b 601 829 981 690 814 827 z m 601 735 b 876 496 755 735 876 635 b 601 255 876 358 755 255 b 326 496 446 255 324 358 b 601 735 324 635 446 735 z "},"ㅈ":{"ha":0,"x_min":0,"x_max":0,"o":"m 663 650 l 663 734 l 987 734 l 987 822 l 237 822 l 237 734 l 557 734 l 557 650 b 202 252 557 450 407 307 l 255 167 b 612 465 418 215 551 316 b 968 167 671 316 804 215 l 1020 252 b 663 650 814 307 663 450 z "},"ﾸ":{"ha":0,"x_min":0,"x_max":0,"o":"m 663 650 l 663 734 l 987 734 l 987 822 l 237 822 l 237 734 l 557 734 l 557 650 b 202 252 557 450 407 307 l 255 167 b 612 465 418 215 551 316 b 968 167 671 316 804 215 l 1020 252 b 663 650 814 307 663 450 z "},"ㅉ":{"ha":0,"x_min":0,"x_max":0,"o":"m 435 663 l 435 742 l 586 742 l 586 830 l 161 830 l 161 742 l 330 742 l 330 663 b 107 267 330 510 267 339 l 172 182 b 377 422 273 233 339 319 b 610 165 414 302 487 215 b 845 419 734 214 806 301 b 1043 182 880 318 944 232 l 1109 267 b 892 663 949 342 891 511 l 892 742 l 1058 742 l 1058 830 l 635 830 l 635 742 l 785 742 l 785 663 b 610 282 785 488 736 351 b 435 663 484 351 435 488 z "},"ﾹ":{"ha":0,"x_min":0,"x_max":0,"o":"m 435 663 l 435 742 l 586 742 l 586 830 l 161 830 l 161 742 l 330 742 l 330 663 b 107 267 330 510 267 339 l 172 182 b 377 422 273 233 339 319 b 610 165 414 302 487 215 b 845 419 734 214 806 301 b 1043 182 880 318 944 232 l 1109 267 b 892 663 949 342 891 511 l 892 742 l 1058 742 l 1058 830 l 635 830 l 635 742 l 785 742 l 785 663 b 610 282 785 488 736 351 b 435 663 484 351 435 488 z "},"ㅊ":{"ha":0,"x_min":0,"x_max":0,"o":"m 665 585 l 665 621 l 981 621 l 981 711 l 658 711 l 658 884 l 551 884 l 551 711 l 228 711 l 228 621 l 540 621 l 540 585 b 194 221 540 403 397 270 l 245 140 b 602 425 412 183 545 280 b 962 140 660 280 795 183 l 1013 221 b 665 585 808 270 665 403 z "},"ﾺ":{"ha":0,"x_min":0,"x_max":0,"o":"m 665 585 l 665 621 l 981 621 l 981 711 l 658 711 l 658 884 l 551 884 l 551 711 l 228 711 l 228 621 l 540 621 l 540 585 b 194 221 540 403 397 270 l 245 140 b 602 425 412 183 545 280 b 962 140 660 280 795 183 l 1013 221 b 665 585 808 270 665 403 z "},"ㅋ":{"ha":0,"x_min":0,"x_max":0,"o":"m 985 825 l 237 825 l 237 736 l 878 736 l 878 536 l 212 505 l 225 407 l 878 450 l 878 165 l 985 165 z "},"ﾻ":{"ha":0,"x_min":0,"x_max":0,"o":"m 985 825 l 237 825 l 237 736 l 878 736 l 878 536 l 212 505 l 225 407 l 878 450 l 878 165 l 985 165 z "},"ㅌ":{"ha":0,"x_min":0,"x_max":0,"o":"m 985 812 l 232 812 l 232 175 l 997 175 l 997 262 l 336 262 l 336 454 l 975 454 l 975 545 l 336 545 l 336 724 l 985 724 z "},"ﾼ":{"ha":0,"x_min":0,"x_max":0,"o":"m 985 812 l 232 812 l 232 175 l 997 175 l 997 262 l 336 262 l 336 454 l 975 454 l 975 545 l 336 545 l 336 724 l 985 724 z "},"ㅍ":{"ha":0,"x_min":0,"x_max":0,"o":"m 998 810 l 214 810 l 214 722 l 376 722 l 376 256 l 198 256 l 198 168 l 1017 168 l 1017 256 l 840 256 l 840 722 l 998 722 z m 483 256 l 483 722 l 732 722 l 732 256 z "},"ﾽ":{"ha":0,"x_min":0,"x_max":0,"o":"m 998 810 l 214 810 l 214 722 l 376 722 l 376 256 l 198 256 l 198 168 l 1017 168 l 1017 256 l 840 256 l 840 722 l 998 722 z m 483 256 l 483 722 l 732 722 l 732 256 z "},"ㅎ":{"ha":0,"x_min":0,"x_max":0,"o":"m 1010 730 l 662 730 l 662 892 l 555 892 l 555 730 l 203 730 l 203 640 l 1010 640 z m 608 555 b 311 336 435 555 309 464 b 608 115 309 206 435 115 b 906 336 780 115 905 206 b 608 555 905 464 780 555 z m 608 464 b 796 336 716 464 796 411 b 608 205 796 259 716 205 b 420 336 499 205 419 259 b 608 464 419 411 499 464 z "},"ﾾ":{"ha":0,"x_min":0,"x_max":0,"o":"m 1010 730 l 662 730 l 662 892 l 555 892 l 555 730 l 203 730 l 203 640 l 1010 640 z m 608 555 b 311 336 435 555 309 464 b 608 115 309 206 435 115 b 906 336 780 115 905 206 b 608 555 905 464 780 555 z m 608 464 b 796 336 716 464 796 411 b 608 205 796 259 716 205 b 420 336 499 205 419 259 b 608 464 419 411 499 464 z "},"ㅏ":{"ha":0,"x_min":0,"x_max":0,"o":"m 617 1073 l 511 1073 l 511 -110 l 617 -110 l 617 500 l 902 500 l 902 589 l 617 589 z "},"ￂ":{"ha":0,"x_min":0,"x_max":0,"o":"m 617 1073 l 511 1073 l 511 -110 l 617 -110 l 617 500 l 902 500 l 902 589 l 617 589 z "},"ㅐ":{"ha":0,"x_min":0,"x_max":0,"o":"m 818 1077 l 718 1077 l 718 601 l 503 601 l 503 1057 l 403 1057 l 403 -62 l 503 -62 l 503 513 l 718 513 l 718 -106 l 818 -106 z "},"ￃ":{"ha":0,"x_min":0,"x_max":0,"o":"m 818 1077 l 718 1077 l 718 601 l 503 601 l 503 1057 l 403 1057 l 403 -62 l 503 -62 l 503 513 l 718 513 l 718 -106 l 818 -106 z "},"ㅑ":{"ha":0,"x_min":0,"x_max":0,"o":"m 857 726 l 581 726 l 581 1076 l 473 1076 l 473 -106 l 581 -106 l 581 308 l 857 308 l 857 397 l 581 397 l 581 637 l 857 637 z "},"ￄ":{"ha":0,"x_min":0,"x_max":0,"o":"m 857 726 l 581 726 l 581 1076 l 473 1076 l 473 -106 l 581 -106 l 581 308 l 857 308 l 857 397 l 581 397 l 581 637 l 857 637 z "},"ㅒ":{"ha":0,"x_min":0,"x_max":0,"o":"m 814 1076 l 712 1076 l 712 742 l 503 742 l 503 1057 l 403 1057 l 403 -64 l 503 -64 l 503 330 l 712 330 l 712 -110 l 814 -110 z m 503 418 l 503 652 l 712 652 l 712 418 z "},"ￅ":{"ha":0,"x_min":0,"x_max":0,"o":"m 814 1076 l 712 1076 l 712 742 l 503 742 l 503 1057 l 403 1057 l 403 -64 l 503 -64 l 503 330 l 712 330 l 712 -110 l 814 -110 z m 503 418 l 503 652 l 712 652 l 712 418 z "},"ㅓ":{"ha":0,"x_min":0,"x_max":0,"o":"m 774 1076 l 669 1076 l 669 597 l 381 597 l 381 507 l 669 507 l 669 -109 l 774 -109 z "},"ￆ":{"ha":0,"x_min":0,"x_max":0,"o":"m 774 1076 l 669 1076 l 669 597 l 381 597 l 381 507 l 669 507 l 669 -109 l 774 -109 z "},"ㅔ":{"ha":0,"x_min":0,"x_max":0,"o":"m 863 1076 l 758 1076 l 758 -110 l 863 -110 z m 621 1057 l 519 1057 l 519 601 l 296 601 l 296 513 l 519 513 l 519 -66 l 621 -66 z "},"ￇ":{"ha":0,"x_min":0,"x_max":0,"o":"m 863 1076 l 758 1076 l 758 -110 l 863 -110 z m 621 1057 l 519 1057 l 519 601 l 296 601 l 296 513 l 519 513 l 519 -66 l 621 -66 z "},"ㅕ":{"ha":0,"x_min":0,"x_max":0,"o":"m 779 1076 l 671 1076 l 671 743 l 382 743 l 382 654 l 671 654 l 671 430 l 382 430 l 382 339 l 671 339 l 671 -107 l 779 -107 z "},"ￊ":{"ha":0,"x_min":0,"x_max":0,"o":"m 779 1076 l 671 1076 l 671 743 l 382 743 l 382 654 l 671 654 l 671 430 l 382 430 l 382 339 l 671 339 l 671 -107 l 779 -107 z "},"ㅖ":{"ha":0,"x_min":0,"x_max":0,"o":"m 860 1073 l 757 1073 l 757 -111 l 860 -111 z m 621 1055 l 519 1055 l 519 750 l 292 750 l 292 662 l 519 662 l 519 434 l 289 434 l 289 346 l 519 346 l 519 -66 l 621 -66 z "},"ￋ":{"ha":0,"x_min":0,"x_max":0,"o":"m 860 1073 l 757 1073 l 757 -111 l 860 -111 z m 621 1055 l 519 1055 l 519 750 l 292 750 l 292 662 l 519 662 l 519 434 l 289 434 l 289 346 l 519 346 l 519 -66 l 621 -66 z "},"ㅗ":{"ha":0,"x_min":0,"x_max":0,"o":"m 1146 343 l 650 343 l 650 846 l 545 846 l 545 343 l 52 343 l 52 254 l 1146 254 z "},"ￌ":{"ha":0,"x_min":0,"x_max":0,"o":"m 1146 343 l 650 343 l 650 846 l 545 846 l 545 343 l 52 343 l 52 254 l 1146 254 z "},"ㅘ":{"ha":0,"x_min":0,"x_max":0,"o":"m 492 703 l 388 703 l 388 288 b 61 283 271 284 159 283 l 76 191 b 817 239 283 191 568 199 l 807 316 b 492 292 708 304 600 296 z m 972 1073 l 867 1073 l 867 -111 l 972 -111 l 972 499 l 1158 499 l 1158 589 l 972 589 z "},"ￍ":{"ha":0,"x_min":0,"x_max":0,"o":"m 492 703 l 388 703 l 388 288 b 61 283 271 284 159 283 l 76 191 b 817 239 283 191 568 199 l 807 316 b 492 292 708 304 600 296 z m 972 1073 l 867 1073 l 867 -111 l 972 -111 l 972 499 l 1158 499 l 1158 589 l 972 589 z "},"ㅙ":{"ha":0,"x_min":0,"x_max":0,"o":"m 433 709 l 332 709 l 332 315 b 68 309 235 311 141 309 l 79 220 b 692 258 243 220 499 228 l 684 339 b 433 319 609 330 521 323 z m 1081 1076 l 977 1076 l 977 594 l 837 594 l 837 1059 l 735 1059 l 735 -64 l 837 -64 l 837 505 l 977 505 l 977 -110 l 1081 -110 z "},"ￎ":{"ha":0,"x_min":0,"x_max":0,"o":"m 433 709 l 332 709 l 332 315 b 68 309 235 311 141 309 l 79 220 b 692 258 243 220 499 228 l 684 339 b 433 319 609 330 521 323 z m 1081 1076 l 977 1076 l 977 594 l 837 594 l 837 1059 l 735 1059 l 735 -64 l 837 -64 l 837 505 l 977 505 l 977 -110 l 1081 -110 z "},"ㅚ":{"ha":0,"x_min":0,"x_max":0,"o":"m 549 696 l 445 696 l 445 308 b 115 304 327 304 213 304 l 132 213 b 869 258 338 213 621 218 l 861 339 b 549 313 762 326 656 317 z m 1043 1076 l 936 1076 l 936 -109 l 1043 -109 z "},"ￏ":{"ha":0,"x_min":0,"x_max":0,"o":"m 549 696 l 445 696 l 445 308 b 115 304 327 304 213 304 l 132 213 b 869 258 338 213 621 218 l 861 339 b 549 313 762 326 656 317 z m 1043 1076 l 936 1076 l 936 -109 l 1043 -109 z "},"ㅛ":{"ha":0,"x_min":0,"x_max":0,"o":"m 1154 312 l 873 312 l 873 844 l 768 844 l 768 312 l 452 312 l 452 844 l 346 844 l 346 312 l 61 312 l 61 222 l 1154 222 z "},"ￒ":{"ha":0,"x_min":0,"x_max":0,"o":"m 1154 312 l 873 312 l 873 844 l 768 844 l 768 312 l 452 312 l 452 844 l 346 844 l 346 312 l 61 312 l 61 222 l 1154 222 z "},"ㅜ":{"ha":0,"x_min":0,"x_max":0,"o":"m 1154 684 l 61 684 l 61 597 l 553 597 l 553 77 l 661 77 l 661 597 l 1154 597 z "},"ￓ":{"ha":0,"x_min":0,"x_max":0,"o":"m 1154 684 l 61 684 l 61 597 l 553 597 l 553 77 l 661 77 l 661 597 l 1154 597 z "},"ㅝ":{"ha":0,"x_min":0,"x_max":0,"o":"m 1086 1076 l 981 1076 l 981 330 l 689 330 l 689 244 l 981 244 l 981 -110 l 1086 -110 z m 85 549 l 100 460 b 403 465 193 460 296 461 l 403 -18 l 510 -18 l 510 469 b 891 505 637 476 767 487 l 883 583 b 85 549 621 555 323 551 z "},"ￔ":{"ha":0,"x_min":0,"x_max":0,"o":"m 1086 1076 l 981 1076 l 981 330 l 689 330 l 689 244 l 981 244 l 981 -110 l 1086 -110 z m 85 549 l 100 460 b 403 465 193 460 296 461 l 403 -18 l 510 -18 l 510 469 b 891 505 637 476 767 487 l 883 583 b 85 549 621 555 323 551 z "},"ㅞ":{"ha":0,"x_min":0,"x_max":0,"o":"m 1107 1076 l 1004 1076 l 1004 -109 l 1107 -109 z m 876 1047 l 774 1047 l 774 331 l 552 331 l 552 245 l 774 245 l 774 -77 l 876 -77 b 700 83 76 -77 700 -5 b NaN 177 700 85 705 177 l NaN -309 l NaN -309 l NaN 184 b NaN 212 NaN 190 NaN 199 l NaN 287 b NaN 256 NaN 264 NaN 256 z "},"ￕ":{"ha":0,"x_min":0,"x_max":0,"o":"m 1107 1076 l 1004 1076 l 1004 -109 l 1107 -109 z m 876 1047 l 774 1047 l 774 331 l 552 331 l 552 245 l 774 245 l 774 -77 l 876 -77 b 700 83 76 -77 700 -5 b NaN 177 700 85 705 177 l NaN -309 l NaN -309 l NaN 184 b NaN 212 NaN 190 NaN 199 l NaN 287 b NaN 256 NaN 264 NaN 256 z "},"ㅟ":{"ha":0,"x_min":0,"x_max":0,"o":"m 1081 1073 l 974 1073 l 974 -111 l 1081 -111 z m 109 543 l 123 453 b 463 460 227 453 342 454 l 463 -18 l 568 -18 l 568 464 b 918 495 685 470 804 480 l 913 575 b 109 543 648 547 349 543 z "},"ￖ":{"ha":0,"x_min":0,"x_max":0,"o":"m 1081 1073 l 974 1073 l 974 -111 l 1081 -111 z m 109 543 l 123 453 b 463 460 227 453 342 454 l 463 -18 l 568 -18 l 568 464 b 918 495 685 470 804 480 l 913 575 b 109 543 648 547 349 543 z "},"ㅠ":{"ha":0,"x_min":0,"x_max":0,"o":"m 1146 686 l 52 686 l 52 598 l 343 598 l 343 79 l 450 79 l 450 598 l 742 598 l 742 79 l 849 79 l 849 598 l 1146 598 z "},"ￗ":{"ha":0,"x_min":0,"x_max":0,"o":"m 1146 686 l 52 686 l 52 598 l 343 598 l 343 79 l 450 79 l 450 598 l 742 598 l 742 79 l 849 79 l 849 598 l 1146 598 z "},"ㅡ":{"ha":0,"x_min":0,"x_max":0,"o":"m 1146 557 l 52 557 l 52 467 l 1146 467 z "},"ￚ":{"ha":0,"x_min":0,"x_max":0,"o":"m 1146 557 l 52 557 l 52 467 l 1146 467 z "},"ㅢ":{"ha":0,"x_min":0,"x_max":0,"o":"m 1057 1059 l 952 1059 l 952 -123 l 1057 -123 b 570 393 84 -123 570 103 b NaN 663 570 399 609 663 l NaN 743 b NaN 707 NaN 711 NaN 708 z "},"ￛ":{"ha":0,"x_min":0,"x_max":0,"o":"m 1057 1059 l 952 1059 l 952 -123 l 1057 -123 b 570 393 84 -123 570 103 b NaN 663 570 399 609 663 l NaN 743 b NaN 707 NaN 711 NaN 708 z "},"ㅣ":{"ha":0,"x_min":0,"x_max":0,"o":"m 661 1076 l 553 1076 l 553 -109 l 661 -109 z "},"ￜ":{"ha":0,"x_min":0,"x_max":0,"o":"m 661 1076 l 553 1076 l 553 -109 l 661 -109 z "},"ㅤ":{"ha":0,"x_min":0,"x_max":0,"o":""},"ㆍ":{"ha":601,"x_min":0,"x_max":0,"o":""},"가":{"ha":0,"x_min":0,"x_max":0,"o":""},"각":{"ha":0,"x_min":0,"x_max":0,"o":"l -708 0 l -708 106 l -397 106 l -397 288 l -307 288 l -307 106 "},"갂":{"ha":0,"x_min":0,"x_max":0,"o":""},"갃":{"ha":0,"x_min":0,"x_max":0,"o":""},"간":{"ha":0,"x_min":0,"x_max":0,"o":""},"갅":{"ha":-659,"x_min":0,"x_max":0,"o":""},"갆":{"ha":-618,"x_min":0,"x_max":0,"o":"m -711 -454 b -789 -777 -605 -198 -708 -644 b -959 NaN -791 -869 -854 -868 b -1185 NaN -960 NaN -1054 NaN z m -1185 NaN b -1057 NaN -1109 NaN -1057 NaN b -1185 NaN -1057 NaN -1109 NaN b -1314 NaN -1260 NaN -1314 NaN b -1185 NaN -1314 NaN -1260 NaN z m -1329 NaN l -1891 NaN l -1891 NaN l -1444 NaN b -1945 NaN -1466 NaN -1650 NaN l -1903 NaN b -1329 NaN -1554 NaN -1329 NaN z "},"갇":{"ha":0,"x_min":0,"x_max":0,"o":""},"갈":{"ha":-614,"x_min":0,"x_max":0,"o":"m -328 213 l -222 213 l -222 465 l -781 465 l -781 377 l -339 377 b -836 -31 -357 186 -535 37 l -793 -121 b -222 465 -442 -37 -222 161 z m 106 -144 l -663 -144 l -663 -231 l 0 -231 l 0 -359 l -661 -359 l -661 -670 l 151 -670 l 151 -582 l -556 -582 l -556 -442 l 106 -442 z "},"갉":{"ha":0,"x_min":0,"x_max":0,"o":""},"갊":{"ha":275,"x_min":0,"x_max":0,"o":"m -328 214 l -886 214 l -886 126 l -445 126 b -941 -281 -463 -66 -638 -213 l -901 -369 b -328 214 -545 -288 -328 -88 z "},"갋":{"ha":0,"x_min":0,"x_max":0,"o":""},"갌":{"ha":0,"x_min":0,"x_max":0,"o":""},"갍":{"ha":0,"x_min":0,"x_max":0,"o":""},"갎":{"ha":0,"x_min":0,"x_max":0,"o":""},"갏":{"ha":0,"x_min":0,"x_max":0,"o":""},"감":{"ha":0,"x_min":0,"x_max":0,"o":""},"갑":{"ha":0,"x_min":0,"x_max":0,"o":"l 991 0 l 991 -652 l 1099 -652 l 1099 -377 l 1280 -377 l 1280 -288 l 1099 -288 "},"값":{"ha":0,"x_min":0,"x_max":0,"o":""},"갓":{"ha":0,"x_min":0,"x_max":0,"o":"m 1173 758 l 991 758 l 991 1097 l 886 1097 l 886 296 l 991 296 l 991 669 l 1173 669 b 1507 483 1173 161 1507 267 b 1816 NaN 1507 712 1816 NaN b 951 NaN 1816 NaN 1146 NaN b 605 NaN 818 NaN 605 NaN l 650 NaN b 1066 NaN 827 NaN 993 NaN b 1480 NaN 1138 NaN 1302 NaN l 1525 NaN b 1119 NaN 1312 NaN 1119 NaN z "},"갔":{"ha":0,"x_min":0,"x_max":0,"o":"m 991 1097 "},"강":{"ha":0,"x_min":0,"x_max":0,"o":""},"갖":{"ha":0,"x_min":0,"x_max":0,"o":"m 991 1097 "},"갗":{"ha":0,"x_min":0,"x_max":0,"o":"m 1173 814 l 991 814 l 991 1096 l 886 1096 l 886 431 l 991 431 l 991 724 l 1173 724 "},"갘":{"ha":0,"x_min":0,"x_max":0,"o":""},"같":{"ha":0,"x_min":0,"x_max":0,"o":""},"갚":{"ha":0,"x_min":0,"x_max":0,"o":"l -671 0 l -671 106 l -376 106 l -376 288 l -290 288 l -290 106 "},"갛":{"ha":0,"x_min":0,"x_max":0,"o":""},"개":{"ha":-104,"x_min":0,"x_max":0,"o":"m 1078 1096 z "},"객":{"ha":1073,"x_min":0,"x_max":0,"o":""},"갞":{"ha":-301,"x_min":0,"x_max":0,"o":""},"갟":{"ha":0,"x_min":0,"x_max":0,"o":"l -298 0 l -298 -164 l -23 -164 l -23 -266 l -684 -266 l -684 -164 l -385 -164 l -385 0 l -692 0 l -692 102 m -1185 705 l -1659 705 l -1659 617 l -1297 617 b -1704 156 -1317 414 -1456 256 l -1648 76 b -1185 705 -1345 205 -1187 418 z "},"갠":{"ha":-369,"x_min":0,"x_max":0,"o":""},"갡":{"ha":-495,"x_min":0,"x_max":0,"o":"l -298 0 l -298 -164 l -23 -164 l -23 -266 l -680 -266 l -680 -164 l -385 -164 l -385 0 l -686 0 l -686 102 "},"갢":{"ha":-106,"x_min":0,"x_max":0,"o":"l -581 0 l -581 102 l -339 102 l -339 266 l -600 266 l -600 368 b -1255 581 -1097 918 -1118 728 b NaN NaN -1503 492 -1450 412 l NaN NaN b NaN NaN NaN NaN NaN NaN m NaN NaN z "},"갣":{"ha":-495,"x_min":0,"x_max":0,"o":"l -301 0 l -301 -164 l -22 -164 l -22 136 l 142 136 l 142 -174 l 244 -174 "},"갤":{"ha":0,"x_min":0,"x_max":0,"o":"l -587 0 l -587 102 l -338 102 l -338 266 l -597 266 l -597 368 m -1095 914 l -1561 914 l -1561 826 l -1206 826 b -1609 411 -1227 638 -1363 496 l -1558 331 b -1095 914 -1257 442 -1095 637 z m -597 315 l -1397 315 l -1397 228 l -701 228 l -701 107 l -1394 107 l -1394 -201 l -1255 -201 l -1255 491 z "},"갥":{"ha":-274,"x_min":0,"x_max":0,"o":""},"갦":{"ha":-274,"x_min":0,"x_max":0,"o":""},"갧":{"ha":-591,"x_min":0,"x_max":0,"o":""},"갨":{"ha":-274,"x_min":0,"x_max":0,"o":""},"갩":{"ha":-274,"x_min":0,"x_max":0,"o":""},"갪":{"ha":0,"x_min":0,"x_max":0,"o":""},"갫":{"ha":12,"x_min":0,"x_max":0,"o":"l -270 0 l -270 -164 l -23 -164 l -23 -266 l -598 -266 l -598 -164 l -358 -164 l -358 0 l -612 0 l -612 102 b -1272 324 -1109 642 -1131 459 b NaN NaN -1512 245 -1462 165 l NaN NaN b NaN NaN NaN NaN NaN NaN "},"갬":{"ha":-495,"x_min":0,"x_max":0,"o":"l -298 0 l -298 -164 l -23 -164 l -23 134 l 141 134 l 141 -172 l 243 -172 m 738 -837 z "},"갭":{"ha":-292,"x_min":0,"x_max":0,"o":""},"갮":{"ha":-290,"x_min":0,"x_max":0,"o":""},"갯":{"ha":-317,"x_min":0,"x_max":0,"o":""},"갰":{"ha":-109,"x_min":0,"x_max":0,"o":"l -305 0 l -305 -164 l -23 -164 l -23 -266 l -686 -266 l -686 -164 l -393 -164 l -393 0 l -693 0 l -693 102 m -1188 707 l -1659 707 l -1659 617 l -1298 617 b -1709 157 -1319 416 -1463 258 l -1653 77 b -1188 707 -1351 205 -1188 419 z "},"갱":{"ha":-317,"x_min":0,"x_max":0,"o":""},"갲":{"ha":297,"x_min":0,"x_max":0,"o":""},"갳":{"ha":-290,"x_min":0,"x_max":0,"o":""},"갴":{"ha":-495,"x_min":0,"x_max":0,"o":"l -300 0 l -300 -164 l -23 -164 l -23 130 l 141 130 l 141 -172 l 243 -172 "},"갵":{"ha":0,"x_min":0,"x_max":0,"o":"l -281 0 l -281 -164 l -23 -164 l -23 -266 l -628 -266 l -628 -164 l -369 -164 l -369 0 l -636 0 l -636 102 m -1134 662 l -1600 662 l -1600 572 l -1245 572 b -1651 144 -1267 381 -1403 233 l -1599 65 b -1134 662 -1294 180 -1134 382 z "},"갶":{"ha":298,"x_min":0,"x_max":0,"o":""},"갷":{"ha":-498,"x_min":0,"x_max":0,"o":"l -270 0 l -270 -164 l -23 -164 l -23 -266 l -589 -266 l -589 -164 l -358 -164 l -358 0 l -647 0 l -647 102 "},"갸":{"ha":0,"x_min":0,"x_max":0,"o":"m 1177 770 l 982 770 l 982 1096 l 1412 1096 l 1412 1366 l 1607 1366 "},"갹":{"ha":0,"x_min":0,"x_max":0,"o":"m 1173 910 l 991 910 l 991 1096 l 1165 1096 l 1165 1265 l 1347 1265 "},"갺":{"ha":0,"x_min":0,"x_max":0,"o":"m 1166 918 l 991 918 l 991 1096 l 886 1096 l 886 403 l 991 403 l 991 576 l 1166 576 l 1166 665 l 991 665 l 991 830 l 1166 830 "},"갻":{"ha":0,"x_min":0,"x_max":0,"o":"l -690 0 l -690 106 l -521 106 l -521 277 l -339 277 l -339 363 l -521 363 "},"갼":{"ha":0,"x_min":0,"x_max":0,"o":"m 1173 867 l 991 867 l 991 1096 l 884 1096 l 884 213 l 991 213 l 991 483 l 1199 483 l 1199 665 "},"갽":{"ha":662,"x_min":0,"x_max":0,"o":"m 505 -99 l 1529 -99 l 1529 -274 l 1699 -274 l 1699 -380 l 1040 -380 l 1040 -274 l 1196 -274 l 1196 -99 l 1283 -99 l 1283 -274 l 1440 -274 l 1440 -99 z "},"갾":{"ha":-711,"x_min":0,"x_max":0,"o":"l -618 0 l -618 106 l -479 106 l -479 281 l -391 281 l -391 106 l -258 106 l -258 281 l -171 281 l -171 106 m -315 982 l -871 982 l -871 420 l -959 420 l -959 867 b -1459 449 -980 671 -1164 519 l -1417 365 b -844 955 -1069 448 -844 655 z "},"갿":{"ha":0,"x_min":0,"x_max":0,"o":"l 164 0 l 164 171 l 346 171 l 346 259 l 164 259 "},"걀":{"ha":0,"x_min":0,"x_max":0,"o":"m 1173 943 l 991 943 l 991 1096 l 886 1096 l 886 481 l 991 481 l 991 620 l 1173 620 l 1173 705 l 991 705 l 991 857 l 1173 857 z m 663 1036 l 104 1036 l 104 948 l 547 948 b 50 540 528 758 351 608 l 92 450 b 663 1036 444 534 663 732 z m 991 427 l 222 427 l 222 340 l 886 340 l 886 212 l 225 212 l 225 -99 l 1036 -99 l 1036 -11 l 330 -11 l 330 129 l 991 129 z "},"걁":{"ha":0,"x_min":0,"x_max":0,"o":"l -644 0 l -644 106 l -487 106 l -487 256 l -305 256 l -305 342 l -487 342 "},"걂":{"ha":157,"x_min":0,"x_max":0,"o":"m 152 99 l -406 99 l -406 11 l 35 11 b -461 -396 18 -181 -158 -328 l -420 -484 b 152 99 -65 -403 152 -203 z "},"걃":{"ha":0,"x_min":0,"x_max":0,"o":""},"걄":{"ha":0,"x_min":0,"x_max":0,"o":""},"걅":{"ha":0,"x_min":0,"x_max":0,"o":""},"걆":{"ha":0,"x_min":0,"x_max":0,"o":""},"걇":{"ha":0,"x_min":0,"x_max":0,"o":"l -601 0 l -601 106 l -486 106 l -486 288 l -400 288 l -400 106 l -250 106 l -250 288 l -164 288 l -164 106 "},"걈":{"ha":0,"x_min":0,"x_max":0,"o":""},"걉":{"ha":0,"x_min":0,"x_max":0,"o":""},"걊":{"ha":0,"x_min":0,"x_max":0,"o":""},"걋":{"ha":0,"x_min":0,"x_max":0,"o":"m 1173 887 l 991 887 l 991 1096 l 886 1096 l 886 293 l 991 293 l 991 510 l 1191 510 l 1191 692 b 1396 509 1191 184 1396 293 b 1705 NaN 1396 735 1705 NaN z m 1718 NaN b 1882 NaN 1773 NaN 1718 NaN b NaN NaN 2059 NaN 2105 NaN l NaN NaN b NaN NaN NaN NaN NaN NaN z "},"걌":{"ha":0,"x_min":0,"x_max":0,"o":"m 991 1097 "},"걍":{"ha":0,"x_min":0,"x_max":0,"o":"m 1171 902 l 991 902 l 991 1096 l 886 1096 l 886 372 l 991 372 l 991 551 l 1165 551 l 1165 730 "},"걎":{"ha":0,"x_min":0,"x_max":0,"o":"m 991 1097 "},"걏":{"ha":0,"x_min":0,"x_max":0,"o":"l 665 0 l 665 1017 l 991 1017 l 991 1096 l 1164 1096 l 1164 1252 "},"걐":{"ha":0,"x_min":0,"x_max":0,"o":""},"걑":{"ha":0,"x_min":0,"x_max":0,"o":"l -646 0 l -646 106 l -505 106 l -505 270 "},"걒":{"ha":0,"x_min":0,"x_max":0,"o":"l -671 0 l -671 106 l -510 106 l -510 288 l -423 288 l -423 106 l -256 106 "},"걓":{"ha":0,"x_min":0,"x_max":0,"o":"m 1173 929 l 991 929 l 991 1096 l 886 1096 l 886 458 l 991 458 l 991 591 l 1153 591 l 1153 773 "},"걔":{"ha":-104,"x_min":0,"x_max":0,"o":"m 1078 1096 z m 1317 598 l 1317 282 l 1150 282 l 1150 566 l 1048 566 l 1048 -548 l 1150 -548 l 1150 -145 l 1317 -145 l 1317 -608 l 1568 -608 l 1568 -441 l 1317 -441 z "},"걕":{"ha":-680,"x_min":0,"x_max":0,"o":"m 229 -362 l 229 -260 l 393 -260 l 393 -96 l 221 -96 l 221 87 l 385 87 l 385 -96 z "},"걖":{"ha":-178,"x_min":0,"x_max":0,"o":"m 229 -349 l 229 -513 l 384 -513 l 384 -357 l 548 -357 l 548 -521 l 718 -521 l 718 -357 l 548 -357 z "},"걗":{"ha":0,"x_min":0,"x_max":0,"o":"l -179 0 l -179 -164 l -23 -164 l -23 -15 l 141 -15 l 141 -172 l 243 -172 m -251 431 l -724 431 l -724 343 l -362 343 b -769 -118 -382 140 -522 -18 l -713 -198 b -251 431 -411 -69 -252 144 z m -23 72 l -23 254 l 141 254 l 141 72 z "},"걘":{"ha":-233,"x_min":0,"x_max":0,"o":"m -304 643 l -304 479 l -94 479 l -94 377 l -930 377 l -930 479 l -682 479 l -682 643 l -970 643 l -970 849 l -806 849 l -806 643 z "},"걙":{"ha":-495,"x_min":0,"x_max":0,"o":"l -183 0 l -183 -164 l -23 -164 l -23 -266 l -680 -266 l -680 -164 l -519 -164 l -519 0 l -686 0 l -686 102 m -457 -241 l -457 357 l -297 357 l -297 521 l -457 521 z "},"걚":{"ha":-106,"x_min":0,"x_max":0,"o":"l -581 0 l -581 102 l -450 102 l -450 266 l -600 266 l -600 368 b -1255 581 -1097 918 -1118 728 b NaN NaN -1503 492 -1450 412 l NaN NaN b NaN NaN NaN NaN NaN NaN m NaN NaN z m NaN NaN l NaN NaN l NaN NaN l NaN NaN l NaN NaN z "},"걛":{"ha":-495,"x_min":0,"x_max":0,"o":"l -176 0 l -176 -164 l -22 -164 l -22 1 l 142 1 l 142 -174 l 244 -174 m 473 -519 l 473 91 l 643 91 l 643 255 l 473 255 z "},"걜":{"ha":0,"x_min":0,"x_max":0,"o":"l -167 0 l -167 -164 l -23 -164 l -23 -266 l -610 -266 l -610 -164 l -477 -164 l -477 0 l -620 0 l -620 102 l -1118 102 l -1118 650 l -620 650 l -620 45 l -747 45 l -747 -648 l -1054 -648 l -1054 198 l -967 198 l -967 -543 l -829 -543 l -829 149 m -1095 728 l -1095 869 l -930 869 l -930 728 z "},"걝":{"ha":-165,"x_min":0,"x_max":0,"o":"m 190 575 l 190 411 l 332 411 l 332 551 l 496 551 l 496 404 l 538 404 l 538 -214 l 685 -214 l 685 -50 l 538 -50 z "},"걞":{"ha":-167,"x_min":0,"x_max":0,"o":"m 232 -320 l 232 -484 l 376 -484 l 376 -342 l 540 -342 l 540 -491 l 681 -491 l 681 -327 l 540 -327 z "},"걟":{"ha":-165,"x_min":0,"x_max":0,"o":"m 203 575 l 203 411 l 346 411 l 346 309 l -245 309 l -245 411 l -109 411 l -109 575 l -254 575 l -254 720 l -90 720 l -90 575 z "},"걠":{"ha":-165,"x_min":0,"x_max":0,"o":"m 232 -319 l 232 -483 l 374 -483 l 374 -340 l 538 -340 l 538 -490 l 681 -490 l 681 -326 l 538 -326 z "},"걡":{"ha":0,"x_min":0,"x_max":0,"o":""},"걢":{"ha":-167,"x_min":0,"x_max":0,"o":"m 206 574 l 206 410 l 350 410 l 350 549 l 514 549 l 514 403 l 540 403 l 540 -216 l 684 -216 l 684 -52 l 540 -52 "},"걣":{"ha":12,"x_min":0,"x_max":0,"o":"l -159 0 l -159 -164 l -23 -164 l -23 -266 l -598 -266 l -598 -164 l -468 -164 l -468 0 l -612 0 l -612 102 b -1272 324 -1109 642 -1131 459 b NaN NaN -1512 245 -1462 165 l NaN NaN b NaN NaN NaN NaN NaN NaN m NaN NaN l NaN NaN l NaN NaN l NaN NaN l NaN NaN z "},"걤":{"ha":-495,"x_min":0,"x_max":0,"o":"l -661 0 l -661 102 l -496 102 l -496 266 l -669 266 l -669 368 m -174 -294 z m -609 53 l -5 53 l -5 -743 l 582 -743 l 582 -1004 l -5 -1004 "},"걥":{"ha":-170,"x_min":0,"x_max":0,"o":"m -161 689 l -161 525 l -15 525 l -15 423 l -637 423 l -637 525 l -491 525 l -491 689 l -646 689 l -646 842 l -481 842 l -481 689 z "},"걦":{"ha":-168,"x_min":0,"x_max":0,"o":"m 231 -331 l 231 -495 l 376 -495 l 376 -597 l -245 -597 l -245 -495 l -99 -495 l -99 -331 l -258 -331 l -258 -179 l -94 -179 l -94 -331 z "},"걧":{"ha":-180,"x_min":0,"x_max":0,"o":"m 83 357 l 83 193 l 240 193 l 240 91 l -414 91 l -414 193 l -256 193 l -256 357 l -524 357 l -524 519 l -359 519 l -359 357 z "},"걨":{"ha":0,"x_min":0,"x_max":0,"o":"l -663 0 l -663 102 l -496 102 l -496 266 l -670 266 l -670 368 m -1165 972 l -1636 972 l -1636 883 l -1275 883 b -1686 423 -1296 682 -1440 524 l -1630 343 b -1165 972 -1328 471 -1165 685 "},"걩":{"ha":0,"x_min":0,"x_max":0,"o":""},"걪":{"ha":0,"x_min":0,"x_max":0,"o":""},"걫":{"ha":-171,"x_min":0,"x_max":0,"o":"m 231 -335 l 231 -499 l 378 -499 l 378 -601 l -227 -601 l -227 -499 l -104 -499 l -104 -335 l -292 -335 l -292 -172 l -127 -172 l -127 -335 z "},"걬":{"ha":0,"x_min":0,"x_max":0,"o":"l -176 0 l -176 -164 l -23 -164 l -23 0 l 141 0 l 141 -172 l 243 -172 "},"걭":{"ha":0,"x_min":0,"x_max":0,"o":"l -163 0 l -163 -164 l -23 -164 l -23 -266 l -628 -266 l -628 -164 l -487 -164 l -487 0 l -636 0 l -636 102 m -1134 662 l -1600 662 l -1600 572 l -1245 572 b -1651 144 -1267 381 -1403 233 l -1599 65 b -1134 662 -1294 180 -1134 382 z m -902 339 l -902 490 l -738 490 l -738 339 z "},"걮":{"ha":-658,"x_min":0,"x_max":0,"o":"m 3 667 l 3 769 l 164 769 l 164 933 l -5 933 l -5 1097 l 159 1097 l 159 933 z "},"걯":{"ha":-498,"x_min":0,"x_max":0,"o":"l -566 0 l -566 102 l -444 102 l -444 266 l -633 266 l -633 368 m -496 936 l -496 1511 l -359 1511 l -359 1675 l -496 1675 z "},"거":{"ha":0,"x_min":0,"x_max":0,"o":"l -486 0 l -486 -288 l -574 -288 l -574 0 l -1206 0 l -1206 106 m -1596 1180 l -2150 1180 l -2150 1093 l -1704 1093 b -2203 420 -1725 810 -1876 578 l -2144 335 b -1596 1180 -1742 534 -1596 838 z "},"걱":{"ha":0,"x_min":0,"x_max":0,"o":"m 673 1017 b 476 NaN 126 929 560 974 l NaN NaN b NaN NaN NaN NaN NaN NaN l NaN NaN l NaN NaN l NaN NaN l NaN NaN z m NaN NaN l NaN NaN l NaN NaN l NaN NaN l NaN NaN l NaN NaN l NaN NaN l NaN NaN z "},"걲":{"ha":0,"x_min":0,"x_max":0,"o":"m -66 1204 l -174 1204 l -174 894 l -475 894 l -475 1001 z m -475 945 l -860 945 l -860 857 l -582 857 l -582 496 l -475 496 z "},"걳":{"ha":106,"x_min":0,"x_max":0,"o":"m 377 77 l 270 77 l 270 -233 l -35 -233 l -35 -126 z m -146 -239 l -146 -159 l -252 -159 l -252 -239 b -472 -549 -254 -368 -328 -495 l -415 -632 z m -751 -571 l -708 -571 l -708 -500 l -629 -500 l -629 -461 l -533 -461 l -533 -425 l -629 -425 l -629 -355 l -707 -355 l -707 -250 l -749 -250 l -749 -643 l -834 -643 l -834 -355 l -1191 -355 l -1191 -250 z "},"건":{"ha":0,"x_min":0,"x_max":0,"o":"l -372 0 l -372 -267 l -461 -267 l -461 0 l -891 0 l -891 107 m -1260 906 l -1811 906 l -1811 817 l -1377 817 b -1872 334 -1400 598 -1594 425 l -1826 248 b -1260 906 -1482 361 -1261 597 z m -860 -91 l -1550 -91 l -1550 198 l -1659 198 l -1659 -180 l -860 -180 z "},"걵":{"ha":0,"x_min":0,"x_max":0,"o":"m NaN 338 l NaN 338 l NaN 248 l NaN 248 b NaN -39 NaN 132 NaN 13 l NaN -119 b NaN 92 NaN -80 NaN -1 b NaN -119 NaN -1 NaN -79 l NaN -39 b NaN 248 NaN 13 NaN 132 l NaN 248 l NaN 248 l NaN 1002 l NaN 1002 l NaN 1109 z "},"걶":{"ha":-361,"x_min":0,"x_max":0,"o":"l -292 0 l -292 -240 l -184 -240 m -570 320 l -1103 320 l -1103 232 l -682 232 b -1166 -194 -704 31 -874 -118 l -1127 -279 b -570 320 -776 -187 -570 19 z "},"걷":{"ha":0,"x_min":0,"x_max":0,"o":"m 671 1017 l 125 1017 l 125 929 l 557 929 b 62 481 533 722 350 563 l 104 397 l 453 397 l 453 496 l 670 496 l 670 713 l 671 713 l 671 1017 l 350 1017 l 350 750 l 262 750 l 262 1017 l -15 1017 l -15 1124 "},"걸":{"ha":0,"x_min":0,"x_max":0,"o":"l -292 0 l -292 -240 l -184 -240 m -568 320 l -1103 320 l -1103 232 l -681 232 b -1165 -178 -703 39 -876 -108 l -1127 -266 b -568 320 -780 -178 -568 20 z m -184 -292 "},"걹":{"ha":0,"x_min":0,"x_max":0,"o":"l -294 0 l -294 -267 l -382 -267 l -382 0 l -646 0 l -646 107 "},"걺":{"ha":-378,"x_min":0,"x_max":0,"o":"l -293 0 l -293 -258 l -186 -258 m 274 22 l 850 22 l 850 -60 l 221 -60 l 221 -445 l -277 -445 l -277 -60 z m -567 357 l -372 357 l -372 22 l -567 22 z "},"걻":{"ha":-378,"x_min":0,"x_max":0,"o":"l -286 0 l -286 -245 l -179 -245 m -9 46 l -9 604 l -91 604 l -91 -26 l -186 -26 l -186 -536 l 199 -536 l 199 -26 l 103 -26 l 103 -189 l -91 -189 l -91 5 l -271 5 z "},"걼":{"ha":0,"x_min":0,"x_max":0,"o":"l -286 0 l -286 -270 l -179 -270 "},"걽":{"ha":0,"x_min":0,"x_max":0,"o":"l -286 0 l -286 -245 l -179 -245 "},"걾":{"ha":-378,"x_min":0,"x_max":0,"o":"l -293 0 l -293 -258 l -186 -258 m -56 -1299 l -56 -723 l 271 -723 l 271 -610 l -56 -610 z "},"걿":{"ha":0,"x_min":0,"x_max":0,"o":"l -278 0 l -278 -267 l -366 -267 l -366 0 l -616 0 l -616 107 m -994 663 l -1538 663 l -1538 575 l -1107 575 b -1598 168 -1128 381 -1306 236 l -1558 80 b -994 663 -1211 165 -994 363 "},"검":{"ha":671,"x_min":0,"x_max":0,"o":"m 0 -52 l 1017 -52 l 1017 -834 l 568 -834 l 568 -52 "},"겁":{"ha":0,"x_min":0,"x_max":0,"o":"l -305 0 l -305 -267 l -392 -267 l -392 0 l -648 0 l -648 106 m -1023 680 l -1569 680 l -1569 590 l -1137 590 b -1630 164 -1159 391 -1333 239 l -1590 79 b -1023 680 -1236 171 -1023 377 "},"겂":{"ha":0,"x_min":0,"x_max":0,"o":"l -305 0 l -305 -267 l -392 -267 l -392 0 l -648 0 l -648 106 m -1023 680 l -1569 680 l -1569 590 l -1137 590 b -1630 164 -1159 391 -1333 239 l -1590 79 b -1023 680 -1236 171 -1023 377 z "},"것":{"ha":0,"x_min":0,"x_max":0,"o":"l -339 0 l -339 -264 l -429 -264 l -429 0 l -817 0 l -817 107 m -1194 829 l -1736 829 l -1736 742 l -1308 742 b -1796 271 -1330 528 -1508 360 l -1748 186 b -1194 829 -1401 297 -1195 519 z m -1156 157 l -1156 213 l -1260 213 l -1260 157 b -1670 -193 -1261 -20 -1457 -156 l -1626 -277 b -1207 -5 -1447 -241 -1281 -147 b -795 -274 -1136 -146 -972 -239 l -750 -189 b -1156 157 -963 -151 -1156 -19 z "},"겄":{"ha":0,"x_min":0,"x_max":0,"o":"m 671 1017 l 130 1017 l 130 929 l 557 929 l 557 620 l 293 620 l 293 530 l 557 530 l 557 241 l 665 241 "},"겅":{"ha":0,"x_min":0,"x_max":0,"o":"l -340 0 l -340 -263 l -430 -263 l -430 0 l -722 0 l -722 107 m -1096 739 l -1644 739 l -1644 650 l -1210 650 b -1706 191 -1232 441 -1415 278 l -1662 107 b -1096 739 -1313 210 -1097 429 z m -1116 95 b -1519 -137 -1363 95 -1519 8 b -1116 -370 -1519 -283 -1363 -370 b -715 -137 -872 -370 -715 -283 b -1116 95 -715 8 -872 95 z m -1116 9 b -821 -137 -937 11 -822 -46 b -1116 -283 -822 -229 -937 -283 b -1415 -137 -1298 -283 -1415 -229 b -1116 9 -1415 -46 -1298 11 z "},"겆":{"ha":0,"x_min":0,"x_max":0,"o":"m 690 1017 l 126 1017 l 126 929 l 576 929 b 68 494 554 727 369 568 l 109 407 b 690 1017 467 499 689 711 z m 1048 1095 "},"겇":{"ha":0,"x_min":0,"x_max":0,"o":"m 719 243 l 719 244 l 1076 244 l 1076 327 l 719 327 l 719 461 l 610 461 l 610 327 l 252 327 l 252 244 l 610 244 l 610 243 b 203 -23 610 119 410 1 l 240 -104 b 665 122 422 -80 591 5 b 1082 -104 735 7 901 -79 b NaN NaN 1119 -103 1238 NaN z m NaN NaN l NaN NaN l NaN NaN l NaN NaN b NaN NaN NaN NaN NaN NaN l NaN NaN b NaN NaN NaN NaN NaN NaN z m NaN NaN l NaN NaN l NaN NaN l NaN NaN l NaN NaN l NaN NaN l NaN NaN l NaN NaN z "},"겈":{"ha":-377,"x_min":0,"x_max":0,"o":""},"겉":{"ha":0,"x_min":0,"x_max":0,"o":"l -307 0 l -307 -262 l -395 -262 l -395 0 l -652 0 l -652 107 m -1027 686 l -1575 686 l -1575 600 l -1142 600 b -1636 171 -1163 399 -1336 245 l -1595 84 b -1027 686 -1238 176 -1028 382 z "},"겊":{"ha":0,"x_min":0,"x_max":0,"o":"m 674 1017 l 126 1017 l 126 929 l 560 929 b 65 494 537 727 352 570 l 106 408 b 674 1017 453 500 673 715 z m 1048 1095 "},"겋":{"ha":0,"x_min":0,"x_max":0,"o":"m 663 1024 l 126 1024 l 126 937 l 549 937 b 64 515 529 739 362 589 l 103 431 b 663 1024 458 522 663 722 z m 1048 1096 "},"게":{"ha":1081,"x_min":0,"x_max":0,"o":"m -254 1173 l 842 1173 l 842 1072 l 380 1072 l 380 856 b 439 1196 420 963 439 1078 l -28 1196 l -28 1108 l 334 1108 b -80 483 314 856 182 638 l -18 406 b 340 769 151 505 267 629 l 595 769 l 595 206 l 697 206 z "},"겍":{"ha":491,"x_min":0,"x_max":0,"o":"b 720 -456 1105 -203 962 -356 l 774 -536 b 1147 -241 943 -464 1069 -365 l 1384 -241 l 1384 -507 l 1486 -507 l 1486 161 l 1384 161 l 1384 -152 l 1193 -152 b 1238 88 1222 -79 1238 1 "},"겎":{"ha":0,"x_min":0,"x_max":0,"o":"b 231 610 582 996 382 850 b NaN NaN 134 665 57 NaN l NaN NaN b NaN NaN NaN NaN NaN NaN l NaN NaN l NaN NaN l NaN NaN l NaN NaN b NaN NaN NaN NaN NaN NaN "},"겏":{"ha":491,"x_min":0,"x_max":0,"o":"b 347 -448 732 -199 587 -352 l 402 -525 b 774 -236 570 -456 696 -359 l 1011 -236 l 1011 -496 l 1113 -496 l 1113 155 l 1011 155 l 1011 -149 l 820 -149 b 865 88 849 -77 865 2 "},"겐":{"ha":0,"x_min":0,"x_max":0,"o":"l -906 0 l -906 102 m -1149 983 l -1251 983 l -1251 620 l -1454 620 b -1398 891 -1417 702 -1398 793 l -1866 891 l -1866 804 l -1508 804 b -1922 328 -1529 597 -1670 433 l -1866 250 b -1501 534 -1702 320 -1579 416 l -1251 534 l -1251 137 l -1149 137 z m -863 -81 l -1586 -81 l -1586 216 l -1693 216 l -1693 -171 l -863 -171 z "},"겑":{"ha":0,"x_min":0,"x_max":0,"o":"l 264 0 l 264 991 l 8 991 l 8 1093 l 656 1093 l 656 991 l 350 991 l 350 800 b 395 1044 379 875 395 956 m 886 1133 l 784 1133 l 784 446 l 886 446 z "},"겒":{"ha":0,"x_min":0,"x_max":0,"o":"m 328 363 l 222 363 l 222 -77 l 279 -77 b 591 -35 361 -77 473 -73 l 571 53 b 328 11 488 24 398 14 z m 1139 342 l 902 342 l 902 100 l 821 100 l 821 684 z m 530 635 b 298 475 395 635 298 572 b 530 313 298 376 395 315 b 761 475 665 315 761 376 b 530 635 761 572 665 635 z m 530 559 b 665 475 609 559 665 526 b 530 392 665 422 609 391 b 393 475 449 391 393 422 b 530 559 393 526 449 559 z m 260 1439 l -202 1439 l -202 1350 l 151 1350 b -258 920 129 1157 -6 1009 l -205 842 b 168 1114 -33 907 91 997 l 410 1114 l 410 922 l 511 922 l 511 1492 l 410 1492 l 410 1202 l 216 1202 b 260 1439 245 1273 260 1352 z m 754 1518 l 652 1518 l 652 890 l 754 890 z "},"겓":{"ha":0,"x_min":0,"x_max":0,"o":"m 1095 -1 l 385 -1 l 385 237 l 1081 237 l 1081 323 l 277 323 l 277 -90 l 1095 -90 l 582 -90 l 582 1006 l 309 1006 l 309 700 l 118 700 b 163 944 147 774 163 856 z m 654 1032 z "},"겔":{"ha":0,"x_min":0,"x_max":0,"o":"l -620 0 l -620 102 l -863 102 l -863 696 l -1092 696 l -1092 798 l -849 798 l -849 732 l -970 732 l -970 39 l -1275 39 l -1275 175 l -583 175 "},"겕":{"ha":-456,"x_min":0,"x_max":0,"o":"l -625 0 l -625 102 l -868 102 l -868 701 l -1104 701 l -1104 803 m -861 731 l -1252 731 l -1252 643 l -966 643 l -966 217 l -861 217 z "},"겖":{"ha":0,"x_min":0,"x_max":0,"o":"l -629 0 l -629 102 b -1105 520 -872 705 -1018 456 b NaN NaN -978 613 -900 732 l NaN NaN l NaN NaN l NaN NaN "},"겗":{"ha":0,"x_min":0,"x_max":0,"o":"m 779 416 l 779 317 l 269 317 l 269 711 l 779 711 l 779 614 l 616 614 l 616 416 l 814 416 l 814 236 "},"겘":{"ha":117,"x_min":0,"x_max":0,"o":"l -635 0 l -635 102 l -878 102 l -878 711 l -1116 711 l -1116 812 "},"겙":{"ha":0,"x_min":0,"x_max":0,"o":""},"겚":{"ha":0,"x_min":0,"x_max":0,"o":"b -476 418 -243 604 -389 354 b NaN NaN -349 511 -271 631 l NaN NaN l NaN NaN l NaN NaN "},"겛":{"ha":-206,"x_min":0,"x_max":0,"o":"l -628 0 l -628 102 m -871 704 l -972 704 l -972 435 l -1160 435 b -1119 659 -1133 503 -1119 578 l -1586 659 l -1586 572 l -1230 572 b -1637 155 -1251 384 -1388 239 b -1364 NaN -1575 281 -1483 359 l -1131 NaN l -1131 NaN l -1029 NaN z m -722 NaN z "},"겜":{"ha":690,"x_min":0,"x_max":0,"o":"l 582 0 l 582 1006 l 320 1006 l 320 1108 l 974 1108 l 974 1006 l 667 1006 l 667 815 b 712 1059 696 890 712 971 m 1203 397 l 407 397 l 407 -38 l 1203 -38 z m 513 311 l 1099 311 l 1099 49 l 513 49 z "},"겝":{"ha":0,"x_min":0,"x_max":0,"o":"l 579 0 l 579 1010 l 336 1010 l 336 1112 l 964 1112 l 964 1010 l 667 1010 l 667 818 b 711 1057 696 890 710 970 m 517 427 l 411 427 l 411 -47 l 1204 -47 l 1204 427 l 1100 427 l 1100 283 l 517 283 z m 517 39 l 517 195 l 1100 195 l 1100 39 z m 1204 1141 l 1103 1141 l 1103 479 l 1204 479 z "},"겞":{"ha":0,"x_min":0,"x_max":0,"o":"l -368 0 l -368 718 l -598 718 l -598 819 l 18 819 l 18 718 l -279 718 l -279 525 b -236 764 -251 597 -237 677 m 258 848 l 156 848 l 156 194 l 258 194 z "},"겟":{"ha":0,"x_min":0,"x_max":0,"o":"l -803 0 l -803 102 m -1046 879 l -1147 879 l -1147 549 l -1340 549 b -1297 793 -1312 625 -1297 706 l -1766 793 l -1766 707 l -1405 707 b -1817 225 -1426 497 -1568 330 l -1761 145 b -1383 460 -1586 222 -1460 329 l -1147 460 l -1147 205 l -1046 205 z m -1154 118 l -1154 172 l -1261 172 l -1261 118 b -1678 -210 -1261 -45 -1468 -176 l -1636 -294 b -1208 -31 -1455 -262 -1284 -169 b -780 -294 -1135 -169 -961 -262 l -738 -210 b -1154 118 -949 -176 -1156 -45 z "},"겠":{"ha":490,"x_min":0,"x_max":0,"o":"m 583 1006 l 113 1006 l 113 918 l 473 918 b 61 453 452 713 308 554 l 117 374 b 486 663 283 446 408 543 l 728 663 l 728 416 l 830 416 l 830 1069 l 728 1069 l 728 751 l 533 751 b 583 1006 566 829 583 913 z "},"겡":{"ha":0,"x_min":0,"x_max":0,"o":"m 582 997 l 110 997 l 110 909 l 473 909 b 57 438 452 702 309 541 l 113 358 b 492 662 286 432 414 534 l 728 662 l 728 397 l 830 397 l 830 1069 l 728 1069 l 728 750 l 536 750 b 582 997 566 825 582 907 z m 1073 1095 l 971 1095 l 971 355 l 1073 355 z m 677 342 b 264 118 420 342 264 258 b 677 -104 264 -23 420 -104 b 1088 118 932 -104 1088 -23 b 677 342 1088 258 932 342 z m 677 258 b 981 118 863 258 981 205 b 677 -22 981 31 863 -22 b 370 118 490 -22 370 31 b 677 258 370 205 490 258 z "},"겢":{"ha":-818,"x_min":0,"x_max":0,"o":"l 582 0 l 582 1006 l 326 1006 l 326 1108 l 974 1108 l 974 1006 l 667 1006 l 667 815 b 712 1059 696 890 712 971 m 1203 1147 l 1101 1147 l 1101 461 l 1203 461 z m 1217 396 z "},"겣":{"ha":0,"x_min":0,"x_max":0,"o":"m -153 705 l -614 705 l -614 616 l -262 616 b -674 160 -283 416 -416 258 l -617 81 b -240 376 -441 153 -315 252 l -3 376 l -3 153 l 99 153 l 99 758 l -3 758 l -3 464 l -195 464 b -153 705 -168 537 -153 618 z m 342 784 l 240 784 l 240 98 l 342 98 z "},"겤":{"ha":491,"x_min":0,"x_max":0,"o":"b 878 1180 582 1006 752 1080 b NaN NaN 956 1306 NaN NaN l NaN NaN l NaN NaN l NaN NaN l NaN NaN l NaN NaN l NaN NaN l NaN NaN b NaN NaN NaN NaN NaN NaN m NaN NaN l NaN NaN l NaN NaN l NaN NaN l NaN NaN l NaN NaN l NaN NaN l NaN NaN l NaN NaN l NaN NaN l NaN NaN z "},"겥":{"ha":0,"x_min":0,"x_max":0,"o":"l -628 0 l -628 102 m -871 704 l -972 704 l -972 437 l -1158 437 b -1119 659 -1133 504 -1119 578 l -1586 659 l -1586 572 l -1230 572 b -1637 148 -1251 382 -1388 236 l -1584 69 b -1203 350 -1409 134 -1280 229 l -972 350 l -972 111 l -871 111 z "},"겦":{"ha":0,"x_min":0,"x_max":0,"o":"m 1082 353 l 255 353 l 255 266 l 431 266 l 431 -4 l 701 -4 l 701 171 l 201 171 l 201 911 l -56 911 l -56 1013 l 593 1013 l 593 911 l 286 911 l 286 720 b 331 964 315 795 331 876 z m 822 1053 l 720 1053 l 720 369 l 822 369 z m 288 -46 l 288 224 l 553 224 l 553 -46 z "},"겧":{"ha":1103,"x_min":0,"x_max":0,"o":"m -92 878 l 266 878 l 266 416 l 178 416 l 178 769 b -231 331 156 574 22 425 b 52 NaN -163 457 -69 534 l 289 NaN l 289 NaN l 391 NaN l 391 NaN l 289 NaN l 289 NaN l 96 NaN b 138 NaN 124 NaN 138 NaN z m 633 NaN l 532 NaN l 532 NaN l 633 NaN z "},"겨":{"ha":0,"x_min":0,"x_max":0,"o":"m 661 964 l 103 964 l 103 878 l 553 878 b 50 205 531 593 372 360 l 106 118 b 620 677 391 256 550 453 l 941 677 l 941 442 l 601 442 l 601 354 l 941 354 l 941 -110 l 1047 -110 l 1047 1097 l 941 1097 l 941 764 l 642 764 b 661 964 654 829 661 896 z "},"격":{"ha":0,"x_min":0,"x_max":0,"o":"m 685 1013 l 129 1013 l 129 926 l 571 926 b 68 477 549 721 362 559 l 110 392 b 642 791 371 464 559 601 l 941 791 l 941 624 l 781 624 l 781 731 l 1500 731 l 1500 624 l 1284 624 l 1284 353 b 1299 487 1294 395 1299 440 l 1663 487 l 1663 -203 l 1317 -203 l 1317 -96 z "},"겪":{"ha":684,"x_min":0,"x_max":0,"o":"m -79 449 l 939 449 l 939 302 l 1046 302 l 1046 1002 l 661 1002 l 661 914 l 939 914 l 939 553 l 1046 553 z "},"겫":{"ha":106,"x_min":0,"x_max":0,"o":"m 937 278 l 937 358 l 831 358 l 831 278 b 612 -33 830 149 755 22 l 669 -115 z m 332 -54 l 376 -54 l 376 17 l 455 17 l 455 56 l 551 56 l 551 92 l 455 92 l 455 161 l 376 161 l 376 267 l 335 267 l 335 -126 l 250 -126 l 250 161 l -107 161 l -107 267 z "},"견":{"ha":0,"x_min":0,"x_max":0,"o":"l -250 0 l -250 -277 b -229 -121 -237 -227 -229 -175 l -785 -121 l -785 -209 l -346 -209 b -845 -693 -369 -427 -563 -600 l -798 -779 b -281 -363 -551 -699 -366 -554 l 27 -363 l 27 -547 l -297 -547 l -297 -635 l 27 -635 l 27 -926 l 134 -926 m 165 -1116 l -525 -1116 l -525 -837 l -633 -837 l -633 -1206 l 165 -1206 z "},"겭":{"ha":-148,"x_min":0,"x_max":0,"o":"m NaN 335 l NaN 335 l NaN 247 l NaN 247 b NaN -39 NaN 131 NaN 13 l NaN -119 b NaN 92 NaN -80 NaN -1 b NaN -119 NaN -1 NaN -79 l NaN -39 b NaN 247 NaN 13 NaN 131 l NaN 247 z m NaN 1002 z "},"겮":{"ha":302,"x_min":0,"x_max":0,"o":"m 224 960 l 590 960 l 590 853 l 414 853 l 414 575 b 425 690 420 612 425 650 l -119 690 l -119 602 l 308 602 b -182 182 288 404 118 254 l -142 94 b 389 490 130 161 315 296 l 692 490 l 692 342 l 370 342 l 370 258 l 692 258 l 692 132 l 799 132 z "},"겯":{"ha":0,"x_min":0,"x_max":0,"o":"m 677 1017 b 481 682 125 929 563 638 l 399 NaN b 928 NaN 661 NaN 850 NaN l 1232 NaN l 1232 NaN l 910 NaN l 910 NaN l 1232 NaN l 1232 NaN l 1339 NaN l 1339 NaN l 1232 NaN l 1232 NaN l 955 NaN b 967 NaN 963 NaN 967 NaN "},"결":{"ha":0,"x_min":0,"x_max":0,"o":"l -176 0 l -176 -278 b -165 -163 -170 -241 -165 -203 l -709 -163 l -709 -251 l -282 -251 b -770 -658 -302 -445 -475 -589 l -732 -746 b -202 -363 -465 -682 -278 -554 l 102 -363 l 102 -509 l -220 -509 l -220 -593 l 102 -593 l 102 -719 l 209 -719 m 209 -773 "},"겱":{"ha":0,"x_min":0,"x_max":0,"o":"m 673 1035 "},"겲":{"ha":-148,"x_min":0,"x_max":0,"o":"m 673 1035 z m 1133 1314 l 1240 1314 l 1240 1953 l 1156 1953 l 1156 1322 l 770 1322 l 770 825 l 1156 825 z m 865 1241 l 1061 1241 l 1061 906 l 865 906 z "}}}
